<?xml version="1.0" encoding="UTF-8"?>
<svg version="1.0" width="510" height="440" xmlns="http://www.w3.org/2000/svg">
 <g stroke="#000" fill="none">
  <path stroke-width="1.2" d="M290,45L220,10M150,220L80,290M220,430L150,325M290,115L220,80M80,220L10,220M220,290L150,395M80,325L10,220M430,290L360,185M290,430L220,325M360,115L290,45M220,10L150,80M360,80L290,10M500,220L430,185M150,220L80,150M150,45L80,150M430,185L360,220M220,360L150,360M430,325L360,325M150,115L80,185M360,325L290,360M220,255L150,360M150,150L80,115M430,185L360,290M220,325L150,360M150,290L80,220M220,325L150,395M430,115L360,220M430,150L360,150M430,220L360,150M430,115L360,80M220,360L150,395M430,150L360,185M220,80L150,45M430,325L360,255M150,255L80,325M360,150L290,150M220,395L150,395M290,325L220,395M430,150L360,255M290,115L220,45M290,395L220,325M360,290L290,360M430,150L360,115M220,430L150,360M220,115L150,80M220,80L150,150M360,80L290,115M430,150L360,45M360,115L290,115M290,45L220,115M80,255L10,220M500,220L430,325M150,150L80,255M360,395L290,290M220,185L150,150M150,290L80,325M360,360L290,430M430,290L360,255M220,360L150,290M360,80L290,185M430,255L360,255M220,45L150,150M290,80L220,45M500,220L430,290M150,185L80,290M150,325L80,255M290,360L220,395M360,395L290,430M360,45L290,150M430,185L360,115M150,325L80,290M150,395L80,325M150,255L80,255M220,430L150,395M150,45L80,115M150,150L80,220M150,220L80,115M430,290L360,395M360,150L290,185M220,360L150,325M430,290L360,220M500,220L430,150M430,325L360,395M150,255L80,220M360,325L290,430M290,80L220,115M290,430L220,430M430,325L360,220M360,360L290,255M360,150L290,80M360,290L290,255M150,360L80,255M290,290L220,395M150,185L80,255M150,115L80,150M360,290L290,290M150,395L80,290M290,395L220,360M290,10L220,45M430,115L360,185M360,45L290,45M430,150L360,220M150,220L80,185M290,45L220,150M290,430L220,360M430,220L360,325M430,290L360,325M290,45L220,80M150,290L80,185M220,325L150,325M150,255L80,185M220,255L150,290M430,255L360,150M150,185L80,185M220,290L150,360M150,185L80,220M360,80L290,80M430,290L360,290M430,220L360,185M290,325L220,430M430,255L360,185M150,220L80,325M150,290L80,290M430,115L360,150M290,395L220,290M360,150L290,45M80,150L10,220M290,150L220,45M150,80L80,115M150,80L80,185M220,10L150,45M220,10L150,115M150,115L80,220M150,150L80,150M220,45L150,115M220,80L150,80M220,80L150,115M220,115L150,115M290,10L220,10M290,10L220,80M290,10L220,115M150,185L80,150M80,185L10,220M150,220L80,255M430,325L360,360M360,115L290,80M150,255L80,150M220,150L150,150M290,80L220,80M360,45L290,10M430,185L360,80M360,45L290,80M360,45L290,115M80,290L10,220M290,360L220,360M220,115L150,45M150,255L80,290M80,115L10,220M430,185L360,255M360,360L290,360M150,325L80,220M220,395L150,325M290,80L220,10M290,430L220,395M220,395L150,290M220,45L150,45M220,150L150,45M290,360L220,430M360,395L290,325M360,80L290,150M360,360L290,290M360,360L290,325M430,255L360,360M430,220L360,115M290,360L220,325M430,115L360,45M430,220L360,255M430,115L360,115M500,220L430,255M430,255L360,325M290,395L220,430M430,325L360,290M360,395L290,395M150,185L80,115M430,220L360,290M150,360L80,325M220,185L150,80M430,255L360,220M430,185L360,185M290,115L220,10M150,325L80,325M360,395L290,360M220,290L150,290M360,290L290,395M500,220L430,115M360,115L290,10M360,325L290,325M500,220L430,220M220,150L150,80M150,115L80,115M290,325L220,360M360,325L290,395"/>
  <path stroke-width="1.25" d="M220,325L150,220M290,185L220,255M290,115L220,185M220,220L150,255M360,290L290,325M290,325L220,290M290,150L220,80M360,115L290,185M220,255L150,150M220,150L150,185M360,255L290,185M220,220L150,150M290,255L220,255M360,115L290,220M360,150L290,255M220,220L150,115M220,290L150,255M360,220L290,255M360,220L290,115M290,290L220,360M360,185L290,220M220,185L150,290M290,185L220,185M290,290L220,325M360,290L290,220M360,185L290,115M290,80L220,185M290,360L220,255M290,325L220,325M360,255L290,325M290,255L220,290M220,255L150,220M360,220L290,150M360,325L290,290M360,185L290,150M220,185L150,115M290,115L220,150M290,185L220,80M220,220L150,290M220,325L150,290M220,360L150,255M290,325L220,255M220,290L150,220M220,325L150,255M220,255L150,325M290,360L220,290M290,150L220,115M290,220L220,220M290,150L220,185M290,290L220,255M290,185L220,115M220,115L150,150M220,150L150,115M360,150L290,220M360,220L290,325M360,115L290,150M360,255L290,360M220,115L150,185M220,115L150,220M290,185L220,150M220,255L150,185M360,325L290,220M360,255L290,255M290,255L220,325M360,255L290,290M220,185L150,255M360,220L290,185M360,185L290,80M290,80L220,150M360,290L290,185M220,185L150,185M290,255L220,360M290,115L220,115M220,80L150,185M360,220L290,290M360,255L290,220M360,185L290,185M290,255L220,185M220,220L150,185M220,185L150,220M220,220L150,325M360,185L290,255M220,255L150,255M220,290L150,325M220,150L150,220M360,325L290,255M360,150L290,115"/>
  <path stroke-width="1.3" d="M360,185L290,290M220,290L150,185M290,185L220,290M290,255L220,150M290,220L220,115M290,325L220,220M220,220L150,220M290,115L220,220M290,150L220,150M290,220L220,185M290,290L220,220M290,220L220,325M220,150L150,255M360,220L290,220M290,220L220,290M290,220L220,150M290,290L220,290M290,220L220,255M290,290L220,185M290,255L220,220M290,185L220,220M290,150L220,220M290,150L220,255M360,255L290,150"/>
  <circle cx="500" cy="220" r="5" fill="#ff0000"/>
  <circle cx="430" cy="325" r="5" fill="#ff0000"/>
  <circle cx="430" cy="290" r="5" fill="#ff0000"/>
  <circle cx="360" cy="395" r="5" fill="#ff0000"/>
  <circle cx="430" cy="255" r="5" fill="#ff0000"/>
  <circle cx="360" cy="360" r="5" fill="#ff0000"/>
  <circle cx="360" cy="325" r="5" fill="#ffa000"/>
  <circle cx="290" cy="430" r="5" fill="#ff0000"/>
  <circle cx="430" cy="220" r="5" fill="#ff0000"/>
  <circle cx="360" cy="290" r="5" fill="#ffa000"/>
  <circle cx="290" cy="395" r="5" fill="#ff0000"/>
  <circle cx="360" cy="255" r="5" fill="#ffff00"/>
  <circle cx="290" cy="360" r="5" fill="#ffa000"/>
  <circle cx="290" cy="325" r="5" fill="#ffff00"/>
  <circle cx="220" cy="430" r="5" fill="#ff0000"/>
  <circle cx="430" cy="185" r="5" fill="#ff0000"/>
  <circle cx="360" cy="220" r="5" fill="#ffff00"/>
  <circle cx="290" cy="290" r="5" fill="#a0ff00"/>
  <circle cx="220" cy="395" r="5" fill="#ff0000"/>
  <circle cx="360" cy="185" r="5" fill="#ffff00"/>
  <circle cx="290" cy="255" r="5" fill="#a0ff00"/>
  <circle cx="220" cy="360" r="5" fill="#ffa000"/>
  <circle cx="290" cy="220" r="5" fill="#00ff00"/>
  <circle cx="220" cy="325" r="5" fill="#ffff00"/>
  <circle cx="220" cy="290" r="5" fill="#a0ff00"/>
  <circle cx="150" cy="395" r="5" fill="#ff0000"/>
  <circle cx="430" cy="150" r="5" fill="#ff0000"/>
  <circle cx="360" cy="150" r="5" fill="#ffa000"/>
  <circle cx="290" cy="185" r="5" fill="#a0ff00"/>
  <circle cx="220" cy="255" r="5" fill="#a0ff00"/>
  <circle cx="150" cy="360" r="5" fill="#ff0000"/>
  <circle cx="360" cy="115" r="5" fill="#ffa000"/>
  <circle cx="290" cy="150" r="5" fill="#a0ff00"/>
  <circle cx="220" cy="220" r="5" fill="#00ff00"/>
  <circle cx="150" cy="325" r="5" fill="#ffa000"/>
  <circle cx="290" cy="115" r="5" fill="#ffff00"/>
  <circle cx="220" cy="185" r="5" fill="#a0ff00"/>
  <circle cx="150" cy="290" r="5" fill="#ffa000"/>
  <circle cx="220" cy="150" r="5" fill="#a0ff00"/>
  <circle cx="150" cy="255" r="5" fill="#ffff00"/>
  <circle cx="150" cy="220" r="5" fill="#ffff00"/>
  <circle cx="80" cy="325" r="5" fill="#ff0000"/>
  <circle cx="430" cy="115" r="5" fill="#ff0000"/>
  <circle cx="360" cy="80" r="5" fill="#ff0000"/>
  <circle cx="290" cy="80" r="5" fill="#ffa000"/>
  <circle cx="220" cy="115" r="5" fill="#ffff00"/>
  <circle cx="150" cy="185" r="5" fill="#ffff00"/>
  <circle cx="80" cy="290" r="5" fill="#ff0000"/>
  <circle cx="360" cy="45" r="5" fill="#ff0000"/>
  <circle cx="290" cy="45" r="5" fill="#ff0000"/>
  <circle cx="220" cy="80" r="5" fill="#ffa000"/>
  <circle cx="150" cy="150" r="5" fill="#ffa000"/>
  <circle cx="80" cy="255" r="5" fill="#ff0000"/>
  <circle cx="290" cy="10" r="5" fill="#ff0000"/>
  <circle cx="220" cy="45" r="5" fill="#ff0000"/>
  <circle cx="150" cy="115" r="5" fill="#ffa000"/>
  <circle cx="80" cy="220" r="5" fill="#ff0000"/>
  <circle cx="220" cy="10" r="5" fill="#ff0000"/>
  <circle cx="150" cy="80" r="5" fill="#ff0000"/>
  <circle cx="80" cy="185" r="5" fill="#ff0000"/>
  <circle cx="150" cy="45" r="5" fill="#ff0000"/>
  <circle cx="80" cy="150" r="5" fill="#ff0000"/>
  <circle cx="80" cy="115" r="5" fill="#ff0000"/>
  <circle cx="10" cy="220" r="5" fill="#ff0000"/>
 </g>
</svg>