<?xml version="1.0" encoding="utf-8" ?>
<svg xmlns="http://www.w3.org/2000/svg" xmlns:xlink="http://www.w3.org/1999/xlink" width="1820" height="1024">
	<path fill="#606C38" d="M0 0L1818.44 0C1820.58 3.35778 1819.99 8.22266 1820 12.0828L1820 742.336L1820.01 943.951L1820 997.417C1819.99 1004.76 1820.98 1013.76 1819.75 1020.9C1819.56 1022.02 1819.05 1023.05 1818.44 1024L0 1024L0 0Z"/>
	<path fill="#D6CC9C" d="M414.855 165.346C416.23 165.223 417.666 165.066 419.047 165.134C421.929 165.276 424.451 166.533 426.337 168.732C427.969 170.636 428.793 172.904 428.585 175.417C428.237 179.629 425.895 181.965 422.793 184.388C421.581 184.533 420.364 184.667 419.142 184.679C416.073 184.71 412.8 183.393 410.701 181.139C409.095 179.414 408.347 177.126 408.503 174.783C408.8 170.329 411.664 167.938 414.855 165.346Z"/>
	<path fill="#D6CC9C" d="M464.995 235.224C467.582 237.652 469.438 242.52 471.092 245.72L481.847 251.422L471.067 256.795L466.364 267.143C463.563 264.878 461.973 260.036 460.466 256.76C456.966 254.76 453.275 253.001 449.695 251.138L460.351 245.666L464.995 235.224Z"/>
	<path fill="#D6CC9C" d="M240.168 232.903C242.529 232.861 245.015 232.74 247.291 233.467C251.246 234.729 254.747 237.837 256.495 241.596Q256.797 242.25 257.032 242.932Q257.266 243.614 257.431 244.315Q257.596 245.017 257.689 245.732Q257.783 246.447 257.804 247.167Q257.825 247.888 257.773 248.607Q257.721 249.326 257.598 250.036Q257.474 250.746 257.28 251.44Q257.085 252.134 256.822 252.805C254.862 257.808 251.014 259.985 246.298 261.977C243.554 261.926 240.919 261.8 238.302 260.89Q237.618 260.645 236.96 260.334Q236.303 260.022 235.68 259.648Q235.057 259.273 234.474 258.839Q233.891 258.404 233.353 257.915Q232.816 257.425 232.329 256.885Q231.842 256.345 231.411 255.759Q230.98 255.173 230.609 254.548Q230.238 253.923 229.93 253.264C228.368 249.846 228.288 246.066 229.64 242.57C231.649 237.376 235.312 235.141 240.168 232.903Z"/>
	<path fill="#8F905F" d="M151.397 345.205C173.766 343.439 196.479 345.478 218.703 347.966L231.709 360.178C209.318 360.463 171.428 354.905 151.397 345.205Z"/>
	<path fill="#8F905F" d="M236.087 386.168C242.756 385.544 249.756 385.934 256.467 385.928C261.613 390.834 266.551 395.935 271.5 401.04C257.057 400.674 242.597 399.762 228.17 398.971Q223.205 398.693 218.275 398.048Q213.344 397.402 208.475 396.393Q203.606 395.384 198.825 394.017Q194.044 392.65 189.378 390.932C204.955 388.469 220.333 386.893 236.087 386.168Z"/>
	<path fill="#8F905F" d="M225.493 431.632C248.91 427.441 273.146 426.581 296.89 425.893C301.734 430.35 306.508 435.215 311.953 438.921C310.763 439.563 310.014 439.829 308.647 439.963C293.451 441.458 233.741 440.809 223.866 432.522L225.493 431.632Z"/>
	<path fill="#8F905F" d="M334.212 464.396C339.765 464.488 344.589 471.285 348.337 475.083C322.118 477.999 297.552 483.469 270.944 480.654C265.308 480.038 259.652 479.05 254.035 478.249C278.662 469.184 308.125 466.709 334.212 464.396Z"/>
	<path fill="#8F905F" d="M237.559 279.831C238.273 280.547 238.901 281.496 239.345 282.404C248.338 300.788 256.888 344.497 250.89 363.866C245.687 357.807 239.942 352.193 234.347 346.498C235.154 324.257 237.258 302.093 237.559 279.831Z"/>
	<path fill="#8F905F" d="M295.151 321.454C302.598 336.915 302.476 387.279 299.681 404.217C299.307 406.478 299.234 407.792 297.277 409.174L294.959 407.442L284.359 397.111C286.258 371.857 289.156 346.091 295.151 321.454Z"/>
	<path fill="#8F905F" d="M347.848 365.933C349.852 369.587 349.944 375.405 350.431 379.522C353.651 406.689 351.255 431.598 346.83 458.444L342.413 453.786L331.329 443.095C331.142 415.517 339.061 391.699 347.848 365.933Z"/>
	<path fill="#D6CC9C" d="M561.834 149.887C566.677 155.61 569.901 165.913 573.077 172.853L597.596 182.868C589.772 187.081 581.268 190.276 573.085 193.739L562.292 218.893C557.839 213.313 554.142 201.306 550.941 194.36C543.125 190.058 534.487 186.686 526.371 182.945L551.106 172.421C555.113 165.221 558.337 157.36 561.834 149.887Z"/>
	<path fill="#8F905F" d="M160.094 275.749C172.124 284.656 182.817 296.26 193.347 306.859L241.795 356.352Q294.586 410.637 349.564 462.705C356.534 469.387 373.199 488.432 381.007 492.144L375.73 486.478C380.036 463.71 387.062 438.134 396.419 416.944C398.899 443.216 398.429 468.341 396.119 494.608C392.473 494.638 386.248 495.512 383.148 493.625L377.255 495.098L371.923 494.747C360.392 490.311 325.359 445.208 311.953 438.921C301.703 425.234 287.06 413.958 274.755 402.034C264.155 391.762 254.122 380.855 243.64 370.444C218.173 345.148 176.365 306.443 160.094 275.749Z"/>
	<path fill="#D6CC9C" d="M348.699 258.964C357.12 258.385 366.482 261.423 373.15 266.529Q373.868 267.082 374.557 267.67Q375.246 268.258 375.905 268.879Q376.565 269.501 377.192 270.155Q377.819 270.808 378.414 271.492Q379.008 272.176 379.567 272.889Q380.127 273.602 380.65 274.341Q381.173 275.081 381.659 275.846Q382.145 276.611 382.592 277.399Q383.039 278.187 383.447 278.996Q383.854 279.805 384.221 280.634Q384.587 281.463 384.912 282.308Q385.237 283.154 385.52 284.015Q385.803 284.876 386.042 285.75Q386.281 286.624 386.477 287.509Q386.673 288.393 386.824 289.287Q386.975 290.18 387.082 291.08Q387.194 291.987 387.262 292.899Q387.329 293.81 387.351 294.724Q387.373 295.638 387.349 296.552Q387.326 297.466 387.257 298.377Q387.189 299.289 387.075 300.196Q386.961 301.103 386.802 302.003Q386.644 302.904 386.441 303.795Q386.238 304.686 385.991 305.566Q385.743 306.446 385.453 307.313Q385.163 308.18 384.83 309.031Q384.497 309.882 384.122 310.716Q383.747 311.55 383.332 312.364Q382.916 313.178 382.46 313.971Q382.005 314.763 381.511 315.532Q381.016 316.301 380.485 317.044Q379.953 317.788 379.385 318.504C372.297 327.388 363.079 330.875 352.129 332.15C343.275 332.401 334.066 329.764 327.071 324.256Q326.368 323.697 325.692 323.104Q325.017 322.512 324.372 321.886Q323.727 321.261 323.114 320.604Q322.5 319.948 321.92 319.262Q321.34 318.576 320.794 317.862Q320.248 317.149 319.738 316.409Q319.228 315.669 318.755 314.905Q318.282 314.141 317.847 313.355Q317.413 312.569 317.017 311.762Q316.622 310.955 316.267 310.129Q315.912 309.304 315.598 308.462Q315.284 307.62 315.011 306.764Q314.739 305.908 314.51 305.039Q314.28 304.17 314.094 303.291Q313.907 302.412 313.764 301.525Q313.621 300.638 313.522 299.745Q313.419 298.845 313.361 297.941Q313.303 297.038 313.29 296.132Q313.276 295.227 313.307 294.322Q313.338 293.416 313.414 292.514Q313.489 291.611 313.609 290.714Q313.729 289.816 313.893 288.925Q314.057 288.035 314.265 287.153Q314.472 286.272 314.723 285.402Q314.973 284.531 315.267 283.674Q315.56 282.818 315.895 281.976Q316.23 281.135 316.606 280.311Q316.982 279.487 317.398 278.683Q317.814 277.879 318.269 277.096Q318.724 276.313 319.218 275.553Q319.711 274.794 320.241 274.06Q320.771 273.325 321.336 272.618C328.446 263.792 337.754 260.203 348.699 258.964Z"/>
	<path fill="#283618" d="M910.764 49.07C938.714 67.2356 968.749 83.0451 997.626 99.7508L1144.6 185.135C1156.35 191.903 1243.76 241.041 1247.49 246.149C1257.96 234.502 1268.16 222.711 1279.84 212.23Q1281.69 210.563 1283.57 208.935Q1285.45 207.308 1287.37 205.721Q1289.28 204.133 1291.23 202.587Q1293.18 201.041 1295.17 199.537Q1297.15 198.032 1299.16 196.571Q1301.18 195.109 1303.22 193.69Q1305.26 192.271 1307.34 190.896Q1309.41 189.521 1311.51 188.19Q1313.62 186.859 1315.75 185.573Q1317.88 184.287 1320.03 183.047Q1322.19 181.807 1324.37 180.613Q1326.56 179.418 1328.76 178.271Q1330.97 177.123 1333.2 176.023Q1335.44 174.922 1337.69 173.87Q1339.94 172.817 1342.22 171.812Q1344.5 170.808 1346.79 169.851Q1349.09 168.895 1351.41 167.988Q1353.73 167.081 1356.06 166.223Q1358.4 165.366 1360.75 164.558Q1363.1 163.75 1365.47 162.992Q1367.84 162.234 1370.23 161.527Q1372.61 160.82 1375.01 160.164Q1377.41 159.507 1379.83 158.902Q1382.24 158.297 1384.67 157.743Q1387.09 157.189 1389.53 156.686Q1391.97 156.184 1394.41 155.734Q1396.86 155.283 1399.32 154.885Q1401.77 154.487 1404.24 154.141Q1406.7 153.794 1409.17 153.501Q1411.64 153.207 1414.12 152.966Q1416.59 152.725 1419.07 152.536Q1421.56 152.348 1424.04 152.212Q1427.06 152.047 1430.08 151.956Q1433.1 151.865 1436.13 151.849Q1439.15 151.832 1442.17 151.89Q1445.2 151.949 1448.22 152.081Q1451.24 152.214 1454.26 152.421Q1457.27 152.628 1460.28 152.91Q1463.29 153.191 1466.3 153.547Q1469.3 153.902 1472.29 154.332Q1475.29 154.761 1478.27 155.265Q1481.25 155.768 1484.22 156.344Q1487.19 156.921 1490.14 157.57Q1493.09 158.22 1496.03 158.942Q1498.96 159.664 1501.88 160.458Q1504.8 161.253 1507.7 162.119Q1510.59 162.985 1513.47 163.922Q1516.34 164.859 1519.2 165.867Q1522.05 166.874 1524.87 167.952Q1527.7 169.03 1530.49 170.177Q1533.29 171.324 1536.06 172.539Q1538.83 173.755 1541.57 175.039Q1544.31 176.322 1547.01 177.673Q1549.72 179.023 1552.39 180.44Q1555.06 181.857 1557.7 183.34Q1560.33 184.822 1562.93 186.369Q1565.53 187.916 1568.09 189.526Q1570.65 191.137 1573.17 192.81Q1575.68 194.483 1578.16 196.217Q1580.64 197.952 1583.07 199.747Q1585.51 201.542 1587.89 203.397Q1590.28 205.252 1592.62 207.165Q1594.97 209.078 1597.26 211.048Q1599.56 213.018 1601.8 215.044Q1604.77 217.759 1607.65 220.569Q1610.53 223.38 1613.32 226.283Q1616.11 229.187 1618.8 232.181Q1621.49 235.174 1624.08 238.254Q1626.67 241.335 1629.16 244.498Q1631.65 247.662 1634.03 250.906Q1636.41 254.15 1638.69 257.47Q1640.96 260.79 1643.13 264.183Q1645.29 267.576 1647.34 271.038Q1649.4 274.501 1651.33 278.029Q1653.27 281.556 1655.09 285.146Q1656.91 288.736 1658.62 292.383Q1660.32 296.03 1661.9 299.732Q1663.48 303.433 1664.94 307.184Q1666.4 310.936 1667.73 314.733Q1669.07 318.53 1670.28 322.369C1672.81 330.58 1675.65 339.964 1676.12 348.576L1678.09 349.034C1681.51 356.6 1682.96 365.271 1684.7 373.361Q1685.61 377.486 1686.38 381.642Q1687.15 385.797 1687.77 389.977Q1688.39 394.157 1688.86 398.356Q1689.33 402.555 1689.65 406.769Q1689.97 410.982 1690.14 415.204Q1690.31 419.426 1690.33 423.652Q1690.35 427.878 1690.23 432.101Q1690.1 436.325 1689.82 440.541Q1689.54 444.757 1689.11 448.961Q1688.68 453.165 1688.1 457.351Q1687.53 461.537 1686.8 465.699Q1686.07 469.862 1685.2 473.996Q1684.33 478.131 1683.31 482.231Q1682.29 486.332 1681.12 490.394Q1679.96 494.456 1678.65 498.473Q1677.34 502.491 1675.89 506.46C1662.14 542.983 1637.75 574.247 1608.26 599.48C1600.62 606.016 1591.56 613.473 1582.31 617.555C1582.15 617.625 1581.99 617.685 1581.83 617.749C1585.15 625.525 1591.42 632.834 1595.78 640.162C1604.09 654.156 1610.46 672.376 1614.36 688.076C1617.01 698.776 1625.92 739.915 1620.22 749.382L1643.37 749.349C1643.75 749.973 1644.08 750.61 1644.34 751.295C1645.89 755.318 1645.45 840.585 1644.77 850.148C1644.67 851.593 1644.23 852.865 1643.61 854.17L1570.23 854.141C1570.85 855.13 1571.36 856.2 1571.59 857.354C1572.95 864.121 1572.97 918.826 1570.55 922.776L1161.58 922.901L1078.23 922.886C1067.23 922.86 1044.93 921.128 1035.13 923.667C1023.65 926.643 996.55 944.133 984.291 951.055C962.273 963.488 940.013 975.515 918.104 988.134C911.77 983.581 904.26 979.952 897.449 976.124L858.078 953.937L753.483 894.193C742.96 888.172 715.27 870.422 705.754 867.94C695.155 865.175 678.584 867.092 667.245 867.153L599.867 867.419L279.956 867.501C273.892 856.007 269.334 843.351 264.185 831.391L230.983 753.757L120.526 494.972C173.886 493.86 227.478 494.283 280.847 494.808C310.841 495.104 342.061 496.999 371.923 494.747L377.255 495.098C390.35 495.807 403.679 495.102 416.801 494.969L488.792 494.285L488.758 295.649Q580.385 240.418 673.113 187.059L910.764 49.07Z"/>
	<path fill="#606C38" d="M1338.17 360.043C1339.49 368.487 1340.39 402.927 1338.19 410.762C1336.46 408.108 1333.69 406.672 1330.94 405.314C1332.8 392.735 1331.42 377.427 1331.08 364.675C1333.95 363.796 1335.93 361.942 1338.17 360.043Z"/>
	<path fill="#606C38" d="M1341 467.562C1344.86 479.474 1339.09 513.873 1342.76 520.972L1341.17 522.114C1338.2 521.587 1334.76 521.812 1331.73 521.733C1333.23 514.54 1333.19 482.742 1330.99 475.643C1334.58 474.019 1337.77 472.001 1339.72 468.471L1341 467.562Z"/>
	<path fill="#606C38" d="M509.769 749.968C523.008 760.513 539.715 767.261 553.875 776.599C567.344 783.99 584.109 792.341 596.132 801.698C608.644 808.192 620.789 815.586 632.876 822.836C650.038 832.324 667.025 842.299 683.884 852.318L659.665 852.429C645.695 841.722 628.327 833.807 613.273 824.451L611.578 823.73L578.926 803.697L578.265 803.707Q558.414 790.925 538.414 778.375L536.083 777.195C531.547 774.074 527.069 770.839 522.218 768.218L509.338 759.657C509.231 756.398 509.498 753.212 509.769 749.968Z"/>
	<path fill="#606C38" d="M1340.4 529.777L1343.48 530.475C1341.93 531.881 1342.07 533.208 1341.96 535.24C1341.11 550.873 1341.89 567.025 1341.9 582.711L1341.9 675.078L1341.89 725.126C1341.89 732.679 1340.9 741.972 1342.44 749.278L1341.56 749.593C1331.6 749.099 1321.47 749.546 1311.49 749.616C1305.67 749.313 1299.67 749.638 1293.84 749.658C1300.87 747.008 1327.33 732.712 1331.26 727.239C1334.04 716.153 1331.98 678.277 1331.95 665.021L1331.93 529.873C1334.64 529.879 1337.73 530.152 1340.4 529.777Z"/>
	<path fill="#606C38" d="M1330.25 757.077C1337.49 757.177 1355.04 756.03 1361.14 758.075C1351.08 758.653 1338.67 756.311 1329.08 758.928C1320.79 761.192 1217.36 816.133 1209.37 822.138L1207.03 822.372L1193.28 822.491C1184.43 822.077 1175.47 822.443 1166.61 822.538C1193.28 808.806 1219.39 792.68 1245.43 777.739C1255.73 771.832 1270.16 761.243 1281.39 758.591C1294.66 755.459 1309.71 759.761 1323.28 757.582C1323.46 757.553 1323.64 757.518 1323.82 757.486C1325.86 757.457 1328.3 757.682 1330.25 757.077Z"/>
	<path fill="#D6CC9C" d="M817.493 907.175C847.273 892.192 878.205 872.282 906.744 854.707C906.086 889.385 906.898 924.094 906.477 958.778C876.509 942.097 847.128 924.432 817.493 907.175Z"/>
	<path fill="#D6CC9C" d="M1235.07 357.231C1244.26 352.373 1320.81 308.546 1322.85 304.867C1325.25 310.355 1326.1 400.663 1324 405.934C1323.71 406.664 1323.39 407.28 1322.95 407.931C1318.14 403.127 1305.05 397.263 1298.48 393.507L1235.07 357.231Z"/>
	<path fill="#D6CC9C" d="M496.902 305.497Q542.106 331.536 587.628 357.01C577.137 362.942 502.218 407.459 496.976 408.268C496.336 374.048 496.886 339.728 496.902 305.497Z"/>
	<path fill="#D6CC9C" d="M913.245 855.088C942.907 873.038 973.328 890.387 1003.87 906.813C973.888 924.647 943.214 941.366 913.539 959.696C913.258 924.94 914.884 889.774 913.245 855.088Z"/>
	<path fill="#D6CC9C" d="M1233.25 664.959C1241.83 658.739 1252.38 653.762 1261.63 648.498Q1292.46 631.183 1322.96 613.308C1323.61 614.648 1324.07 615.948 1324.17 617.44C1324.87 628.187 1325.59 711.49 1323.61 717.063C1323.28 718.005 1323.37 717.786 1323 718.513C1319.42 714.664 1240.12 667.53 1233.25 664.959Z"/>
	<path fill="#D6CC9C" d="M815.81 113.597Q860.683 86.7141 906.497 61.4691L906.565 132.62C906.576 144.232 905.702 156.505 906.787 168.027C879.617 148.826 841.8 133.779 815.81 113.597Z"/>
	<path fill="#D6CC9C" d="M1229.73 245.241C1236.78 247.453 1317.55 295.676 1319.42 298.693C1316.39 302.87 1236.48 348.959 1229.76 351.16C1230.29 338.464 1229.84 325.556 1229.85 312.84Q1230.03 279.04 1229.73 245.241Z"/>
	<path fill="#D6CC9C" d="M913.609 60.8141C924.689 68.2194 936.642 74.5965 948.192 81.255Q977.378 97.9443 1006.31 115.069C989.708 124.21 973.492 134.054 957.01 143.417C942.533 151.641 927.635 159.406 913.424 168.065C914.297 155.476 913.696 142.446 913.687 129.814L913.609 60.8141Z"/>
	<path fill="#D6CC9C" d="M1229.84 670.949C1238 673.972 1318.29 720.374 1321.35 724.441C1318.73 727.492 1235.62 774.165 1229.78 776.093C1228.63 772.378 1228.65 679.227 1229.84 670.949Z"/>
	<path fill="#D6CC9C" d="M499.516 724.947Q532.805 705.357 566.443 686.373C574.574 681.743 586.225 673.306 594.905 670.969C595.808 692.889 595.235 715.008 595.237 736.95C595.239 750.908 596.176 765.574 595.099 779.458C563.121 761.545 531.78 742.315 499.516 724.947Z"/>
	<path fill="#D6CC9C" d="M593.711 242.93L594.208 314.322C594.252 326.512 594.909 339.107 594.1 351.251C589.336 351.581 508.904 304.163 498.904 298.009L593.711 242.93Z"/>
	<path fill="#BC6C25" d="M1343.48 530.475L1349.63 530.537C1362.82 531.331 1377.25 531.206 1390.21 533.664C1390.92 535.295 1391.28 536.745 1391.34 538.514C1392.06 559.503 1392.1 744.153 1390.56 748.084C1390.39 748.513 1390.18 748.901 1389.97 749.313C1374.15 749.306 1358.25 749.641 1342.44 749.278C1340.9 741.972 1341.89 732.679 1341.89 725.126L1341.9 675.078L1341.9 582.711C1341.89 567.025 1341.11 550.873 1341.96 535.24C1342.07 533.208 1341.93 531.881 1343.48 530.475Z"/>
	<path fill="#BC6C25" d="M1398.99 535.553C1408.02 533.81 1445.49 542.611 1455.99 545.477C1456.4 546.228 1456.8 547.056 1456.99 547.894C1458.91 556.721 1456.9 584.991 1456.79 595.774L1456.64 700.708C1456.69 709.228 1458.61 743.448 1455.77 748.323C1453.23 750.56 1405.86 749.268 1398.65 749.252C1398.74 749.07 1398.85 748.894 1398.93 748.706C1399.63 747.16 1400.04 745.573 1400.11 743.881C1401.03 722.831 1400.8 540.57 1398.99 535.553Z"/>
	<path fill="#606C38" d="M597.581 362.929C604.824 365.808 612.045 370.764 618.821 374.673L659.714 398.344L659.83 625.653L638.64 637.664L597.708 661.104L597.581 362.929Z"/>
	<path fill="#606C38" d="M1221.58 364.887C1222.38 365.082 1223 364.956 1223.37 365.772C1224.39 367.97 1224.86 629.518 1224.03 653.717C1223.95 655.875 1223.62 657.674 1222.84 659.693C1219.11 655.089 1189.51 639.766 1183.01 637.33C1180.89 633.653 1163.05 625.096 1158.53 623.234C1160.87 616.773 1160.17 426.56 1159.62 407.222C1159.56 405.305 1159.27 403.709 1158.64 401.899C1165.8 399.764 1214.39 370.341 1221.58 364.887Z"/>
	<path fill="#606C38" d="M661.914 632.753C666.633 633.568 883.835 763.938 906.448 777.543L906.434 843.968C893.893 836.837 881.508 829.401 869.062 822.102L674.23 708.182C650.172 694.433 626.464 679.832 602.029 666.78C622.269 656.177 642.271 644.44 661.914 632.753Z"/>
	<path fill="#606C38" d="M1156.04 631.55C1156.72 631.455 1156.88 631.41 1157.49 631.387C1160.55 631.276 1216.05 662.762 1219.02 665.689C1214.96 670.599 1107.06 731.498 1091.68 740.417L953.132 821.458Q933.57 833.178 913.603 844.194L913.468 777.188C931.983 765.179 951.403 754.348 970.341 743.001L1078.43 678.632C1089.62 672.054 1150.95 637.525 1156.04 631.55Z"/>
	<path fill="#606C38" d="M905.441 179.632C907.513 182.023 906.368 243.148 906.359 251.364C879.613 268.669 851.516 284.125 824.046 300.255Q744.636 347.026 664.525 392.583C651.834 385.032 638.942 377.785 626.147 370.408L600.05 355.972C700.967 295.856 803.374 237.777 905.441 179.632Z"/>
	<path fill="#606C38" d="M913.87 178.9C922.629 182.181 931.665 188.55 939.743 193.292Q960.669 205.584 981.726 217.647L1147.73 312.966C1158.34 319.011 1216.95 350.506 1221.31 355.989C1218.85 359.784 1202.11 368.142 1197.39 370.138C1195.77 373.487 1161.98 392.103 1156.76 394.245C1154.78 391.16 938.453 265.71 914.206 251.522Q913.782 215.211 913.87 178.9Z"/>
	<path fill="#FEFAE0" d="M1464.49 548.886C1464.64 548.843 1464.8 548.793 1464.95 548.758C1474.76 546.564 1510.04 566.143 1518.93 571.908Q1521.05 573.258 1523.14 574.661Q1525.22 576.063 1527.27 577.518Q1529.33 578.972 1531.34 580.477Q1533.35 581.982 1535.33 583.537Q1537.3 585.091 1539.24 586.695Q1541.18 588.298 1543.07 589.95Q1544.97 591.601 1546.82 593.299Q1548.68 594.998 1550.49 596.741Q1552.3 598.485 1554.07 600.274Q1555.83 602.062 1557.56 603.894Q1559.28 605.726 1560.95 607.601Q1562.63 609.475 1564.26 611.391Q1565.89 613.307 1567.47 615.262Q1569.05 617.218 1570.58 619.212Q1572.11 621.207 1573.59 623.239Q1575.07 625.271 1576.5 627.339Q1577.93 629.408 1579.31 631.511Q1580.68 633.615 1582.01 635.752Q1583.33 637.889 1584.6 640.058Q1585.88 642.228 1587.09 644.428Q1588.31 646.629 1589.47 648.859Q1590.63 651.089 1591.74 653.348Q1592.84 655.606 1593.89 657.891Q1594.94 660.177 1595.93 662.488Q1596.92 664.798 1597.86 667.133Q1598.79 669.468 1599.66 671.825Q1600.54 674.183 1601.35 676.561Q1602.17 678.94 1602.93 681.338Q1603.68 683.736 1604.38 686.152Q1605.07 688.568 1605.71 691.001Q1606.35 693.434 1606.92 695.882Q1607.5 698.329 1608.01 700.791C1609.94 709.9 1615.24 741.526 1610.48 748.89C1606.73 750.503 1480.47 749.362 1464.35 749.354C1464.69 748.794 1464.93 748.472 1465.15 747.879C1466.35 744.608 1466.33 573.323 1465.56 553.639C1465.49 551.913 1465.15 550.489 1464.49 548.886Z"/>
	<path fill="#283618" d="M1522.7 669.777C1528.1 668.96 1533.23 669.398 1537.93 672.407Q1538.33 672.657 1538.71 672.927Q1539.09 673.197 1539.46 673.486Q1539.83 673.775 1540.18 674.083Q1540.54 674.39 1540.87 674.715Q1541.21 675.04 1541.53 675.381Q1541.85 675.723 1542.16 676.08Q1542.46 676.437 1542.74 676.809Q1543.03 677.181 1543.29 677.567Q1543.56 677.953 1543.8 678.352Q1544.05 678.751 1544.27 679.162Q1544.5 679.573 1544.7 679.995Q1544.91 680.417 1545.09 680.848Q1545.27 681.28 1545.43 681.72Q1545.59 682.16 1545.73 682.608Q1545.87 683.055 1545.98 683.509Q1546.1 683.964 1546.19 684.423Q1546.37 685.28 1546.47 686.152Q1546.56 687.023 1546.57 687.9Q1546.58 688.776 1546.5 689.649Q1546.42 690.522 1546.25 691.383Q1546.08 692.244 1545.83 693.083Q1545.58 693.923 1545.24 694.733Q1544.91 695.542 1544.49 696.315Q1544.08 697.087 1543.59 697.814C1540.39 702.469 1535.86 704.625 1530.47 705.686C1527.66 706.073 1524.56 705.709 1521.87 704.883C1517.23 703.46 1513.43 700.976 1511.18 696.571C1508.96 692.228 1508.75 687.17 1510.23 682.564C1512.41 675.769 1516.57 672.916 1522.7 669.777Z"/>
	<path fill="#DDA15E" d="M1361.14 758.075L1633.99 758.2C1635.99 761.992 1636.87 815.693 1635.24 820.506C1635.06 821.06 1634.72 821.615 1634.41 822.109L1342.94 822.088L1255.15 822.142C1239.98 822.173 1224.51 822.83 1209.37 822.138C1217.36 816.133 1320.79 761.192 1329.08 758.928C1338.67 756.311 1351.08 758.653 1361.14 758.075Z"/>
	<path fill="#606C38" d="M1233.25 664.959L1231.57 663.51C1229.81 657.935 1231.05 622.58 1231.03 614.653L1231.03 447.472C1231.08 420.195 1229.75 392.518 1230.9 365.286C1231.09 360.615 1231.69 360.353 1235.07 357.231L1298.48 393.507C1305.05 397.263 1318.14 403.127 1322.95 407.931C1324.02 409.759 1324.28 411.231 1324.35 413.316C1324.9 429.053 1324.42 444.936 1324.4 460.692L1324.2 552.786C1324.18 563.396 1325.68 603.685 1323.68 611.559C1323.51 612.205 1323.27 612.718 1322.96 613.308Q1292.46 631.183 1261.63 648.498C1252.38 653.762 1241.83 658.739 1233.25 664.959Z"/>
	<path fill="#606C38" d="M1195.94 830.11C1243.15 831.25 1290.53 830.407 1337.75 830.395L1561.51 830.289C1561.89 830.921 1562.2 831.537 1562.37 832.261C1563.79 838.093 1563.36 890.069 1561.11 894.13L1076.59 894.282C1083.16 891.989 1089.59 887.778 1095.76 884.451Q1116.38 873.304 1136.87 861.908C1155.62 851.639 1177.37 842.126 1195.01 830.287L1195.94 830.11Z"/>
	<path fill="#606C38" d="M587.628 357.01C589.315 358.414 589.433 358.884 589.655 361.1C591.182 376.326 589.403 393.198 589.431 408.581L589.262 603.259C589.26 614.603 591.006 659.236 589.004 665.672L588.479 666.103C557.203 681.903 527.556 701.229 496.913 718.225L496.925 705.946C496.07 694.977 496.673 683.552 496.686 672.523L497.361 596.62L496.976 408.268C502.218 407.459 577.137 362.942 587.628 357.01Z"/>
	<path fill="#D6CC9C" d="M497.588 614.086C527.512 630.965 559.773 647.524 588.479 666.103C557.203 681.903 527.556 701.229 496.913 718.225L496.925 705.946C498.229 695.192 497.578 683.626 497.591 672.782L497.588 614.086Z"/>
	<path fill="#606C38" d="M594.905 670.969C618.488 685.483 643.089 698.779 667.065 712.692L821.33 802.504L876.438 834.812C885.259 840.002 894.775 844.86 903.166 850.683C904.956 851.925 905.991 852.614 906.744 854.707C878.205 872.282 847.273 892.192 817.493 907.175C807.793 902.428 798.475 896.401 789.078 891.062Q755.005 871.744 721.276 851.832C679.367 827.471 636.679 804.368 595.099 779.458C596.176 765.574 595.239 750.908 595.237 736.95C595.235 715.008 595.808 692.889 594.905 670.969Z"/>
	<path fill="#606C38" d="M593.711 242.93C599.055 238.554 606.267 235.071 612.233 231.564Q633.054 219.374 654.062 207.511L752.011 150.84C773.275 138.588 795.137 126.816 815.81 113.597C841.8 133.779 879.617 148.826 906.787 168.027C906.616 168.567 906.287 170.252 905.972 170.608C903.497 173.402 862.17 196.079 854.839 200.299L647.061 319.697C632.041 328.434 606.37 341.437 594.1 351.251C594.909 339.107 594.252 326.512 594.208 314.322L593.711 242.93Z"/>
	<path fill="#606C38" d="M1006.31 115.069C1024.45 125.121 1228.31 243.202 1229.73 245.241Q1230.03 279.04 1229.85 312.84C1229.84 325.556 1230.29 338.464 1229.76 351.16L1228.51 351.419C1192.1 328.417 916.782 174.414 913.424 168.065C927.635 159.406 942.533 151.641 957.01 143.417C973.492 134.054 989.708 124.21 1006.31 115.069Z"/>
	<path fill="#606C38" d="M913.245 855.088L914.044 853.34C921.234 847.334 931.124 842.752 939.279 838.021L988.041 809.638L1177.07 699.327C1183.65 695.46 1224.13 670.045 1228.47 669.701L1229.84 670.949C1228.65 679.227 1228.63 772.378 1229.78 776.093C1227.14 779.326 1022.26 896.926 1003.87 906.813C973.328 890.387 942.907 873.038 913.245 855.088Z"/>
	<path fill="#DDA15E" d="M133.942 503.249L489.295 503.52C490.723 524.793 489.589 546.789 489.481 568.134C489.426 579.051 490.698 591.788 488.974 602.413C489.025 610.979 489.33 619.625 489.059 628.182L488.974 636.944C488.998 645.867 489.231 654.841 488.971 663.758L488.878 672.81C488.869 681.121 489.105 689.508 488.813 697.809L488.729 706.619L488.772 727.138L496.649 732.575C501.05 735.014 505.917 737.28 509.935 740.298C510.059 743.566 510.161 746.711 509.769 749.968C509.498 753.212 509.231 756.398 509.338 759.657L522.218 768.218C527.069 770.839 531.547 774.074 536.083 777.195L538.414 778.375Q558.414 790.925 578.265 803.707L578.926 803.697L611.578 823.73L613.273 824.451C628.327 833.807 645.695 841.722 659.665 852.429L283.393 853.089C276.119 839.759 270.793 824.667 264.929 810.669L236.254 743.309L133.942 503.249Z"/>
	<path fill="#BC6C25" d="M488.729 706.619L488.772 727.138L496.649 732.575L474.264 732.456C469.944 724.078 466.242 715.285 462.308 706.715L488.729 706.619Z"/>
	<path fill="#BC6C25" d="M509.935 740.298C510.059 743.566 510.161 746.711 509.769 749.968C509.498 753.212 509.231 756.398 509.338 759.657L522.218 768.218C511.469 768.292 500.685 768.212 489.94 768.48C485.108 760.931 481.87 750.463 478.231 742.15C487.237 738.32 500.805 744.632 509.935 740.298Z"/>
	<path fill="#BC6C25" d="M488.878 672.81C488.869 681.121 489.105 689.508 488.813 697.809Q473.987 697.69 459.161 697.765C454.937 694.416 449.238 678.531 446.761 673.048C460.728 672.437 474.889 672.858 488.878 672.81Z"/>
	<path fill="#BC6C25" d="M431.219 637.233C450.452 636.86 469.734 637.044 488.974 636.944C488.998 645.867 489.231 654.841 488.971 663.758Q466.041 663.739 443.112 663.464C438.665 655.001 435.069 645.984 431.219 637.233Z"/>
	<path fill="#BC6C25" d="M536.083 777.195L538.414 778.375Q558.414 790.925 578.265 803.707C554.269 802.543 529.72 803.637 505.675 803.708C501.945 795.3 498.032 786.968 494.189 778.611C502.724 775.314 525.145 778.831 536.083 777.195Z"/>
	<path fill="#BC6C25" d="M416.084 602.641L488.974 602.413C489.025 610.979 489.33 619.625 489.059 628.182L427.402 628.225Q421.932 615.349 416.084 602.641Z"/>
	<path fill="#BC6C25" d="M489.295 503.52C490.723 524.793 489.589 546.789 489.481 568.134C489.426 579.051 490.698 591.788 488.974 602.413C488.772 599.655 488.972 595.66 487.528 593.314C465.414 591.191 434.973 592.866 411.999 592.898C407.771 584.332 403.983 575.492 400.009 566.801Q444.373 566.972 488.736 566.519L488.747 548.311C488.732 533.56 487.857 518.182 489.295 503.52Z"/>
	<path fill="#BC6C25" d="M252.598 672.809C270.11 672.299 287.816 672.925 305.348 673.004L394.552 672.919L405.963 697.83C358.486 698.692 310.918 697.728 263.425 697.938L252.598 672.809Z"/>
	<path fill="#BC6C25" d="M222.39 602.528L363.372 602.664L374.77 627.699L233.329 628.225C230.538 619.583 225.993 610.907 222.39 602.528Z"/>
	<path fill="#BC6C25" d="M409.738 707.063Q415.521 719.701 421.024 732.464L278.521 732.674C274.271 724.636 270.951 715.742 267.263 707.406L409.738 707.063Z"/>
	<path fill="#BC6C25" d="M237.007 637.221L378.854 637.328Q384.985 650.132 390.537 663.197L248.133 663.119C244.917 654.377 240.708 645.784 237.007 637.221Z"/>
	<path fill="#BC6C25" d="M206.803 566.696Q277.044 567.02 347.284 566.466C350.603 575.119 355.041 583.585 358.931 592.012C352.488 594.475 235.988 592.93 218.273 592.939C215.767 584.205 210.534 575.063 206.803 566.696Z"/>
	<path fill="#BC6C25" d="M441.067 777.793C445.177 786.148 449.07 794.922 452.392 803.623L308.714 803.669C305.215 795.262 301.799 786.808 297.858 778.596C312.287 776.555 329.198 778.094 343.826 778.066L441.067 777.793Z"/>
	<path fill="#BC6C25" d="M282.264 742.259L425.742 741.888Q430.986 755.248 436.824 768.359C389.149 768.817 341.413 768.146 293.73 768.155C289.478 759.829 286.04 750.829 282.264 742.259Z"/>
	<path fill="#283618" d="M358.244 548.897C363.237 548.931 368.295 548.801 373.27 549.229C413.986 640.631 455.603 731.851 494.699 823.951C490.955 824.022 482.77 824.883 479.755 822.987C469.843 801.619 460.812 779.806 451.238 758.28L358.244 548.897Z"/>
	<path fill="#DDA15E" d="M1247.49 246.149C1257.96 234.502 1268.16 222.711 1279.84 212.23Q1281.69 210.563 1283.57 208.935Q1285.45 207.308 1287.37 205.721Q1289.28 204.133 1291.23 202.587Q1293.18 201.041 1295.17 199.537Q1297.15 198.032 1299.16 196.571Q1301.18 195.109 1303.22 193.69Q1305.26 192.271 1307.34 190.896Q1309.41 189.521 1311.51 188.19Q1313.62 186.859 1315.75 185.573Q1317.88 184.287 1320.03 183.047Q1322.19 181.807 1324.37 180.613Q1326.56 179.418 1328.76 178.271Q1330.97 177.123 1333.2 176.023Q1335.44 174.922 1337.69 173.87Q1339.94 172.817 1342.22 171.812Q1344.5 170.808 1346.79 169.851Q1349.09 168.895 1351.41 167.988Q1353.73 167.081 1356.06 166.223Q1358.4 165.366 1360.75 164.558Q1363.1 163.75 1365.47 162.992Q1367.84 162.234 1370.23 161.527Q1372.61 160.82 1375.01 160.164Q1377.41 159.507 1379.83 158.902Q1382.24 158.297 1384.67 157.743Q1387.09 157.189 1389.53 156.686Q1391.97 156.184 1394.41 155.734Q1396.86 155.283 1399.32 154.885Q1401.77 154.487 1404.24 154.141Q1406.7 153.794 1409.17 153.501Q1411.64 153.207 1414.12 152.966Q1416.59 152.725 1419.07 152.536Q1421.56 152.348 1424.04 152.212Q1427.06 152.047 1430.08 151.956Q1433.1 151.865 1436.13 151.849Q1439.15 151.832 1442.17 151.89Q1445.2 151.949 1448.22 152.081Q1451.24 152.214 1454.26 152.421Q1457.27 152.628 1460.28 152.91Q1463.29 153.191 1466.3 153.547Q1469.3 153.902 1472.29 154.332Q1475.29 154.761 1478.27 155.265Q1481.25 155.768 1484.22 156.344Q1487.19 156.921 1490.14 157.57Q1493.09 158.22 1496.03 158.942Q1498.96 159.664 1501.88 160.458Q1504.8 161.253 1507.7 162.119Q1510.59 162.985 1513.47 163.922Q1516.34 164.859 1519.2 165.867Q1522.05 166.874 1524.87 167.952Q1527.7 169.03 1530.49 170.177Q1533.29 171.324 1536.06 172.539Q1538.83 173.755 1541.57 175.039Q1544.31 176.322 1547.01 177.673Q1549.72 179.023 1552.39 180.44Q1555.06 181.857 1557.7 183.34Q1560.33 184.822 1562.93 186.369Q1565.53 187.916 1568.09 189.526Q1570.65 191.137 1573.17 192.81Q1575.68 194.483 1578.16 196.217Q1580.64 197.952 1583.07 199.747Q1585.51 201.542 1587.89 203.397Q1590.28 205.252 1592.62 207.165Q1594.97 209.078 1597.26 211.048Q1599.56 213.018 1601.8 215.044Q1604.77 217.759 1607.65 220.569Q1610.53 223.38 1613.32 226.283Q1616.11 229.187 1618.8 232.181Q1621.49 235.174 1624.08 238.254Q1626.67 241.335 1629.16 244.498Q1631.65 247.662 1634.03 250.906Q1636.41 254.15 1638.69 257.47Q1640.96 260.79 1643.13 264.183Q1645.29 267.576 1647.34 271.038Q1649.4 274.501 1651.33 278.029Q1653.27 281.556 1655.09 285.146Q1656.91 288.736 1658.62 292.383Q1660.32 296.03 1661.9 299.732Q1663.48 303.433 1664.94 307.184Q1666.4 310.936 1667.73 314.733Q1669.07 318.53 1670.28 322.369C1672.81 330.58 1675.65 339.964 1676.12 348.576C1679.23 360.562 1679.98 373.461 1680.07 385.801C1680.4 430.325 1668.48 472.259 1645.89 510.544C1630.46 536.69 1590.27 582.557 1562.91 595.544C1559.92 594.797 1530.7 565.53 1516.55 560.188C1517.59 559.727 1518.61 559.232 1519.58 558.631C1528.55 553.061 1535.97 541.29 1538.24 531.099C1539.28 526.418 1539.82 520.526 1537.26 516.409C1539.09 512.348 1537.01 506.764 1535.51 502.834C1531.76 493.019 1522.29 484.771 1512.86 480.572C1502.66 476.03 1491.7 475.818 1481.34 479.987C1470.26 484.446 1462.52 492.873 1457.97 503.812C1453.79 513.866 1455.79 521.996 1455.5 532.337C1456.07 533.323 1456.4 534.309 1456.78 535.375C1452.91 537.191 1434.64 531.396 1428.79 530.595C1429.43 528.555 1429.43 527.485 1428.76 525.454C1429.04 524.664 1429.33 523.889 1429.51 523.071C1431.16 515.771 1427.4 505.717 1423.59 499.575C1417.42 489.613 1407.39 481.879 1395.92 479.198Q1394.89 478.959 1393.86 478.771Q1392.82 478.583 1391.77 478.447Q1390.73 478.311 1389.68 478.227Q1388.63 478.144 1387.57 478.112Q1386.52 478.081 1385.46 478.102Q1384.41 478.123 1383.36 478.196Q1382.31 478.269 1381.26 478.395Q1380.21 478.521 1379.17 478.698Q1378.13 478.876 1377.1 479.105Q1376.07 479.333 1375.06 479.613Q1374.04 479.893 1373.04 480.223Q1372.04 480.553 1371.06 480.933Q1370.07 481.312 1369.11 481.74Q1368.14 482.168 1367.2 482.643Q1366.26 483.119 1365.35 483.64Q1364.43 484.162 1363.54 484.728C1350.09 493.395 1345.97 506.205 1342.76 520.972C1339.09 513.873 1344.86 479.474 1341 467.562C1343.48 465.247 1345.3 462.764 1346.92 459.772C1352.15 450.072 1352.93 438.43 1349.64 427.975C1348.04 422.89 1344.07 414.996 1339.2 412.47L1338.19 410.762C1340.39 402.927 1339.49 368.487 1338.17 360.043L1338.45 359.227C1338.86 358.951 1338.83 358.985 1339.29 358.609C1347.14 352.218 1351.76 341.26 1352.76 331.346C1353.26 326.418 1353.33 319.671 1350.09 315.612C1350.15 315.347 1350.21 315.084 1350.25 314.816C1350.73 311.574 1347.15 305.776 1345.32 303.221C1339.18 294.638 1328.54 287.779 1318.12 286.136C1293.23 275.985 1271.92 257.231 1247.49 246.149Z"/>
	<path fill="#283618" d="M1453.47 249.774C1458.55 234.46 1461.82 221.587 1477.67 213.751Q1478.62 213.292 1479.58 212.879Q1480.55 212.467 1481.54 212.103Q1482.52 211.739 1483.53 211.424Q1484.53 211.109 1485.55 210.844Q1486.57 210.578 1487.6 210.363Q1488.63 210.148 1489.67 209.985Q1490.7 209.821 1491.75 209.708Q1492.8 209.595 1493.85 209.534Q1494.9 209.473 1495.95 209.464Q1497 209.455 1498.05 209.497Q1499.1 209.54 1500.15 209.634Q1501.2 209.728 1502.24 209.874Q1503.28 210.019 1504.31 210.216Q1505.34 210.413 1506.37 210.66Q1507.39 210.908 1508.4 211.205Q1509.41 211.502 1510.4 211.849Q1511.45 212.224 1512.48 212.651Q1513.51 213.077 1514.52 213.555Q1515.53 214.033 1516.51 214.56Q1517.5 215.087 1518.45 215.663Q1519.41 216.238 1520.33 216.861Q1521.26 217.483 1522.15 218.151Q1523.05 218.819 1523.91 219.53Q1524.77 220.242 1525.59 220.995Q1526.41 221.749 1527.2 222.542Q1527.98 223.336 1528.73 224.167Q1529.47 224.999 1530.17 225.866Q1530.87 226.734 1531.53 227.636Q1532.19 228.537 1532.8 229.47Q1533.41 230.403 1533.98 231.366Q1534.54 232.328 1535.06 233.318Q1535.57 234.307 1536.04 235.321C1538.8 241.303 1540.81 250.78 1538.28 257.103C1538.21 257.291 1538.12 257.476 1538.04 257.662C1538.09 257.829 1538.15 257.992 1538.19 258.162C1539.39 263.474 1536 271.567 1533.12 275.984C1526.69 285.859 1515.84 292.879 1504.31 295.054Q1503.26 295.25 1502.2 295.394Q1501.15 295.539 1500.08 295.63Q1499.02 295.722 1497.95 295.761Q1496.88 295.8 1495.82 295.787Q1494.75 295.773 1493.68 295.707Q1492.62 295.641 1491.56 295.522Q1490.5 295.403 1489.44 295.232Q1488.39 295.061 1487.34 294.838Q1486.3 294.615 1485.27 294.341Q1484.24 294.067 1483.22 293.742Q1482.2 293.417 1481.2 293.042Q1480.2 292.668 1479.22 292.244Q1478.24 291.821 1477.29 291.349Q1476.33 290.878 1475.39 290.36Q1474.46 289.842 1473.55 289.278Q1472.65 288.715 1471.77 288.107C1457.45 278.184 1456.24 265.374 1453.47 249.774Z"/>
	<path fill="#283618" d="M1342.65 255.904C1345.84 239.274 1345.9 227.851 1361.51 217.099Q1362.41 216.48 1363.34 215.906Q1364.28 215.332 1365.24 214.805Q1366.19 214.279 1367.18 213.8Q1368.16 213.322 1369.17 212.893Q1370.18 212.465 1371.2 212.086Q1372.23 211.708 1373.28 211.382Q1374.32 211.055 1375.38 210.781Q1376.44 210.507 1377.51 210.286Q1378.58 210.064 1379.66 209.897Q1380.74 209.729 1381.83 209.616Q1382.92 209.502 1384.01 209.443Q1385.11 209.384 1386.2 209.379Q1387.3 209.374 1388.39 209.424Q1389.48 209.473 1390.57 209.577Q1391.66 209.681 1392.74 209.839Q1393.83 209.997 1394.9 210.209C1406.37 212.536 1417.19 219.874 1423.54 229.716C1427.85 236.393 1431.27 247.2 1429.57 255.171C1429.44 255.785 1429.24 256.362 1429 256.941C1429.14 257.341 1429.2 257.475 1429.3 257.929C1430.47 263.24 1426.53 272.186 1423.64 276.568C1416.95 286.719 1406.85 293.75 1394.88 296.116Q1393.83 296.33 1392.78 296.492Q1391.72 296.654 1390.66 296.764Q1389.6 296.874 1388.53 296.931Q1387.46 296.988 1386.4 296.992Q1385.33 296.996 1384.26 296.947Q1383.19 296.899 1382.13 296.797Q1381.07 296.696 1380.01 296.542Q1378.95 296.389 1377.91 296.183Q1376.86 295.977 1375.82 295.719Q1374.79 295.462 1373.76 295.154Q1372.74 294.845 1371.73 294.487Q1370.73 294.128 1369.74 293.72Q1368.75 293.312 1367.79 292.856Q1366.82 292.4 1365.88 291.896Q1364.94 291.393 1364.02 290.843Q1363.11 290.294 1362.22 289.7C1350.26 281.547 1345.28 269.647 1342.65 255.904Z"/>
	<path fill="#283618" d="M1529.99 441.007C1534.61 426.552 1540.65 414.712 1554.76 407.434Q1555.7 406.944 1556.66 406.5Q1557.62 406.057 1558.6 405.662Q1559.58 405.267 1560.58 404.921Q1561.58 404.575 1562.59 404.279Q1563.6 403.983 1564.63 403.737Q1565.66 403.492 1566.7 403.298Q1567.74 403.104 1568.79 402.962Q1569.83 402.82 1570.89 402.73Q1571.94 402.64 1573 402.603Q1574.05 402.565 1575.11 402.58Q1576.17 402.595 1577.22 402.662Q1578.28 402.729 1579.33 402.849Q1580.38 402.969 1581.42 403.14Q1582.47 403.312 1583.5 403.535Q1584.53 403.758 1585.55 404.032Q1586.57 404.307 1587.58 404.631Q1588.66 404.982 1589.72 405.386Q1590.79 405.791 1591.83 406.248Q1592.87 406.705 1593.89 407.214Q1594.91 407.722 1595.9 408.281Q1596.89 408.84 1597.85 409.448Q1598.81 410.055 1599.74 410.71Q1600.67 411.365 1601.57 412.065Q1602.46 412.766 1603.32 413.51Q1604.18 414.255 1605 415.041Q1605.83 415.828 1606.61 416.654Q1607.39 417.481 1608.13 418.345Q1608.87 419.21 1609.56 420.11Q1610.26 421.011 1610.91 421.945Q1611.56 422.879 1612.16 423.844Q1612.76 424.809 1613.31 425.803Q1613.87 426.797 1614.37 427.818C1617.29 433.69 1620.08 443.612 1617.66 450.056C1617.44 450.647 1617.28 450.85 1616.94 451.429C1617.14 452.077 1617.36 452.703 1617.47 453.373C1618.36 458.69 1614.35 467.531 1611.17 471.758Q1610.48 472.669 1609.74 473.545Q1609.01 474.421 1608.23 475.261Q1607.46 476.1 1606.64 476.902Q1605.83 477.703 1604.97 478.464Q1604.12 479.225 1603.23 479.943Q1602.34 480.662 1601.42 481.337Q1600.5 482.012 1599.54 482.641Q1598.59 483.271 1597.6 483.854Q1596.62 484.436 1595.61 484.971Q1594.6 485.505 1593.56 485.99Q1592.53 486.475 1591.47 486.909Q1590.41 487.344 1589.34 487.726Q1588.26 488.109 1587.17 488.439Q1586.07 488.77 1584.96 489.046Q1583.85 489.323 1582.73 489.546Q1581.61 489.769 1580.48 489.938C1569.02 491.578 1556.64 488.56 1547.42 481.491C1533.28 470.64 1532.08 457.171 1529.99 441.007Z"/>
	<path fill="#283618" d="M1530.2 330.668L1530.36 330.052C1534.75 312.76 1535.02 301.634 1552.24 291.034Q1553.18 290.461 1554.15 289.935Q1555.12 289.409 1556.11 288.931Q1557.11 288.452 1558.12 288.024Q1559.14 287.595 1560.17 287.216Q1561.21 286.838 1562.26 286.51Q1563.31 286.183 1564.38 285.908Q1565.45 285.632 1566.53 285.409Q1567.61 285.187 1568.7 285.017Q1569.78 284.848 1570.88 284.732Q1571.98 284.616 1573.08 284.553Q1574.18 284.491 1575.28 284.483Q1576.38 284.475 1577.48 284.521Q1578.58 284.567 1579.68 284.667Q1580.78 284.767 1581.87 284.92Q1582.96 285.074 1584.05 285.281Q1585.13 285.487 1586.2 285.747Q1587.31 286.017 1588.4 286.342Q1589.49 286.667 1590.56 287.046Q1591.63 287.426 1592.68 287.859Q1593.74 288.293 1594.76 288.778Q1595.79 289.264 1596.8 289.801Q1597.8 290.338 1598.77 290.925Q1599.75 291.512 1600.69 292.148Q1601.64 292.783 1602.55 293.466Q1603.46 294.148 1604.33 294.875Q1605.21 295.602 1606.05 296.373Q1606.88 297.143 1607.68 297.955Q1608.48 298.767 1609.23 299.618Q1609.99 300.469 1610.7 301.357Q1611.41 302.245 1612.08 303.168Q1612.74 304.09 1613.36 305.046Q1613.98 306.001 1614.55 306.986C1617.93 312.784 1621.62 323.195 1619.4 329.911C1619.09 330.842 1618.66 331.597 1618.16 332.429C1618.22 332.586 1618.29 332.739 1618.34 332.898C1619.78 337.23 1616.81 344.877 1614.8 348.816C1609.56 359.124 1599.02 367.493 1588.1 371.023Q1587.06 371.35 1586 371.626Q1584.94 371.901 1583.88 372.123Q1582.81 372.345 1581.73 372.514Q1580.65 372.682 1579.56 372.797Q1578.48 372.912 1577.39 372.972Q1576.3 373.032 1575.2 373.038Q1574.11 373.044 1573.02 372.996Q1571.93 372.948 1570.84 372.845Q1569.75 372.742 1568.67 372.585Q1567.59 372.429 1566.52 372.218Q1565.45 372.008 1564.39 371.744Q1563.33 371.481 1562.28 371.165Q1561.24 370.849 1560.21 370.481Q1559.18 370.113 1558.17 369.695Q1557.17 369.276 1556.18 368.808Q1555.19 368.34 1554.23 367.823C1538.18 359.295 1535.1 346.481 1530.2 330.668Z"/>
	<path fill="#283618" d="M1432.83 297.333L1434.3 297.238C1459.13 295.744 1483.17 303.758 1501.78 320.42C1518.71 335.568 1529.01 358.148 1530.22 380.77Q1530.27 381.869 1530.3 382.968Q1530.32 384.068 1530.32 385.167Q1530.32 386.267 1530.29 387.367Q1530.26 388.466 1530.21 389.564Q1530.15 390.663 1530.07 391.76Q1529.99 392.856 1529.88 393.951Q1529.77 395.045 1529.64 396.137Q1529.5 397.229 1529.34 398.317Q1529.18 399.405 1529 400.488Q1528.81 401.572 1528.6 402.651Q1528.38 403.73 1528.15 404.804Q1527.91 405.877 1527.64 406.945Q1527.38 408.012 1527.09 409.073Q1526.8 410.134 1526.48 411.187Q1526.17 412.241 1525.82 413.286Q1525.48 414.332 1525.12 415.369Q1524.75 416.406 1524.36 417.434Q1523.97 418.461 1523.55 419.48Q1523.14 420.498 1522.7 421.505Q1522.26 422.513 1521.79 423.51Q1521.33 424.507 1520.84 425.492Q1520.35 426.477 1519.84 427.451Q1519.33 428.424 1518.79 429.385Q1518.26 430.345 1517.7 431.293Q1517.14 432.24 1516.56 433.174Q1515.98 434.107 1515.37 435.027Q1514.77 435.946 1514.14 436.85Q1513.52 437.755 1512.87 438.644Q1512.22 439.533 1511.56 440.406Q1510.89 441.28 1510.2 442.137Q1509.51 442.993 1508.8 443.833Q1508.09 444.673 1507.36 445.496Q1506.64 446.291 1505.9 447.067Q1505.16 447.844 1504.41 448.602Q1503.65 449.36 1502.88 450.1Q1502.1 450.839 1501.31 451.559Q1500.51 452.28 1499.7 452.98Q1498.89 453.68 1498.06 454.361Q1497.24 455.041 1496.39 455.701Q1495.55 456.361 1494.69 456.999Q1493.83 457.638 1492.95 458.256Q1492.08 458.873 1491.18 459.469Q1490.29 460.065 1489.39 460.638Q1488.48 461.212 1487.57 461.763Q1486.65 462.314 1485.71 462.843Q1484.78 463.371 1483.84 463.877Q1482.89 464.382 1481.94 464.864Q1480.98 465.346 1480.01 465.805Q1479.04 466.263 1478.06 466.698Q1477.08 467.132 1476.09 467.542Q1475.1 467.953 1474.11 468.338Q1473.11 468.724 1472.1 469.085Q1471.09 469.446 1470.07 469.783Q1469.05 470.119 1468.03 470.43Q1467 470.741 1465.97 471.027Q1464.94 471.313 1463.9 471.573Q1462.86 471.833 1461.81 472.068Q1460.77 472.303 1459.72 472.512Q1458.67 472.721 1457.61 472.904Q1456.56 473.087 1455.5 473.244Q1454.44 473.401 1453.37 473.532Q1452.31 473.663 1451.24 473.768Q1450.18 473.873 1449.11 473.951Q1448.04 474.03 1446.97 474.082C1446.82 474.114 1446.66 474.156 1446.5 474.179C1427.82 476.885 1406.23 469.036 1391.22 458.313C1371.87 444.48 1357.85 423.225 1353.94 399.67Q1353.77 398.625 1353.63 397.575Q1353.48 396.526 1353.36 395.474Q1353.25 394.421 1353.15 393.366Q1353.06 392.311 1352.99 391.254Q1352.93 390.197 1352.89 389.139Q1352.85 388.08 1352.83 387.021Q1352.82 385.962 1352.83 384.903Q1352.84 383.844 1352.87 382.786Q1352.91 381.727 1352.97 380.67Q1353.04 379.613 1353.13 378.558Q1353.21 377.502 1353.33 376.449Q1353.44 375.396 1353.58 374.347Q1353.72 373.297 1353.89 372.251Q1354.05 371.205 1354.25 370.163Q1354.44 369.121 1354.65 368.085Q1354.87 367.048 1355.11 366.017Q1355.36 364.986 1355.62 363.961Q1355.89 362.936 1356.18 361.918Q1356.47 360.9 1356.79 359.89Q1357.11 358.879 1357.45 357.877Q1357.79 356.875 1358.16 355.881Q1358.52 354.887 1358.91 353.902Q1359.3 352.918 1359.72 351.943Q1360.13 350.969 1360.57 350.004Q1361.01 349.04 1361.47 348.087Q1361.93 347.134 1362.42 346.192Q1362.9 345.25 1363.41 344.321Q1363.92 343.392 1364.45 342.475Q1364.98 341.558 1365.53 340.654Q1366.08 339.751 1366.66 338.861Q1367.23 337.971 1367.83 337.096Q1368.42 336.221 1369.04 335.36C1384.5 313.966 1407.07 301.42 1432.83 297.333Z"/>
	<path fill="#DDA15E" d="M910.903 292.871C964.065 327.111 1017.1 361.685 1070.69 395.248C1076.25 398.731 1126.69 429.35 1128.16 431.17C1128.2 431.224 1128.63 432.553 1128.64 432.591C1128.66 432.729 1128.6 432.868 1128.58 433.006L1128.54 433.67C1128.82 434.466 1128.89 435.389 1129.02 436.227C1108.03 493.768 1085.58 550.708 1063.86 607.967C1059.81 618.655 1043.28 668.647 1038.45 674.213L873.933 674.096C842.707 674.127 811.257 675.165 780.063 674.291C777.709 672.677 776.546 669.291 775.45 666.655C761.745 633.718 750.487 599.153 738.121 565.642C721.919 521.735 704.704 478.118 689.847 433.732L690.592 431.745C729.54 404.885 771.224 380.599 811.377 355.42C844.45 334.681 876.98 312.145 910.903 292.871Z"/>
	<path fill="#283618" d="M828.879 497.6C828.87 497.653 828.869 497.709 828.852 497.76C828.138 499.895 827.864 501.476 825.909 502.71C817.772 499.001 809.763 492.354 802.232 487.369L749.008 452.072L749.691 451.498C754.026 454.088 758.135 455.408 763.088 456.3C785.887 468.942 807.373 482.894 828.879 497.6Z"/>
	<path fill="#283618" d="M1050.98 456.748C1055.17 455.954 1059.08 455.882 1063.34 455.965C1059.23 460.847 996.865 502.481 988.852 506.987C987.758 504.644 988.183 502.899 988.627 500.479C995.821 495.146 1049.92 459.05 1050.98 456.748Z"/>
	<path fill="#606C38" d="M734.77 430.226C775.115 430.12 815.634 429.311 855.962 430.334C855.759 431.572 855.878 432.994 854.84 433.785C851.625 436.235 707.717 433.076 689.847 433.732L690.592 431.745C690.804 431.811 691.013 431.884 691.227 431.945C699.203 434.222 728.145 433.976 734.77 430.226Z"/>
	<path fill="#283618" d="M879.701 566.636C881.868 567.142 883.306 567.624 885.041 569.042C878.22 576.153 867.433 582.096 859.269 587.782C839.72 601.397 819.767 614.667 800.953 629.29C803.086 625.124 805.134 620.883 807.437 616.81C831.76 600.475 854.834 582.172 879.701 566.636Z"/>
	<path fill="#606C38" d="M943.065 429.954C950.318 430.895 958.447 430.473 965.774 430.192C992.418 429.155 1019.22 429.727 1045.88 429.957C1057.3 430.055 1069.03 430.705 1080.42 430.083C1093.89 436.278 1113.87 432.784 1128.58 433.006L1128.54 433.67C1117.4 434.372 1105.93 433.911 1094.77 433.909L1032.48 433.846C1005.82 433.838 972.616 435.625 946.632 433.412C945.357 432.399 944.053 431.179 942.425 430.816C942.127 430.75 941.824 430.702 941.524 430.645L943.065 429.954Z"/>
	<path fill="#283618" d="M882.087 430.649C880.542 431.021 878.949 431.284 877.39 431.592L877.78 429.138L877.067 428.616C879.299 426.685 907.827 353.049 908.648 347.688C911.141 331.41 907.876 314.622 910.604 298.051C911.248 314.412 909.005 332.04 911.452 348.144C913.118 359.103 919.235 370.614 923.476 380.917C930.16 397.155 937.104 413.442 943.065 429.954L941.524 430.645L937.337 430.082C928.088 407.44 920.475 383.355 909.925 361.364Q896.505 396.207 882.087 430.649Z"/>
	<path fill="#283618" d="M975.244 543.306C976.503 541.349 976.73 540.603 978.889 539.609C979.065 540.466 978.954 540.47 979.573 541.074C983.892 545.292 1029.38 650.199 1035.28 664.827L1035.02 665.627C1029.34 655.911 1026.03 644.928 1020.57 635.087C1012.09 619.815 985.232 605.003 970.749 594.724C968.28 592.971 936.291 570.558 936.245 570.312C936.144 569.778 936.434 569.242 936.529 568.706C937.777 567.814 938.819 566.839 940.346 566.539C963.446 581.113 985.363 597.787 1007.79 613.385C996.243 590.539 985.076 566.93 975.244 543.306Z"/>
	<path fill="#FEFAE0" d="M940.346 566.539C942.259 564.244 971.231 544.991 975.244 543.306C985.076 566.93 996.243 590.539 1007.79 613.385C985.363 597.787 963.446 581.113 940.346 566.539Z"/>
	<path fill="#FEFAE0" d="M763.088 456.3C772.055 454.655 782.552 455.602 791.683 455.66Q818.441 455.979 845.201 455.922C841.417 465.449 833.363 490.956 828.879 497.6C807.373 482.894 785.887 468.942 763.088 456.3Z"/>
	<path fill="#FEFAE0" d="M973.364 456.552C981.463 456.608 1047.19 454.992 1050.98 456.748C1049.92 459.05 995.821 495.146 988.627 500.479C985.855 485.405 979.168 470.666 973.364 456.552Z"/>
	<path fill="#FEFAE0" d="M882.087 430.649Q896.505 396.207 909.925 361.364C920.475 383.355 928.088 407.44 937.337 430.082C917.995 426.508 901.384 426.862 882.087 430.649Z"/>
	<path fill="#FEFAE0" d="M837.854 538.258C852.148 547.105 865.363 557.768 879.701 566.636C854.834 582.172 831.76 600.475 807.437 616.81C811.562 605.51 816.667 594.458 821.083 583.252C826.948 568.369 832.23 553.237 837.854 538.258Z"/>
	<path fill="#FEFAE0" d="M722.434 461.695C730.977 465.454 746.166 477.864 754.498 483.651C775.102 497.963 796.095 511.68 816.624 526.106L793.227 587.784C790.029 596.641 786.319 605.33 782.758 614.047Q752.136 538.054 722.434 461.695Z"/>
	<path fill="#FEFAE0" d="M1092.79 460.869C1093.9 460.827 1094.7 460.955 1095.78 461.129C1095.84 461.757 1095.87 462.398 1095.79 463.027C1095.16 467.939 1079.56 505.659 1076.84 512.765C1064.36 545.4 1053.27 579.104 1039.55 611.195C1038.9 612.723 1038.08 613.672 1036.79 614.728C1036.85 614.327 1036.98 613.677 1036.96 613.236C1036.71 609.185 1028.45 592.328 1025.88 589.581C1022.99 577.35 1003.2 540.45 996.791 527.479Q1033.85 503.236 1069.96 477.597C1076.86 472.757 1087.42 467.217 1092.79 460.869Z"/>
	<path fill="#FEFAE0" d="M925.62 328.381L1023.34 391.867C1041.96 403.795 1062.43 415.052 1080.09 428.263C1080.14 428.529 1080.19 428.796 1080.24 429.061C1080.27 429.173 1080.32 429.28 1080.34 429.393C1080.38 429.622 1080.39 429.853 1080.42 430.083C1069.03 430.705 1057.3 430.055 1045.88 429.957C1019.22 429.727 992.418 429.155 965.774 430.192L925.62 328.381Z"/>
	<path fill="#FEFAE0" d="M734.77 430.226C753.129 416.6 773.423 405.291 792.727 393.031L896.179 327.16C887.596 350.858 877.878 374.078 868.444 397.443C864.365 407.546 857.868 419.665 855.962 430.334C815.634 429.311 775.115 430.12 734.77 430.226Z"/>
	<path fill="#FEFAE0" d="M909.339 578.517C917.22 581.693 930.097 592.781 937.448 598.073L1011.33 651.397C977.546 649.768 943.385 650.675 909.556 650.719Q857.874 650.423 806.213 651.914C840.488 627.498 876.131 604.339 909.339 578.517Z"/>
	<path fill="#606C38" d="M899.059 433.975C917.13 432.484 935.149 434.215 950.659 444.5C965.013 454.018 975.803 468.531 979.208 485.58Q979.499 487.113 979.716 488.657Q979.932 490.202 980.073 491.756Q980.214 493.31 980.28 494.868Q980.346 496.427 980.336 497.987Q980.326 499.547 980.24 501.104Q980.155 502.662 979.994 504.213Q979.833 505.765 979.596 507.307Q979.36 508.849 979.05 510.378Q978.739 511.906 978.355 513.418Q977.97 514.93 977.513 516.422Q977.056 517.913 976.527 519.381Q975.998 520.848 975.398 522.288Q974.798 523.728 974.13 525.137Q973.461 526.547 972.725 527.922Q971.988 529.297 971.186 530.635Q970.384 531.973 969.518 533.27C958.244 550.163 940.501 560.347 920.872 564.295C902.602 566.264 885.427 563.587 869.915 553.201C855.347 543.447 843.821 526.321 840.597 509.076Q840.323 507.566 840.123 506.045Q839.923 504.523 839.799 502.994Q839.674 501.464 839.625 499.93Q839.577 498.397 839.603 496.862Q839.63 495.328 839.733 493.797Q839.835 492.266 840.013 490.741Q840.191 489.217 840.444 487.704Q840.696 486.19 841.024 484.691Q841.351 483.191 841.751 481.71Q842.152 480.229 842.625 478.769Q843.099 477.309 843.643 475.875Q844.188 474.44 844.802 473.034Q845.417 471.628 846.1 470.254Q846.784 468.88 847.534 467.542Q848.284 466.203 849.099 464.903Q849.915 463.603 850.793 462.345C862.034 446.277 880.174 437.331 899.059 433.975Z"/>
	<path fill="#FEFAE0" d="M906.21 442.143C920.402 440.654 936.669 444.741 948.313 452.857C960.056 461.042 967.557 473.321 969.999 487.384Q970.231 488.711 970.396 490.049Q970.56 491.386 970.657 492.73Q970.754 494.075 970.783 495.422Q970.812 496.769 970.773 498.116Q970.734 499.463 970.626 500.806Q970.519 502.15 970.345 503.486Q970.17 504.822 969.928 506.148Q969.686 507.473 969.377 508.785Q969.068 510.097 968.694 511.391Q968.319 512.686 967.88 513.96Q967.44 515.234 966.937 516.484Q966.434 517.734 965.868 518.957Q965.303 520.18 964.676 521.373Q964.049 522.566 963.363 523.725Q962.677 524.885 961.933 526.009Q961.19 527.132 960.39 528.217C949.377 543.413 933.701 550.697 915.703 553.493C899.313 554.388 883.441 550.912 870.423 540.379C859.405 531.464 851.751 518.229 850.396 504.037Q850.273 502.655 850.219 501.268Q850.164 499.882 850.178 498.494Q850.192 497.107 850.275 495.721Q850.357 494.336 850.508 492.957Q850.659 491.577 850.878 490.207Q851.096 488.837 851.382 487.479Q851.668 486.121 852.021 484.779Q852.374 483.437 852.792 482.114Q853.211 480.791 853.694 479.49Q854.178 478.19 854.724 476.914Q855.271 475.639 855.881 474.392Q856.49 473.146 857.16 471.931Q857.83 470.716 858.559 469.535Q859.288 468.355 860.075 467.212Q860.861 466.069 861.703 464.966Q862.546 463.863 863.441 462.803C874.523 449.565 889.393 443.627 906.21 442.143Z"/>
	<path fill="#283618" d="M906.333 457.782C908.502 457.598 910.747 457.375 912.904 457.771Q913.541 457.894 914.162 458.082Q914.783 458.269 915.382 458.52Q915.981 458.77 916.55 459.081Q917.12 459.392 917.655 459.759Q918.19 460.127 918.684 460.547Q919.178 460.968 919.626 461.437Q920.075 461.906 920.473 462.419Q920.871 462.931 921.214 463.482C922.753 466.008 922.975 469.093 922.152 471.906C920.886 476.233 917.526 478.367 913.914 480.551C912.515 480.759 911.241 480.768 909.827 480.646C906.453 480.354 903.072 478.7 901.034 475.943C899.109 473.339 898.478 470.096 899.119 466.943C900.031 462.459 902.673 460.203 906.333 457.782Z"/>
	<path fill="#283618" d="M907.605 516.433C908.885 516.4 910.136 516.447 911.4 516.677C915.219 517.375 918.727 519.305 920.752 522.722C922.291 525.321 922.538 528.497 921.708 531.375C920.432 535.799 917.349 537.989 913.57 540.178C911.601 540.253 909.774 540.187 907.862 539.706C904.407 538.836 901.328 536.7 899.631 533.506C898.219 530.85 898.021 527.775 898.9 524.915C900.315 520.311 903.597 518.45 907.605 516.433Z"/>
	<path fill="#283618" d="M941.05 487.269C943.197 487.076 945.841 486.614 947.95 487.083C951.051 487.772 953.955 489.815 955.691 492.468C957.512 495.25 957.891 498.64 957.004 501.815C955.709 506.447 952.714 508.453 948.835 510.753C947.302 510.83 945.809 510.771 944.286 510.566C940.763 510.094 937.434 508.37 935.361 505.401C933.598 502.877 933.01 499.897 933.603 496.879C934.5 492.321 937.433 489.818 941.05 487.269Z"/>
	<path fill="#283618" d="M873.505 487.063C875.722 486.971 877.922 486.879 880.081 487.482C883.362 488.397 886.437 490.666 888.05 493.71C889.486 496.42 889.716 499.251 888.787 502.172C887.396 506.545 884.046 508.663 880.159 510.6C878.549 510.782 876.807 510.997 875.193 510.74C871.758 510.194 868.922 508.634 866.908 505.741C865.012 503.016 864.555 499.598 865.338 496.412C866.509 491.647 869.514 489.445 873.505 487.063Z"/>
</svg>
