<?xml version="1.0" encoding="utf-8" ?>
<svg xmlns="http://www.w3.org/2000/svg" xmlns:xlink="http://www.w3.org/1999/xlink" width="1820" height="1024">
	<path fill="#F2DEBE" d="M0 0L1818.44 0C1820.58 3.35778 1819.99 8.22266 1820 12.0828L1820 742.336L1820.01 943.951L1820 997.417C1819.99 1004.76 1820.98 1013.76 1819.75 1020.9C1819.56 1022.02 1819.05 1023.05 1818.44 1024L0 1024L0 0Z"/>
	<path fill="#FCB74F" d="M807.3 907.928C814.925 907.418 857.653 905.958 861.881 908.837L862.48 910.002C859.448 912.679 813.859 911.143 807.683 911.171L807.3 907.928Z"/>
	<path fill="#006A8D" d="M1404.11 591.029C1409.25 588.566 1414.14 585.049 1419.19 582.323C1432.14 575.333 1444.91 570.882 1459.15 567.265L1458.36 568.817C1452.82 570.41 1444.66 571.712 1439.86 574.684C1443.28 574.945 1449.51 571.031 1452.11 572.57C1445.41 576.656 1436.58 577.576 1429.44 581.019C1420.68 585.24 1411.94 593.4 1402.89 596.328L1405.17 593.412L1404.11 591.029Z"/>
	<path fill="#FCB74F" d="M467.429 911.405C458.368 912.749 409.335 913.179 403.646 909.537C410.506 907.316 459.258 906.955 466.791 908.815L467.429 911.405Z"/>
	<path fill="#FCB74F" d="M109.033 907.091C119.873 906.958 176.265 905.936 182.243 908.475L182.114 909.98L180.256 910.815C169.398 910.884 114.803 912.08 108.055 909.897L107.597 908.533L109.033 907.091Z"/>
	<path fill="#EF7D6F" d="M1631.41 515.618C1631.48 515.42 1631.55 515.223 1631.61 515.022C1633.52 508.672 1629.7 494.785 1635.77 491.082C1637.78 489.859 1640.49 489.362 1642.76 490.098C1644.82 490.764 1646.44 492.237 1647.18 494.285C1648.78 498.737 1648.23 511.74 1646.45 516.085C1645.79 516.686 1645.46 516.748 1644.56 516.913C1640.62 517.636 1634.84 517.967 1631.41 515.618Z"/>
	<path fill="#FCB74F" d="M1264.77 139.524C1264.85 139.378 1264.92 139.229 1264.99 139.084C1269.2 131.145 1264.41 118.825 1266.97 110.122L1268.72 109.267L1269.57 110.436C1269.98 117.428 1271.87 133.722 1268.24 139.59C1274.52 139.557 1294.28 137.589 1299.24 141.137C1292.05 145.371 1280.03 140.832 1272.25 142.582C1269.91 143.108 1269.93 143.664 1268.72 145.633C1270.89 152.111 1270.66 164.055 1268.09 170.381L1267.12 170.81L1267.11 170.822L1266.68 168.992L1268.37 169.642L1266.71 169.362C1266.36 162.414 1267.66 152.962 1265.39 146.521L1266.08 143.294C1261.05 140.933 1249.47 142.692 1243.61 142.704C1240.48 142.71 1236.71 142.994 1234.42 140.707L1236.33 140.1L1235.92 139.357C1238.21 140.673 1260.34 139.52 1264.77 139.524Z"/>
	<path fill="#DF5753" d="M1631.34 532.378C1635.23 532.357 1643.24 531.301 1646.41 533.34C1648.98 539.381 1648.53 550.967 1646.15 557.074C1645.28 559.32 1644.08 561.489 1641.75 562.455C1640.54 562.961 1639.25 562.925 1638.01 562.406C1634.91 561.104 1632.6 557.615 1631.15 554.76C1631.61 554.067 1632 553.338 1632.25 552.542C1633.56 548.22 1633.64 536.368 1631.34 532.378Z"/>
	<path fill="#C4C47A" d="M1695.51 407.087C1699.86 404.567 1704.24 402.585 1709.36 404.167C1712.59 405.168 1715.11 407.706 1716.55 410.723Q1716.88 411.428 1717.14 412.162Q1717.39 412.895 1717.58 413.65Q1717.77 414.405 1717.88 415.174Q1718 415.944 1718.03 416.721Q1718.07 417.497 1718.04 418.274Q1718 419.051 1717.89 419.821Q1717.78 420.591 1717.6 421.347Q1717.42 422.102 1717.16 422.837C1716.05 425.946 1713.86 428.698 1710.83 430.096C1706.73 431.985 1701.95 431.305 1697.91 429.619Q1696.69 429.112 1695.55 428.448C1695.37 428.194 1695.19 427.936 1695.01 427.684C1693.11 425.088 1691.43 422.795 1690.96 419.507C1690.26 414.465 1692.59 410.901 1695.51 407.087Z"/>
	<path fill="#F2DEBE" d="M1697.14 408.916C1701.54 407.523 1705.46 406.069 1709.85 408.489Q1710.32 408.745 1710.75 409.05Q1711.19 409.354 1711.59 409.704Q1711.99 410.053 1712.36 410.444Q1712.72 410.834 1713.04 411.261Q1713.36 411.687 1713.63 412.146Q1713.9 412.604 1714.12 413.089Q1714.34 413.573 1714.51 414.079Q1714.68 414.584 1714.79 415.105Q1714.9 415.64 1714.96 416.184Q1715.01 416.728 1715.01 417.274Q1715.01 417.821 1714.95 418.365Q1714.89 418.908 1714.78 419.442Q1714.66 419.977 1714.49 420.496Q1714.32 421.016 1714.1 421.515Q1713.88 422.015 1713.6 422.488Q1713.33 422.961 1713.01 423.404Q1712.69 423.846 1712.33 424.253Q1711.97 424.659 1711.57 425.026Q1711.17 425.392 1710.73 425.714Q1710.29 426.036 1709.83 426.31Q1709.36 426.584 1708.86 426.807Q1708.37 427.03 1707.85 427.199Q1707.33 427.369 1706.8 427.483Q1706.27 427.597 1705.73 427.655C1703.2 427.936 1700.55 427.2 1698.1 426.627C1697.94 425.741 1697.37 424.834 1696.94 424.029C1696.81 423.775 1696.67 423.527 1696.53 423.273C1693.72 417.934 1695.48 414.239 1697.14 408.916Z"/>
	<path fill="#FCB74F" d="M997.894 100.568C1000.62 100.549 1003.14 100.607 1005.75 101.529Q1006.47 101.78 1007.17 102.102Q1007.87 102.424 1008.53 102.813Q1009.19 103.202 1009.81 103.655Q1010.43 104.107 1011 104.619Q1011.57 105.131 1012.09 105.696Q1012.61 106.262 1013.07 106.876Q1013.53 107.49 1013.92 108.147Q1014.32 108.803 1014.65 109.496Q1014.96 110.157 1015.19 110.846Q1015.43 111.534 1015.6 112.243Q1015.77 112.952 1015.87 113.674Q1015.96 114.396 1015.99 115.124Q1016.01 115.852 1015.97 116.579Q1015.92 117.306 1015.8 118.025Q1015.68 118.744 1015.49 119.447Q1015.3 120.15 1015.04 120.831C1013.1 125.998 1009.35 128.258 1004.51 130.374C1001.96 130.398 999.43 130.428 996.967 129.696C992.987 128.515 989.577 125.852 987.684 122.125C985.882 118.576 985.803 114.522 987.118 110.801C989.047 105.338 992.884 102.954 997.894 100.568Z"/>
	<path fill="#F2DEBE" d="M997.982 104.004C999.406 103.983 1000.76 104.087 1002.16 104.318C1005.53 104.868 1008.57 106.999 1010.41 109.858C1012.01 112.333 1012.45 115.337 1011.78 118.191C1010.71 122.725 1007.61 124.604 1003.86 126.719C1002.19 126.895 1000.56 126.933 998.904 126.6C996.017 126.02 993.352 124.123 991.815 121.618C990.277 119.113 990.014 116.056 990.61 113.222C991.607 108.49 994.111 106.484 997.982 104.004Z"/>
	<path fill="#FCB74F" d="M853.204 108.942C856.959 112.535 859.376 119.756 862.455 124.25C867.172 126.561 871.581 129.119 876.034 131.89C871.405 135.483 865.819 138.299 860.757 141.269C858.685 146.029 856.657 150.622 853.902 155.041C850.137 151.654 849.182 145.285 845.83 141.319C842.612 137.511 835.328 134.333 831.132 131.35Q838.501 127.537 845.726 123.457C848.443 118.805 850.691 113.72 853.204 108.942Z"/>
	<path fill="#FCB74F" d="M121.683 559.535C124.238 560.42 129.145 569.119 131.483 571.616C135.506 575.914 140.055 579.38 144.798 582.836C134.049 589.171 128.725 595.01 122.503 605.751C120.345 603.486 118.736 600.229 116.872 597.668C111.726 590.595 105.478 586.369 98.1217 581.962C109.057 576.127 115.593 570.226 121.683 559.535Z"/>
	<path fill="#C4C47A" d="M99.8507 255.818C105.233 253.221 110.054 251.446 115.953 253.625C120.328 255.241 123.867 258.791 125.707 263.048Q126.042 263.811 126.299 264.603Q126.557 265.396 126.733 266.21Q126.91 267.024 127.004 267.852Q127.098 268.68 127.109 269.513Q127.12 270.346 127.048 271.176Q126.975 272.006 126.82 272.825Q126.665 273.644 126.428 274.443Q126.192 275.242 125.877 276.013C124.017 280.442 120.182 283.49 115.764 285.164C111.782 286.673 106.867 286.794 102.957 284.962C101.688 284.368 100.105 283.606 99.0351 282.712C98.3201 282.114 97.6376 281.487 97.03 280.777C94.1756 277.441 92.3684 273.017 92.6735 268.585C93.0458 263.177 95.9167 259.285 99.8507 255.818Z"/>
	<path fill="#F2DEBE" d="M99.1627 260.864C103.196 257.905 107.841 255.179 113.08 256.026C116.199 256.531 118.595 258.329 120.32 260.917Q120.755 261.577 121.12 262.277Q121.485 262.977 121.777 263.711Q122.069 264.445 122.285 265.204Q122.502 265.964 122.639 266.742Q122.777 267.519 122.835 268.307Q122.893 269.095 122.871 269.884Q122.848 270.674 122.746 271.457Q122.644 272.24 122.462 273.009C121.633 276.509 119.502 279.979 116.264 281.703C112.704 283.599 108.127 283.115 104.457 281.778C102.978 281.239 101.667 280.414 100.371 279.53C98.5526 277.484 96.7833 275.12 96.1673 272.395C95.1422 267.862 96.92 264.576 99.1627 260.864Z"/>
	<path fill="#EF7D6F" d="M1631.41 515.618C1634.84 517.967 1640.62 517.636 1644.56 516.913C1645.46 516.748 1645.79 516.686 1646.45 516.085C1654.66 516.866 1671.3 513.68 1676.86 520.587C1678.67 522.835 1678.85 524.155 1678.7 526.871C1676.86 529.716 1673.85 530.874 1670.66 531.567C1662.79 533.274 1653.83 531.071 1646.41 533.34C1643.24 531.301 1635.23 532.357 1631.34 532.378C1633.64 536.368 1633.56 548.22 1632.25 552.542C1632 553.338 1631.61 554.067 1631.15 554.76C1631.23 554.557 1631.31 554.355 1631.38 554.149C1632.86 549.791 1632.56 536.591 1630.39 532.538C1624.22 532.668 1617.28 533.305 1611.19 532.44C1607.84 531.963 1604.93 531.03 1602.8 528.225C1602.06 526.188 1601.91 524.688 1602.56 522.579C1606.46 509.872 1622.87 520.387 1630.69 516.057C1630.94 515.921 1631.17 515.765 1631.41 515.618Z"/>
	<path fill="#FCB74F" d="M1659.84 788.305C1663.12 786.227 1667.2 784.945 1670.84 783.605C1674.54 784.16 1679.78 784.595 1682.38 787.512C1686.69 788.841 1689.58 791.401 1691.68 795.407C1694.41 800.61 1695.44 807.143 1693.63 812.804C1691.86 818.351 1687.67 822.786 1682.49 825.356Q1681.99 825.608 1681.48 825.835Q1680.97 826.062 1680.44 826.263Q1679.92 826.464 1679.39 826.64Q1678.86 826.815 1678.32 826.964Q1677.78 827.113 1677.23 827.236Q1676.68 827.358 1676.13 827.453Q1675.58 827.548 1675.02 827.616Q1674.47 827.684 1673.91 827.725Q1673.35 827.765 1672.79 827.778Q1672.23 827.791 1671.67 827.776Q1671.11 827.761 1670.55 827.719Q1670 827.677 1669.44 827.607Q1668.88 827.537 1668.33 827.44Q1667.78 827.343 1667.24 827.219Q1666.69 827.095 1666.15 826.944Q1665.61 826.793 1665.08 826.616C1659.89 824.885 1655.6 821.245 1653.26 816.281C1650.85 811.188 1650.3 804.098 1652.27 798.782C1653.86 794.493 1656.56 791.393 1659.84 788.305Z"/>
	<path fill="#F2DEBE" d="M1659.82 791.995C1662.91 790.574 1666.22 788.886 1669.52 788.092C1673.63 787.106 1676.98 787.915 1680.54 790.138C1685.11 792.787 1689.76 797.455 1691.09 802.735C1692.11 806.808 1690.77 811.217 1688.54 814.654Q1688.26 815.085 1687.96 815.501Q1687.66 815.918 1687.34 816.319Q1687.02 816.72 1686.69 817.105Q1686.35 817.489 1685.99 817.856Q1685.63 818.224 1685.25 818.572Q1684.88 818.921 1684.49 819.251Q1684.09 819.58 1683.68 819.89Q1683.27 820.199 1682.85 820.488Q1682.43 820.777 1681.99 821.044Q1681.55 821.311 1681.1 821.556Q1680.65 821.801 1680.19 822.023Q1679.73 822.245 1679.25 822.444Q1678.78 822.643 1678.3 822.818Q1677.82 822.993 1677.33 823.144Q1676.84 823.294 1676.34 823.42Q1675.84 823.546 1675.34 823.647C1670.71 824.565 1665.43 824.031 1661.5 821.254C1657.61 818.506 1655.63 813.854 1654.89 809.272C1653.56 800.882 1659 798.363 1659.82 791.995Z"/>
	<path fill="#EF7D6F" d="M555.337 138.636C556.549 138.472 557.764 138.356 558.989 138.378C561.398 138.422 563.438 138.992 565.071 140.867C569.402 145.839 567.383 159.584 567.307 165.93C574.657 165.982 589.525 163.238 595.05 168.845C596.434 170.249 597.103 172.313 597.09 174.258C597.078 176.289 596.471 178.067 594.974 179.471C589.583 184.529 574.104 182.386 567.152 182.269C567.234 190.478 569.173 202.301 564.077 209.12C562.749 209.547 561.239 210.116 559.849 210.257C557.835 210.461 555.618 209.819 554.181 208.353C549.38 203.457 551.444 188.726 551.539 182.258C544.381 182.198 530.757 184.647 525.025 179.856C523.593 178.659 522.814 176.95 522.749 175.092C522.667 172.783 523.377 170.562 525.066 168.951C530.244 164.01 544.455 166.015 551.155 166.114C551.299 157.573 548.958 145.275 555.337 138.636Z"/>
	<path fill="#FCB74F" d="M1002.19 908.719C1018.45 907.277 1035.83 908.431 1052.2 908.442L1149.92 908.489L1462.65 908.459C1477.89 908.46 1637.66 907.596 1640.02 909.265L1638.85 911.733C1630.06 913.717 1612.71 912.1 1603.19 912.066L1524.03 912.055L1170.29 912.063C1152.75 912.05 1007.8 913.462 1002.91 911.076L1002.19 908.719Z"/>
	<path fill="#FCB74F" d="M636.189 93.2256C640.426 87.4192 645.64 82.9865 652.72 81.1475C661.416 78.8889 668.753 81.5761 676.209 85.9467C682.912 91.7692 686.795 98.1076 687.386 107.166C687.85 114.273 685.819 121.553 681.123 127.015C680.187 128.105 678.972 129.302 677.79 130.123C676.427 131.173 675.04 132.234 673.554 133.104C667.115 136.874 658.823 137.916 651.654 135.952C643.1 133.608 637.891 127.993 633.557 120.57C632.884 118.627 632.202 116.658 631.718 114.658C629.806 106.763 632.117 99.9488 636.189 93.2256Z"/>
	<path fill="#F2DEBE" d="M640.527 93.4478C645.376 88.788 650.771 85.0898 657.616 84.2091C664.374 83.3398 670.525 86.6947 675.701 90.6542C680.658 96.4402 684.067 102.607 683.509 110.466C683.031 117.191 679.549 123.682 674.409 127.997C674.241 128.138 674.069 128.274 673.898 128.413C668.757 131.431 661.867 133.529 655.877 132.713C647.908 131.626 642.385 126.176 637.72 120.103Q637.049 118.385 636.519 116.618C633.911 107.761 636.262 101.207 640.527 93.4478Z"/>
	<path fill="#FCB74F" d="M168.514 433.133Q169.85 432.996 171.192 432.958Q172.535 432.92 173.877 432.982Q175.218 433.043 176.552 433.203Q177.885 433.364 179.203 433.622Q180.521 433.881 181.816 434.236Q183.111 434.591 184.377 435.041Q185.642 435.491 186.871 436.033Q188.1 436.575 189.285 437.207Q189.998 437.594 190.691 438.016Q191.384 438.438 192.055 438.894Q192.726 439.349 193.374 439.838Q194.021 440.326 194.644 440.846Q195.267 441.366 195.863 441.916Q196.46 442.466 197.028 443.044Q197.597 443.623 198.136 444.23Q198.675 444.836 199.183 445.468Q199.692 446.1 200.168 446.757Q200.645 447.414 201.088 448.093Q201.531 448.772 201.941 449.473Q202.35 450.173 202.724 450.893Q203.098 451.613 203.436 452.351Q203.774 453.088 204.076 453.841Q204.377 454.595 204.64 455.362Q204.904 456.13 205.129 456.909C207.644 465.583 206.921 475.215 202.499 483.155C197.152 492.757 188.881 496.85 178.801 499.825C170.439 500.044 163.368 499.503 155.977 495.085Q155.273 494.665 154.591 494.211Q153.908 493.756 153.249 493.269Q152.59 492.782 151.955 492.262Q151.321 491.743 150.713 491.193Q150.105 490.643 149.525 490.064Q148.945 489.485 148.394 488.878Q147.843 488.27 147.322 487.637Q146.802 487.003 146.314 486.345Q145.825 485.686 145.37 485.005Q144.914 484.323 144.493 483.62Q144.072 482.916 143.686 482.193Q143.299 481.47 142.949 480.728Q142.599 479.987 142.286 479.229Q141.973 478.471 141.698 477.699Q141.423 476.927 141.186 476.142Q140.949 475.357 140.751 474.561Q140.549 473.754 140.386 472.937Q140.224 472.121 140.102 471.297Q139.98 470.473 139.899 469.645Q139.817 468.816 139.777 467.985Q139.737 467.153 139.738 466.321Q139.739 465.488 139.781 464.657Q139.823 463.825 139.906 462.997Q139.988 462.169 140.112 461.345Q140.236 460.522 140.4 459.706Q140.564 458.89 140.768 458.083Q140.972 457.276 141.216 456.48Q141.46 455.684 141.742 454.901Q142.025 454.118 142.346 453.35Q142.667 452.581 143.026 451.83Q143.384 451.079 143.779 450.346Q144.174 449.613 144.605 448.901C150.062 440.057 158.642 435.443 168.514 433.133Z"/>
	<path fill="#FDF9F4" d="M171.105 437.614C176.972 437.354 183.332 437.86 187.833 442.042C189.667 443.747 190.624 445.14 190.673 447.661L189.142 448.742C186.071 448.486 183.827 445.811 181.607 443.844C172.113 442.527 166.359 443.282 158.207 448.433C153.529 453.468 152.364 460.505 147.434 464.952L146.299 464.758C146.194 464.382 146.091 464.005 146.013 463.622C145.154 459.398 146.897 454.922 149.158 451.412C154.534 443.067 161.691 439.641 171.105 437.614Z"/>
	<path fill="#FCB74F" d="M1709.13 597.777C1720.2 596.668 1730.76 598.276 1739.59 605.515Q1740.3 606.099 1740.98 606.718Q1741.66 607.336 1742.31 607.987Q1742.96 608.638 1743.57 609.32Q1744.19 610.002 1744.77 610.713Q1745.35 611.425 1745.9 612.164Q1746.44 612.903 1746.95 613.668Q1747.46 614.433 1747.93 615.222Q1748.4 616.012 1748.84 616.823Q1749.27 617.634 1749.66 618.466Q1750.05 619.297 1750.4 620.147Q1750.75 620.997 1751.06 621.863Q1751.37 622.729 1751.63 623.609Q1751.9 624.489 1752.12 625.381Q1752.34 626.273 1752.52 627.175Q1752.7 628.076 1752.83 628.986Q1752.96 629.895 1753.05 630.81Q1753.14 631.735 1753.19 632.663Q1753.24 633.591 1753.24 634.52Q1753.24 635.449 1753.19 636.377Q1753.15 637.306 1753.06 638.23Q1752.96 639.155 1752.83 640.074Q1752.69 640.993 1752.51 641.904Q1752.32 642.815 1752.09 643.716Q1751.87 644.617 1751.59 645.506Q1751.32 646.394 1751.01 647.268Q1750.69 648.141 1750.33 648.998Q1749.97 649.855 1749.57 650.693Q1749.17 651.531 1748.73 652.348Q1748.28 653.165 1747.8 653.959Q1747.32 654.753 1746.8 655.522Q1746.27 656.291 1745.71 657.033Q1745.16 657.776 1744.56 658.489C1738.14 666.036 1729.17 670.309 1719.4 671.207C1712.77 672.522 1704.3 670.546 1698.39 667.444Q1697.58 667.012 1696.79 666.54Q1696 666.069 1695.24 665.558Q1694.47 665.047 1693.74 664.499Q1693 663.951 1692.29 663.367Q1691.58 662.783 1690.9 662.164Q1690.22 661.545 1689.58 660.893Q1688.93 660.241 1688.32 659.557Q1687.7 658.873 1687.12 658.16Q1686.55 657.446 1686 656.705Q1685.46 655.964 1684.96 655.196Q1684.45 654.428 1683.98 653.636Q1683.52 652.844 1683.09 652.03Q1682.67 651.216 1682.28 650.381Q1681.9 649.547 1681.56 648.694Q1681.21 647.842 1680.91 646.973Q1680.62 646.104 1680.36 645.222Q1680.09 644.351 1679.87 643.468Q1679.65 642.585 1679.47 641.692Q1679.29 640.799 1679.15 639.899Q1679.02 638.998 1678.92 638.092Q1678.83 637.186 1678.79 636.276Q1678.74 635.366 1678.74 634.456Q1678.74 633.545 1678.78 632.635Q1678.83 631.725 1678.91 630.819Q1679 629.912 1679.14 629.011Q1679.27 628.11 1679.45 627.217Q1679.62 626.324 1679.85 625.44Q1680.07 624.557 1680.33 623.685Q1680.6 622.814 1680.9 621.956Q1681.21 621.099 1681.56 620.258Q1681.91 619.417 1682.3 618.594Q1682.69 617.771 1683.12 616.968C1688.93 606.255 1697.81 601.017 1709.13 597.777Z"/>
	<path fill="#F6823A" d="M1619.94 788.401C1625.94 791.697 1628.77 801.904 1630.6 808.21C1635.59 825.427 1632.73 843.985 1624.13 859.527Q1623.25 861.13 1622.3 862.689Q1621.34 864.247 1620.31 865.755Q1619.28 867.264 1618.17 868.719Q1617.06 870.175 1615.89 871.574Q1614.71 872.973 1613.47 874.311Q1612.22 875.65 1610.91 876.925Q1609.6 878.2 1608.23 879.409Q1606.86 880.618 1605.43 881.757Q1604 882.896 1602.52 883.963Q1601.03 885.03 1599.5 886.021Q1597.96 887.013 1596.38 887.927Q1594.8 888.842 1593.17 889.676Q1591.55 890.511 1589.88 891.264Q1588.21 892.016 1586.51 892.686Q1584.81 893.355 1583.08 893.939Q1581.35 894.523 1579.59 895.02C1559.54 900.752 1538.66 897.944 1520.59 887.659C1506.79 879.807 1504.06 870.439 1494.42 862.383Q1497.14 862.258 1499.85 862.035Q1502.57 861.813 1505.27 861.495Q1507.98 861.176 1510.67 860.762Q1513.36 860.347 1516.03 859.837Q1518.71 859.327 1521.36 858.722Q1524.02 858.117 1526.65 857.418Q1529.28 856.719 1531.88 855.927Q1534.49 855.135 1537.06 854.25Q1539.64 853.366 1542.18 852.39Q1544.72 851.415 1547.23 850.349Q1549.74 849.284 1552.2 848.13Q1554.67 846.977 1557.09 845.736Q1559.52 844.495 1561.89 843.169Q1564.27 841.842 1566.6 840.432Q1568.93 839.022 1571.21 837.53Q1573.49 836.038 1575.71 834.466C1580.7 830.919 1599.39 817.054 1600.32 811.567C1600.45 811.503 1600.58 811.437 1600.72 811.375C1606.89 808.494 1617.28 794.611 1619.94 788.401Z"/>
	<path fill="#FCB74F" d="M737.581 760.191L909.905 760.165Q909.658 781.981 909.738 803.798C925.3 811.706 1053.33 876.669 1054.98 879.568C1049.66 885.024 1034.56 892.033 1027.13 894.111C1021.23 895.764 1013.64 896.648 1007.67 894.805C997.078 891.535 986.325 884.863 976.357 879.858L915.146 849.098L807.216 795.351C784.058 783.928 759.958 773.033 737.581 760.191Z"/>
	<path fill="#139276" d="M1595.08 156.384C1617.99 168.395 1641.39 210.322 1648.96 234.375Q1649.58 236.316 1650.15 238.271Q1650.72 240.226 1651.24 242.195Q1651.76 244.164 1652.24 246.145Q1652.71 248.126 1653.13 250.118Q1653.56 252.11 1653.94 254.111Q1654.31 256.113 1654.64 258.124Q1654.96 260.134 1655.24 262.152Q1655.52 264.17 1655.75 266.194Q1655.97 268.218 1656.15 270.247Q1656.33 272.276 1656.46 274.309Q1656.58 276.342 1656.66 278.377Q1656.74 280.412 1656.77 282.449Q1656.8 284.485 1656.77 286.522Q1656.75 288.559 1656.68 290.594Q1656.61 292.63 1656.49 294.663Q1656.37 296.696 1656.19 298.726Q1656.02 300.755 1655.8 302.78Q1655.58 304.805 1655.31 306.823Q1655.04 308.842 1654.72 310.853Q1654.4 312.865 1654.03 314.868Q1653.66 316.871 1653.24 318.864Q1652.82 320.857 1652.35 322.84Q1651.88 324.822 1651.37 326.792Q1650.85 328.762 1650.29 330.719Q1649.72 332.676 1649.11 334.619Q1648.5 336.562 1647.84 338.489Q1647.18 340.415 1646.47 342.326Q1645.76 344.236 1645.01 346.128Q1644.26 348.02 1643.46 349.893Q1642.66 351.767 1641.81 353.62Q1640.97 355.473 1640.08 357.304Q1639.19 359.136 1638.25 360.945Q1637.31 362.77 1636.32 364.57Q1635.34 366.37 1634.31 368.146Q1633.27 369.921 1632.2 371.669Q1631.13 373.418 1630.01 375.14Q1628.89 376.861 1627.73 378.554Q1626.57 380.247 1625.36 381.91Q1624.16 383.573 1622.92 385.206Q1621.67 386.838 1620.39 388.439Q1619.1 390.04 1617.78 391.609Q1616.45 393.177 1615.09 394.712Q1613.73 396.246 1612.33 397.746Q1610.92 399.246 1609.49 400.711Q1608.05 402.175 1606.57 403.603Q1605.1 405.032 1603.59 406.422Q1602.08 407.813 1600.54 409.166Q1598.99 410.518 1597.42 411.832Q1595.84 413.145 1594.23 414.418Q1592.62 415.692 1590.98 416.925Q1589.34 418.158 1587.66 419.349Q1585.99 420.541 1584.29 421.69Q1582.59 422.839 1580.86 423.945Q1579.13 425.052 1577.38 426.114Q1575.62 427.177 1573.84 428.195Q1572.06 429.214 1570.25 430.187Q1568.44 431.161 1566.61 432.089Q1564.78 433.016 1562.93 433.898Q1561.08 434.78 1559.2 435.615Q1557.33 436.45 1555.43 437.238Q1553.54 438.026 1551.62 438.767Q1549.71 439.507 1547.77 440.199Q1545.84 440.891 1543.89 441.535Q1541.94 442.178 1539.98 442.773Q1536.92 443.701 1533.83 444.512Q1530.73 445.322 1527.61 446.013Q1524.49 446.704 1521.34 447.275Q1518.2 447.845 1515.03 448.295Q1511.87 448.744 1508.68 449.071Q1505.5 449.399 1502.31 449.604Q1499.12 449.809 1495.93 449.892Q1492.73 449.974 1489.53 449.934Q1486.33 449.894 1483.14 449.731Q1479.95 449.568 1476.76 449.282Q1473.58 448.997 1470.41 448.589Q1467.24 448.182 1464.08 447.653Q1460.93 447.124 1457.8 446.474Q1454.67 445.825 1451.56 445.055Q1448.46 444.286 1445.39 443.398Q1442.32 442.51 1439.28 441.505C1429.67 438.261 1420.51 432.915 1410.88 430.132C1410.34 428.944 1381.44 409.389 1378.34 408.006C1377.74 405.469 1373.41 402.612 1371.38 400.886C1377.24 399.824 1393.56 407.026 1400.35 408.728C1419.03 413.403 1458.67 415.61 1475.85 406.502L1475.94 404.454C1476.58 404.894 1477.25 405.394 1477.75 405.995C1481.54 410.529 1489.35 425.83 1488.93 431.419C1490.44 430.261 1491.88 429.111 1492.85 427.447C1503.25 409.71 1511.73 390.143 1521.32 371.866L1550.84 314.75C1554.78 307.082 1560.51 298.526 1562.95 290.307C1562.49 287.617 1561.21 286.348 1559.41 284.461C1560.47 284.162 1561.48 283.696 1562.5 283.289C1569.07 275.602 1573.6 266.47 1578.14 257.489C1590.31 233.384 1596.74 208.725 1596.41 181.629C1596.31 173.189 1595.3 164.818 1595.08 156.384Z"/>
	<path fill="#139276" d="M1246.08 642.726C1247.73 644.654 1247.79 645.331 1247.98 647.844C1248.6 655.86 1248.09 664.199 1248.07 672.255L1248.03 717.225C1248.01 739.184 1249.47 766.263 1247.94 787.461C1247.81 789.229 1247.54 790.468 1246.71 792.034C1247.72 794.542 1248.11 796.075 1247.88 798.796C1246.51 801.283 1243.82 802.642 1241.43 804.05C1228.72 811.529 1215.35 818.034 1202.44 825.163L1129.77 865.691C1120.88 870.584 1089.63 889.109 1082.09 891.245C1081.23 891.488 1080.35 891.567 1079.46 891.584C1081.73 885.504 1080.91 748.525 1079.56 733.5C1085.53 731.557 1091.68 727.348 1097.26 724.315L1132.8 704.975C1168.08 685.792 1204.03 667.557 1238.97 647.789C1241.52 646.344 1244.25 645.079 1246.08 642.726Z"/>
	<path fill="#FCB74F" d="M1378.34 408.006C1381.44 409.389 1410.34 428.944 1410.88 430.132C1409.92 436.77 1383.34 495.042 1378.88 505.606L1287.49 722.281C1281.84 735.456 1263.55 782.37 1256.41 791.718C1253.17 791.968 1249.96 792.034 1246.71 792.034C1247.54 790.468 1247.81 789.229 1247.94 787.461C1249.47 766.263 1248.01 739.184 1248.03 717.225L1248.07 672.255C1248.09 664.199 1248.6 655.86 1247.98 647.844C1247.79 645.331 1247.73 644.654 1246.08 642.726C1244.85 638.985 1230.92 632.633 1226.91 630.298C1226.98 630.167 1227.06 630.039 1227.12 629.905C1228.77 626.574 1229.52 498.668 1227.23 491.51C1242.23 485.351 1258.57 474.441 1273.06 466.401L1356.96 420.711C1361.52 418.229 1374.46 412.486 1377.44 409.614C1377.88 409.187 1378.04 408.542 1378.34 408.006Z"/>
	<path fill="#DF5753" d="M638.354 666.992C648.077 679.243 656.243 692.717 665.701 705.197L673.277 715.723C680.815 728.811 690.566 740.985 699.176 753.417L704.206 760.1L773.923 860.872C780.732 870.777 799.519 901.291 807.3 907.928L807.683 911.171L587.776 911.132C547.691 911.122 507.5 910.495 467.429 911.405L466.791 908.815C473.696 904.401 494.121 871.423 499.625 863.375L600.388 720.733C613.11 702.885 625.227 684.539 638.354 666.992Z"/>
	<path fill="#EF7D6F" d="M637.621 677.777C645.026 683.235 669.465 721.681 676.461 731.665Q737.352 817.702 796.33 905.061L638.289 905.215C584.438 905.287 530.482 904.486 476.652 905.68C501.442 871.824 524.79 836.862 548.883 802.504Q592.82 739.833 637.621 677.777Z"/>
	<path fill="#FDF9F4" d="M606.627 733.701C607.784 733.992 608.258 734.426 609.106 735.246C608.574 741.055 595.144 757.636 591.459 763.172C590.248 762.847 589.788 762.334 588.94 761.436C589.786 754.534 602.211 739.844 606.627 733.701Z"/>
	<path fill="#FDF9F4" d="M578.296 774.563C579.302 775.034 579.603 775.512 580.292 776.357C579.357 782.512 564.418 802.401 559.686 807.405L557.815 805.525C559.069 797.915 573.389 781.353 578.296 774.563Z"/>
	<path fill="#35BB9D" d="M1371.38 400.886Q1367.01 396.341 1362.96 391.505Q1358.91 386.668 1355.21 381.564Q1351.5 376.459 1348.16 371.111Q1344.82 365.763 1341.85 360.197C1321.28 321.017 1318.42 276.238 1331.51 234.174Q1332.1 232.209 1332.74 230.26Q1333.39 228.31 1334.07 226.377Q1334.76 224.444 1335.5 222.529Q1336.24 220.613 1337.02 218.716Q1337.8 216.819 1338.63 214.942Q1339.46 213.065 1340.34 211.209Q1341.21 209.353 1342.14 207.52Q1343.06 205.686 1344.02 203.875Q1344.99 202.064 1346 200.278Q1347.01 198.492 1348.06 196.731Q1349.12 194.97 1350.21 193.236Q1351.31 191.502 1352.45 189.795Q1353.59 188.088 1354.77 186.41Q1355.95 184.731 1357.17 183.083Q1358.4 181.434 1359.66 179.816Q1360.92 178.198 1362.22 176.611Q1363.52 175.025 1364.86 173.471Q1366.2 171.917 1367.58 170.396Q1368.96 168.876 1370.38 167.39Q1371.79 165.904 1373.24 164.453Q1374.69 163.002 1376.18 161.588Q1377.67 160.173 1379.19 158.795Q1380.71 157.418 1382.26 156.078Q1383.82 154.738 1385.4 153.437Q1386.99 152.136 1388.61 150.875Q1390.23 149.613 1391.88 148.392Q1393.52 147.17 1395.2 145.99Q1396.88 144.81 1398.59 143.671Q1400.3 142.532 1402.03 141.436Q1403.76 140.34 1405.53 139.287Q1407.29 138.233 1409.07 137.224Q1410.86 136.214 1412.67 135.249Q1414.46 134.335 1416.27 133.465Q1418.08 132.595 1419.91 131.769Q1421.74 130.943 1423.58 130.161Q1425.43 129.38 1427.3 128.643Q1429.17 127.907 1431.05 127.215Q1432.94 126.524 1434.84 125.879Q1436.74 125.233 1438.66 124.634Q1440.57 124.035 1442.5 123.482Q1444.43 122.929 1446.37 122.423Q1448.32 121.917 1450.27 121.459Q1452.23 121 1454.19 120.589Q1456.16 120.177 1458.13 119.814Q1460.1 119.45 1462.09 119.134Q1464.07 118.819 1466.06 118.551Q1468.05 118.283 1470.04 118.064Q1472.04 117.844 1474.04 117.673Q1476.04 117.502 1478.04 117.379Q1480.05 117.256 1482.05 117.182Q1484.06 117.108 1486.07 117.082Q1488.07 117.056 1490.08 117.079Q1492.09 117.102 1494.09 117.173Q1496.1 117.245 1498.1 117.365Q1500.11 117.485 1502.11 117.653Q1504.11 117.822 1506.1 118.038Q1508.1 118.255 1510.09 118.52Q1512.08 118.785 1514.06 119.098Q1516.04 119.411 1518.02 119.772Q1519.99 120.133 1521.96 120.541Q1523.93 120.95 1525.88 121.406Q1527.84 121.862 1529.78 122.365Q1531.72 122.868 1533.65 123.418Q1535.58 123.968 1537.5 124.565C1549.73 128.451 1589.43 145.516 1595.08 156.384C1595.3 164.818 1596.31 173.189 1596.41 181.629C1596.74 208.725 1590.31 233.384 1578.14 257.489C1573.6 266.47 1569.07 275.602 1562.5 283.289C1561.48 283.696 1560.47 284.162 1559.41 284.461C1561.21 286.348 1562.49 287.617 1562.95 290.307C1560.51 298.526 1554.78 307.082 1550.84 314.75L1521.32 371.866C1511.73 390.143 1503.25 409.71 1492.85 427.447C1491.88 429.111 1490.44 430.261 1488.93 431.419C1489.35 425.83 1481.54 410.529 1477.75 405.995C1477.25 405.394 1476.58 404.894 1475.94 404.454L1475.85 406.502C1458.67 415.61 1419.03 413.403 1400.35 408.728C1393.56 407.026 1377.24 399.824 1371.38 400.886Z"/>
	<path fill="#A6DDB8" d="M1361.44 213.774C1363.4 213.459 1364.5 213.549 1366.34 214.335C1367.02 215.413 1367.46 215.785 1367.38 217.066C1367.21 220.184 1364.87 222.813 1362.65 224.766C1361.83 225.524 1360.77 226.084 1359.83 226.685L1358.99 225.858C1358.1 221.728 1360.25 217.644 1361.44 213.774Z"/>
	<path fill="#A6DDB8" d="M1424.2 153.331C1427 153.022 1428.01 153.15 1430.44 154.433L1430.97 156.453C1428.76 160.871 1415.69 166.224 1410.84 169.35C1402.93 174.446 1394.63 180.94 1388.39 187.999C1383.38 193.666 1378.54 203.646 1372.31 207.559C1371.41 207.698 1371.65 207.74 1370.9 207.622C1369.13 207.344 1369.21 207.191 1368.12 205.671C1368.15 205.015 1368.22 204.391 1368.37 203.749C1369.07 200.759 1372.22 196.962 1374.07 194.399C1387.41 175.865 1404.64 164.425 1424.2 153.331Z"/>
	<path fill="#025962" d="M1486.73 166.084C1488.26 163.834 1490.01 161.719 1490.48 158.986C1492.82 162.498 1499.75 172.18 1499.33 176.314C1499.32 176.47 1499.26 176.619 1499.23 176.771C1500.1 177.318 1500.95 177.936 1501.54 178.786C1505.99 185.128 1558.88 281.145 1559.34 283.152C1559.49 283.79 1559.45 283.894 1559.41 284.461C1561.21 286.348 1562.49 287.617 1562.95 290.307C1560.51 298.526 1554.78 307.082 1550.84 314.75L1521.32 371.866C1511.73 390.143 1503.25 409.71 1492.85 427.447C1491.88 429.111 1490.44 430.261 1488.93 431.419C1489.35 425.83 1481.54 410.529 1477.75 405.995C1477.25 405.394 1476.58 404.894 1475.94 404.454C1475.95 404.168 1475.97 404 1475.96 403.701C1475.82 400.223 1419.49 292.271 1415.72 288.734C1419.85 285.723 1481.06 178.248 1486.73 166.084Z"/>
	<path fill="#D7522A" d="M1489.07 394.697C1491.58 399.787 1491.52 415.248 1489.69 420.823C1489.42 421.636 1489.07 422.346 1488.71 423.116C1488.58 423.411 1488.46 423.713 1488.32 424.008C1488.24 424.186 1488.15 424.359 1488.06 424.534C1488.83 419.251 1483.32 409.824 1480.21 405.497C1479.68 404.762 1479.14 404.237 1478.49 403.62C1483.21 402.206 1486.26 398.549 1489.07 394.697Z"/>
	<path fill="#D7522A" d="M1554.56 291.998C1555.91 291.804 1556.75 291.884 1558.05 292.159L1558.18 293.686C1551.05 306.104 1544.89 319.253 1538.32 331.985L1511.77 382.619C1507.28 391.391 1498.91 411.728 1492.95 418.225L1492.72 418.679C1488.78 416.392 1495.99 331.134 1491.21 318.686C1499.06 316.453 1548.99 295.408 1554.56 291.998Z"/>
	<path fill="#F6823A" d="M1418.23 290.202C1427.02 292.394 1483.59 313.752 1489.2 318.668C1489.43 319.156 1489.49 319.25 1489.69 319.817C1491.65 325.198 1491.3 390.117 1489.07 394.697C1486.26 398.549 1483.21 402.206 1478.49 403.62C1478.45 403.322 1478.42 403.022 1478.38 402.725C1477.81 398.822 1428.27 304.042 1422.56 294.724C1421.43 292.873 1419.96 291.48 1418.23 290.202Z"/>
	<path fill="#D7522A" d="M1489.95 167.586C1493.87 170.815 1497.43 175.253 1498.07 180.448C1504.47 187.132 1523.77 225.436 1529.71 236.22C1538.49 252.162 1548.17 267.949 1556.31 284.204C1557.01 285.614 1557.4 286.588 1557.4 288.179C1557.4 288.328 1557.38 288.478 1557.38 288.627C1545.08 295.22 1530.64 299.736 1517.69 305.125C1509.14 308.682 1500.07 313.779 1491.22 316.259C1493.12 311.912 1493.25 272 1491.22 267.372C1490.91 266.658 1490.97 266.793 1490.62 266.254C1490.91 265.716 1491.17 265.178 1491.35 264.591C1493.19 258.685 1492.92 183.928 1491.89 173.241C1491.69 171.173 1490.95 169.381 1489.95 167.586Z"/>
	<path fill="#F6823A" d="M1487.68 168.142L1489.79 169.446C1491.14 179.275 1491.75 248.629 1489.39 256.062C1489.58 256.497 1489.6 256.517 1489.77 257.028C1491.82 263.052 1491.21 311.183 1488.78 316.423C1486.71 313.539 1424.12 289.054 1418.63 287.866C1419.68 287.138 1420.51 286.378 1421.31 285.381C1428.63 276.343 1439 255.357 1445.31 244.437C1459.11 220.557 1474.45 196.71 1486.88 172.122C1487.65 170.602 1487.86 169.842 1487.68 168.142Z"/>
	<path fill="#F6823A" d="M171.028 109.674L363.328 109.824C377.825 109.871 419.905 107.95 431.195 110.858C435.735 112.028 438.314 116.631 440.584 120.327L440.57 348.33C437.846 352.212 435.739 354.963 431.066 356.42L260.782 356.465C232.957 356.479 204.299 357.905 176.558 356.393C172.873 356.192 168.894 355.714 165.499 354.189C163.134 353.126 161.934 351.252 161.073 348.867C160.275 346.659 159.944 344.262 159.85 341.925C159.488 332.994 160.082 323.888 160.07 314.933L159.949 249.337L160.03 174.631C159.978 159.311 159.377 143.858 159.807 128.55C159.913 124.789 159.897 120.419 161.537 116.965C163.407 113.026 167.135 111.08 171.028 109.674Z"/>
	<path fill="#FCB74F" d="M196.412 246.455C212.825 244.418 239.915 246.08 257.505 246.093C304.69 246.13 351.962 246.637 399.138 246.013C401.602 247.334 401.454 247.59 402.396 250.27C393.049 252.307 199.617 251.148 198.758 250.714C196.95 249.8 196.955 248.245 196.412 246.455Z"/>
	<path fill="#FCB74F" d="M196.253 302.31C206.44 301.429 217.002 301.94 227.238 301.932L283.472 301.935L359.354 302.003C372.848 302.02 386.519 301.586 399.994 302.199C401.895 303.744 401.753 304.124 402.241 306.572C389.327 307.326 376.156 306.842 363.219 306.843L293.28 306.846Q262.571 306.806 231.862 307.072C221.105 307.162 210.125 307.815 199.397 307.323C197.061 305.874 197.089 304.829 196.253 302.31Z"/>
	<path fill="#FCB74F" d="M196.295 218.873C227.796 217.07 260.282 218.546 291.873 218.53C327.266 218.513 363.122 217.163 398.439 218.526C399.617 218.572 400.543 218.939 401.541 219.528C401.911 221.594 401.664 221.663 400.678 223.413Q332.329 223.783 263.979 223.386L219.017 223.536C212.49 223.569 205.43 224.326 198.987 223.64C196.847 222.033 196.971 221.516 196.295 218.873Z"/>
	<path fill="#FCB74F" d="M196.092 162.848C221.854 161.364 248.361 162.57 274.188 162.558C315.824 162.538 357.525 161.96 399.154 162.486C401.291 163.894 401.048 164.663 401.65 167.08C387.781 167.645 201.178 168.984 197.448 167.182L196.092 162.848Z"/>
	<path fill="#FCB74F" d="M196.605 274.011C211.843 273.003 227.667 273.761 242.956 273.765L330.101 273.825L378.782 273.848C385.47 273.846 392.976 272.954 399.533 273.907C401.785 275.417 401.601 275.822 402.291 278.498C392.091 280.189 380.075 279.097 369.723 278.998Q343.392 278.758 317.06 278.819L235.872 278.885C223.952 278.902 211.214 279.929 199.381 279.044C197.007 277.482 197.21 276.67 196.605 274.011Z"/>
	<path fill="#FCB74F" d="M197.067 190.552C219.754 190.311 397.488 189.47 399.933 190.468C400.518 190.707 400.943 191.228 401.448 191.608L401.691 195.458C365.627 196.402 329.304 195.599 293.212 195.628L222.042 195.515C215.727 195.496 209.315 196.091 203.043 195.946C201.417 195.909 199.477 195.831 198.145 194.797C197.058 193.953 197.21 191.908 197.067 190.552Z"/>
	<path fill="#046088" d="M1459.15 567.265C1472.27 564.918 1509.84 560.301 1521.46 566.994C1548.64 568.631 1586.01 591.128 1603.8 611.116C1605.47 612.997 1607.84 615.274 1608.25 617.77C1610.54 619.379 1613.86 621.923 1614.24 624.926C1614.28 625.246 1614.28 625.569 1614.31 625.891C1625.78 632.972 1637.28 666.973 1640.36 679.841Q1640.74 681.474 1641.07 683.115Q1641.41 684.756 1641.71 686.406Q1642.01 688.055 1642.27 689.71Q1642.52 691.366 1642.74 693.028Q1642.96 694.689 1643.14 696.355Q1643.31 698.022 1643.45 699.692Q1643.59 701.362 1643.69 703.035Q1643.78 704.708 1643.84 706.383Q1643.9 708.057 1643.91 709.733Q1643.93 711.409 1643.9 713.084Q1643.88 714.76 1643.82 716.434Q1643.75 718.109 1643.65 719.781Q1643.54 721.454 1643.39 723.123Q1643.25 724.793 1643.06 726.458Q1642.88 728.123 1642.65 729.784Q1642.43 731.444 1642.16 733.099Q1641.89 734.753 1641.59 736.401Q1641.28 738.048 1640.94 739.688Q1640.59 741.327 1640.2 742.958Q1639.82 744.589 1639.39 746.21Q1638.97 747.831 1638.51 749.442Q1638.04 751.052 1637.54 752.651Q1637.04 754.249 1636.5 755.835Q1635.96 757.421 1635.38 758.994Q1634.8 760.566 1634.18 762.124Q1633.57 763.682 1632.91 765.225Q1632.26 766.768 1631.57 768.294Q1630.87 769.821 1630.15 771.33Q1629.42 772.839 1628.65 774.331Q1627.89 775.822 1627.09 777.294Q1626.29 778.767 1625.46 780.219Q1624.62 781.672 1623.75 783.104C1622.64 784.927 1621.42 786.853 1619.94 788.401C1617.28 794.611 1606.89 808.494 1600.72 811.375C1600.58 811.437 1600.45 811.503 1600.32 811.567C1599.39 817.054 1580.7 830.919 1575.71 834.466Q1573.49 836.038 1571.21 837.53Q1568.93 839.022 1566.6 840.432Q1564.27 841.842 1561.89 843.169Q1559.52 844.495 1557.09 845.736Q1554.67 846.977 1552.2 848.13Q1549.74 849.284 1547.23 850.349Q1544.72 851.415 1542.18 852.39Q1539.64 853.366 1537.06 854.25Q1534.49 855.135 1531.88 855.927Q1529.28 856.719 1526.65 857.418Q1524.02 858.117 1521.36 858.722Q1518.71 859.327 1516.03 859.837Q1513.36 860.347 1510.67 860.762Q1507.98 861.176 1505.27 861.495Q1502.57 861.813 1499.85 862.035Q1497.14 862.258 1494.42 862.383C1456.91 862.065 1436.37 852.566 1404.77 833.76C1400.83 828.659 1387.94 819.339 1382.35 814.18C1378.84 807.937 1369.95 799.114 1365.33 792.254C1360.23 784.682 1356.51 774.756 1350.68 768.012C1351.16 765.121 1343.77 739.662 1341.71 736.081C1342.53 733.823 1341.15 703.361 1340.25 699.732C1342.96 695.665 1344.43 680.913 1345.77 675.265C1352.04 648.843 1367.9 623.593 1387.51 604.988C1392.61 600.145 1398.49 596.212 1403.66 591.448L1404.11 591.029L1405.17 593.412L1402.89 596.328C1411.94 593.4 1420.68 585.24 1429.44 581.019C1436.58 577.576 1445.41 576.656 1452.11 572.57C1449.51 571.031 1443.28 574.945 1439.86 574.684C1444.66 571.712 1452.82 570.41 1458.36 568.817L1459.15 567.265Z"/>
	<path fill="#399EC5" d="M1550.74 616.848C1552.96 618.57 1553.24 618.978 1554.25 621.6C1555.9 624.183 1557.63 626.584 1558.29 629.633C1557.62 631.236 1557.59 631.689 1555.91 632.284C1554.06 632.937 1551.64 632.762 1549.69 632.778L1551 631.256C1552.17 626.473 1551.58 621.637 1550.74 616.848Z"/>
	<path fill="#006A8D" d="M1341.71 736.081L1344.27 737.364C1345.25 740.911 1345.79 748.017 1347.71 750.712C1347.13 745.754 1346.5 740.839 1345.28 735.991C1347.02 737.788 1353.91 761.623 1353.71 764.056C1353.68 764.417 1353.46 765.004 1353.36 765.307L1353.32 767.505L1350.68 768.012C1351.16 765.121 1343.77 739.662 1341.71 736.081Z"/>
	<path fill="#73D0D3" d="M1492.25 703.907Q1502.73 703.781 1513.21 704.139C1511.58 708.538 1501.22 714.199 1496.93 716.333C1495.64 716.975 1494.24 717.158 1492.83 717.333C1492.89 717.169 1492.96 717.007 1493.02 716.84C1494.42 712.595 1494.38 707.863 1492.25 703.907Z"/>
	<path fill="#006A8D" d="M1382.45 622.128C1392.57 623.77 1403.89 626.736 1413.56 630.161C1413.34 630.208 1413.12 630.262 1412.9 630.302C1407.88 631.203 1399.94 626.443 1396.34 627.926C1397.73 628.406 1399.13 628.866 1400.51 629.382C1405.66 631.31 1413.12 630.536 1417.51 633.777C1418.4 634.897 1419.48 635.957 1419.91 637.332C1420.21 640.643 1414.62 662.1 1412.63 664.287C1412.46 664.475 1412.27 664.645 1412.09 664.823C1413.09 661.421 1414.94 655.189 1414.21 651.814L1411.1 653.343C1413.81 650.036 1416.92 640.028 1416.78 635.698C1416.49 635.215 1416.32 634.639 1415.91 634.248C1415.33 633.691 1408.86 632.634 1407.58 632.332C1398.69 630.22 1390.05 627.744 1381.34 624.968L1382.45 622.128Z"/>
	<path fill="#399EC5" d="M1412.05 747.667C1412.82 747.841 1413.72 748.009 1414.51 747.919C1419.4 747.365 1486.69 721.496 1488.95 719.033C1490.97 723.497 1491.48 737.437 1489.68 741.964C1489.41 742.643 1489.09 743.252 1488.7 743.867C1473.42 743.881 1457.87 743.485 1442.66 745.198C1435.72 745.98 1419.33 750.868 1413.73 749.725L1412.05 747.667Z"/>
	<path fill="#399EC5" d="M1555.76 812.447C1558.02 810.341 1558.9 809.077 1562.24 809.112C1567.96 809.172 1589.22 811.384 1593.45 814.321C1589.14 825.04 1552.56 844.155 1541.26 848.954C1536.72 850.883 1528.73 854.838 1524.08 853.414L1524.96 851.541C1530.11 849.402 1535.45 843.341 1539.18 839.186C1543.89 833.945 1556.14 819.58 1555.76 812.447Z"/>
	<path fill="#399EC5" d="M1402.13 815.872C1409.51 814.525 1421.26 813.076 1427.9 809.822C1436.63 818.465 1441.15 831.57 1449.64 840.845C1453.97 845.58 1465.8 852.331 1468.08 857.143C1454.09 852.745 1440.11 849.252 1426.95 842.528C1419.6 838.772 1412.48 832.199 1404.9 829.331C1403.75 825.965 1395.52 820.655 1392.37 819.017C1395.55 818.229 1399.35 817.634 1402.13 815.872Z"/>
	<path fill="#399EC5" d="M1573.37 759.266C1578.28 760.38 1583.11 762.125 1587.91 763.633C1592.05 765.203 1596.69 766.546 1600.54 768.715Q1609.85 772.245 1619.02 776.118L1621.73 777.52C1621.51 784.57 1607.87 800.711 1602.86 805.459Q1601.98 806.293 1601.05 807.076C1600.78 808.085 1600.36 808.498 1599.62 809.193C1596.71 811.942 1567.15 805.595 1561.33 805.423C1559.72 800.054 1576.84 769.369 1573.37 759.266Z"/>
	<path fill="#399EC5" d="M1547.9 637.169C1551.95 636.784 1555.95 636.373 1559.96 635.638C1567.44 644.172 1575.33 685.003 1574.36 696.624C1574.24 698.033 1573.94 699.083 1573.26 700.315C1561.54 700.328 1499 702.229 1492.98 699.478C1500.91 700.61 1509.84 699.925 1517.87 699.997C1522.29 697.61 1526.04 692.611 1529.1 688.651C1538.29 676.756 1552.04 654.026 1550.09 638.582L1547.9 637.169Z"/>
	<path fill="#399EC5" d="M1516.94 569.918C1526.51 571.162 1547.31 575.737 1554.97 581.542C1567.29 586.512 1600.36 608.156 1605.7 620.354L1606.73 621.862C1606.61 622.032 1606.51 622.222 1606.36 622.371C1602.52 626.208 1569.57 630.585 1562.7 631.308C1562.76 630.662 1562.82 630.181 1562.67 629.54C1561.53 624.875 1557.05 615.258 1553.1 612.581C1553.29 611.525 1553.24 611.082 1552.85 610.047C1551.59 606.698 1548.63 601.408 1545.29 599.978C1545.37 599.4 1545.41 599.394 1545.3 598.717C1543.83 589.888 1524.11 574.873 1516.94 569.918Z"/>
	<path fill="#399EC5" d="M1473.27 804.888L1488.17 804.529C1488.59 805.304 1488.94 806.099 1489.15 806.958C1490.57 812.531 1490.58 854.781 1488.27 858.463C1477.01 855.664 1470.14 851.13 1460.15 845.775C1458.23 841.889 1453.14 837.874 1450.32 834.331C1444.54 827.072 1438.43 814.91 1431.44 809.217Q1452.25 806.027 1473.27 804.888Z"/>
	<path fill="#399EC5" d="M1492.02 804.464C1504.62 804.801 1543.73 804.525 1553.39 808.466L1553.07 810.64C1552.09 818.936 1536.91 836.819 1530.39 842.11C1529.75 842.627 1529.14 842.992 1528.43 843.399C1528.03 844.097 1527.7 844.66 1527.13 845.237C1517.48 854.941 1505.21 857.934 1492.03 858.719C1492.52 857.918 1492.96 857.073 1493.21 856.158C1494.72 850.546 1494.38 808.99 1492.02 804.464Z"/>
	<path fill="#73D0D3" d="M1407.72 703.917L1488.78 703.922C1489.12 704.475 1489.26 704.659 1489.5 705.217C1491.06 708.933 1490.46 715.379 1488.95 719.033C1486.69 721.496 1419.4 747.365 1414.51 747.919C1413.72 748.009 1412.82 747.841 1412.05 747.667C1412.11 747.439 1412.18 747.212 1412.24 746.982C1413.09 743.434 1409.17 706.268 1407.72 703.917Z"/>
	<path fill="#399EC5" d="M1357.71 774.829C1373.31 768.239 1387.74 760.126 1404.52 756.466C1406.93 755.942 1408.71 755.543 1410.85 756.902L1411.02 760.132C1413.15 766.196 1422.02 791.452 1421.71 796.521C1424.07 799.257 1425.79 802.297 1425.52 806.003C1420.75 808.475 1396.82 813.717 1388.8 816.568C1388.3 813.675 1382.62 808.283 1380.6 805.842Q1373.57 797.475 1367.3 788.519C1364.22 784.1 1361.69 778.459 1357.71 774.829Z"/>
	<path fill="#73D0D3" d="M1547.9 637.169L1550.09 638.582C1552.04 654.026 1538.29 676.756 1529.1 688.651C1526.04 692.611 1522.29 697.61 1517.87 699.997C1509.84 699.925 1500.91 700.61 1492.98 699.478C1493.05 699.266 1493.14 699.055 1493.21 698.841C1495.23 692.98 1494.71 644.036 1492.52 639.488C1511.09 639.352 1529.4 638.9 1547.9 637.169Z"/>
	<path fill="#73D0D3" d="M1492.28 567.563C1497.6 567.839 1502.98 568.512 1507.9 570.619C1519.89 574.583 1537.28 588.756 1542.38 600.735C1542.58 601.209 1542.57 601.316 1542.63 601.762C1545.27 604.932 1551.11 612.017 1550.86 616.252C1550.85 616.454 1550.78 616.649 1550.74 616.848C1551.58 621.637 1552.17 626.473 1551 631.256L1549.69 632.778C1531.56 636.457 1510.99 635.581 1492.52 635.631C1493.05 634.78 1493.5 633.863 1493.68 632.867C1494.9 626.056 1494.65 571.353 1492.28 567.563Z"/>
	<path fill="#399EC5" d="M1513.21 704.139Q1543.33 703.995 1573.44 704.216C1577.19 711.466 1573.99 744.052 1571.55 752.37C1571.28 753.29 1570.87 753.893 1570.35 754.685C1553.05 746.18 1512.01 743.744 1492.43 743.962C1494.71 738.669 1495.09 723.201 1492.99 717.722C1492.94 717.591 1492.88 717.463 1492.83 717.333C1494.24 717.158 1495.64 716.975 1496.93 716.333C1501.22 714.199 1511.58 708.538 1513.21 704.139Z"/>
	<path fill="#73D0D3" d="M1343.25 703.789L1403.61 703.803C1404.25 704.828 1404.87 705.948 1405.08 707.156C1405.83 711.512 1409.47 746.553 1408.79 749.475C1408.64 750.086 1408.64 750.076 1408.47 750.595C1391.04 756.214 1374.56 762.712 1358.08 770.68C1356.55 768.846 1354.99 767.058 1353.36 765.307C1353.46 765.004 1353.68 764.417 1353.71 764.056C1353.91 761.623 1347.02 737.788 1345.28 735.991C1346.72 732.606 1345.48 708.763 1344 705.129C1343.76 704.538 1343.62 704.367 1343.25 703.789Z"/>
	<path fill="#399EC5" d="M1577.09 704.228C1597.48 704.273 1618.05 703.676 1638.41 704.25C1642.81 712.001 1637.54 738.179 1635.14 746.902C1632.74 755.627 1629.84 764.908 1624.67 772.424C1623.59 772.867 1622.66 773.255 1621.52 773.496C1618.26 770.245 1607.5 766.971 1602.92 766.134C1600.85 763.269 1593.76 761.867 1590.38 761.077C1587.61 758.324 1577.74 756.532 1573.88 755.868C1574.39 755.086 1574.79 754.312 1575.09 753.42C1576.76 748.412 1578.57 738.27 1576.36 733.451C1577.13 732.629 1577.68 731.625 1578.05 730.563C1579.01 727.805 1578.14 725.351 1577 722.841C1579.2 718.999 1579.35 710.993 1578.21 706.72C1577.96 705.802 1577.6 705.021 1577.09 704.228Z"/>
	<path fill="#399EC5" d="M1413.44 758.073C1414.11 756.219 1414.1 755.118 1415.97 754.23C1429.62 747.74 1471.66 747.911 1488.55 747.74C1491.12 752.252 1490.62 793.181 1489.05 798.783C1488.88 799.371 1488.66 799.922 1488.42 800.478C1468.53 800.911 1449.28 802.871 1429.58 805.397C1429.72 801.105 1427.57 797.02 1424.79 793.856C1424.8 793.691 1424.83 793.527 1424.82 793.361C1424.78 789.961 1415.83 760.433 1413.44 758.073Z"/>
	<path fill="#399EC5" d="M1492.22 747.659C1517.47 748.205 1541.82 751.054 1566.3 757.313L1569.97 758.629C1571.81 765.102 1561.84 794.439 1557.95 801.417C1557.41 802.399 1556.71 803.275 1555.96 804.1C1554.5 804.286 1553.18 804.421 1551.71 804.318C1544.75 800.774 1502.62 800.861 1492.26 800.765C1492.59 800.144 1492.85 799.538 1493.08 798.867C1494.69 794.004 1494.37 751.964 1492.22 747.659Z"/>
	<path fill="#399EC5" d="M1563.62 635.092C1572.96 634.771 1606.61 625.494 1611.93 627.332L1612.81 629.293C1624.81 642.031 1640.11 679.612 1639.05 697.439C1638.98 698.523 1638.66 699.372 1638.22 700.35C1628.04 700.42 1585.04 702.451 1578.46 699.333L1576.85 696.748C1578.28 694.36 1578.08 692.104 1577.89 689.432C1577.11 678.397 1571.77 642.176 1563.62 635.092Z"/>
	<path fill="#73D0D3" d="M1404.11 591.029L1405.17 593.412L1402.89 596.328C1400.45 600.984 1378.66 615.804 1380.41 619.998C1380.82 620.959 1381.65 621.502 1382.45 622.128L1381.34 624.968C1390.05 627.744 1398.69 630.22 1407.58 632.332C1408.86 632.634 1415.33 633.691 1415.91 634.248C1416.32 634.639 1416.49 635.215 1416.78 635.698C1416.92 640.028 1413.81 650.036 1411.1 653.343C1411.41 655.629 1405.1 698.412 1404.68 698.977C1404.2 699.626 1404.04 699.757 1403.5 700.312L1402.82 701.42C1395.93 702.678 1351.02 702.475 1344.98 700.951C1344.08 700.723 1343.8 699.756 1343.34 698.979C1345.52 694.418 1344.56 689.285 1346.17 684.419C1346.57 683.23 1346.22 682.562 1345.95 681.366C1343.78 684.983 1344.37 690.038 1343.6 694.119C1343.06 696.93 1342.55 698.1 1340.25 699.732C1342.96 695.665 1344.43 680.913 1345.77 675.265C1352.04 648.843 1367.9 623.593 1387.51 604.988C1392.61 600.145 1398.49 596.212 1403.66 591.448L1404.11 591.029Z"/>
	<path fill="#006A8D" d="M1404.11 591.029L1405.17 593.412L1402.89 596.328C1400.45 600.984 1378.66 615.804 1380.41 619.998C1380.82 620.959 1381.65 621.502 1382.45 622.128L1381.34 624.968C1379.53 624.323 1377.88 623.226 1376.04 624.244C1365.4 630.157 1351.27 667.838 1348.46 680.48C1347.23 686.02 1346.79 695.325 1343.46 699.804C1360.91 699.812 1386.99 698.233 1403.5 700.312L1402.82 701.42C1395.93 702.678 1351.02 702.475 1344.98 700.951C1344.08 700.723 1343.8 699.756 1343.34 698.979C1345.52 694.418 1344.56 689.285 1346.17 684.419C1346.57 683.23 1346.22 682.562 1345.95 681.366C1343.78 684.983 1344.37 690.038 1343.6 694.119C1343.06 696.93 1342.55 698.1 1340.25 699.732C1342.96 695.665 1344.43 680.913 1345.77 675.265C1352.04 648.843 1367.9 623.593 1387.51 604.988C1392.61 600.145 1398.49 596.212 1403.66 591.448L1404.11 591.029Z"/>
	<path fill="#73D0D3" d="M1419.91 637.332C1420.49 636.943 1421.75 635.833 1422.36 635.687C1427.36 634.484 1438.32 637.006 1443.74 637.515C1458.79 638.928 1473.81 639.201 1488.92 639.399C1490.91 643.839 1491.47 693.467 1489.54 698.62C1489.31 699.222 1489.01 699.754 1488.66 700.29Q1448.29 699.925 1407.91 700.259C1409.92 696.464 1413.35 669.059 1412.23 665.226C1412.19 665.09 1412.14 664.958 1412.09 664.823C1412.27 664.645 1412.46 664.475 1412.63 664.287C1414.62 662.1 1420.21 640.643 1419.91 637.332Z"/>
	<path fill="#73D0D3" d="M1474.78 570.687C1479.31 569.705 1484.16 568.992 1488.58 567.61C1489.36 568.807 1489.86 569.978 1490 571.402C1490.83 579.609 1491.14 627.037 1489.72 633.284C1489.52 634.186 1489.12 634.856 1488.65 635.637C1474.63 635.53 1460.45 634.315 1446.48 634.553L1444.96 635.48C1437.79 634.923 1429.83 634.765 1422.98 632.499C1422.47 631.569 1422.29 631.008 1422.34 629.961C1422.36 629.637 1422.38 629.315 1422.4 628.992C1421.58 630.6 1421.09 631.182 1419.58 632.182C1417.31 632.198 1416.28 631.63 1414.47 630.298L1413.56 630.161C1403.89 626.736 1392.57 623.77 1382.45 622.128C1381.65 621.502 1380.82 620.959 1380.41 619.998C1378.66 615.804 1400.45 600.984 1402.89 596.328C1411.94 593.4 1420.68 585.24 1429.44 581.019C1436.58 577.576 1445.41 576.656 1452.11 572.57C1455.7 572.169 1458.98 571.737 1462.4 570.516C1464.12 569.648 1465.57 568.494 1467.58 569.043C1468.9 569.406 1470.37 570.349 1471.59 570.992L1474.78 570.687Z"/>
	<path fill="#006A8D" d="M1462.4 570.516C1464.12 569.648 1465.57 568.494 1467.58 569.043C1468.9 569.406 1470.37 570.349 1471.59 570.992L1474.78 570.687C1474.67 570.781 1474.57 570.878 1474.47 570.971C1468.4 576.326 1460.3 578.087 1454.42 584.385C1449.41 589.753 1436.98 608.691 1432.31 611.413C1432.51 615.449 1425.89 627.578 1423.05 630.856C1422.81 631.13 1422.47 631.418 1422.2 631.651C1427.08 632.137 1443.1 632.513 1446.48 634.553L1444.96 635.48C1437.79 634.923 1429.83 634.765 1422.98 632.499C1422.47 631.569 1422.29 631.008 1422.34 629.961C1422.36 629.637 1422.38 629.315 1422.4 628.992C1421.58 630.6 1421.09 631.182 1419.58 632.182C1417.31 632.198 1416.28 631.63 1414.47 630.298C1415.92 630.565 1417.06 630.577 1418.53 630.483C1423.1 626.289 1427.61 615.68 1429.74 609.777C1436.89 602.149 1441.69 592.171 1449.2 584.439C1452.03 581.527 1464.86 572.223 1465.52 571.069L1462.4 570.516Z"/>
	<path fill="#73D0D3" d="M1462.4 570.516L1465.52 571.069C1464.86 572.223 1452.03 581.527 1449.2 584.439C1441.69 592.171 1436.89 602.149 1429.74 609.777C1427.61 615.68 1423.1 626.289 1418.53 630.483C1417.06 630.577 1415.92 630.565 1414.47 630.298L1413.56 630.161C1403.89 626.736 1392.57 623.77 1382.45 622.128C1381.65 621.502 1380.82 620.959 1380.41 619.998C1378.66 615.804 1400.45 600.984 1402.89 596.328C1411.94 593.4 1420.68 585.24 1429.44 581.019C1436.58 577.576 1445.41 576.656 1452.11 572.57C1455.7 572.169 1458.98 571.737 1462.4 570.516Z"/>
	<path fill="#FDF9F4" d="M665.913 293.27L665.701 705.197C656.243 692.717 648.077 679.243 638.354 666.992C625.227 684.539 613.11 702.885 600.388 720.733L499.625 863.375C481.284 854.7 459.943 845.236 445.242 830.917L333.684 889.937C322.216 895.951 301.281 908.801 289.785 912.298C281.757 905.404 260.579 896.78 250.596 891.816L176.206 854.32C161.642 846.981 146.205 840.152 132.326 831.616C131.871 831.156 132.084 831.445 131.763 830.56C131.137 828.833 176.541 738.121 182.187 726.4C181.613 725.686 181.067 724.958 180.569 724.188C165.697 701.159 166.354 652.323 172.143 626.318C186.477 561.926 234.165 520.853 289.183 489.821C305.112 480.836 321.743 473.022 337.878 464.403Q367.695 448.171 396.287 429.867L396.312 425.136C408.096 417.407 421.64 411.364 434.095 404.663L505.422 365.742L521.473 373.675C528.377 366.937 569.245 350.021 580.895 344.138C609.653 329.614 640.584 313.337 665.913 293.27Z"/>
	<path fill="#FCB74F" d="M501.26 729.044L503.236 729.906C505.7 735.526 504.272 746.819 504.216 753.031C512.745 752.86 520.852 752.562 529.149 754.918L527.907 754.715L527.396 755.856C519.779 756.673 512.068 756.458 504.417 756.425Q504.548 767.397 504.079 778.359L502.186 778.248C498.938 774.069 500.62 761.939 500.777 756.464C492.932 756.455 484.366 757.308 476.677 755.507L477.431 753.417C484.383 751.724 493.444 752.811 500.62 752.887C500.608 744.979 500.272 736.898 501.26 729.044Z"/>
	<path fill="#F6823A" d="M346.852 627.376C361.57 628.161 374.633 632.168 384.703 643.579Q385.473 644.444 386.199 645.346Q386.925 646.248 387.605 647.185Q388.286 648.123 388.919 649.092Q389.552 650.062 390.136 651.062Q390.72 652.062 391.254 653.09Q391.788 654.117 392.27 655.17Q392.752 656.223 393.182 657.299Q393.611 658.375 393.987 659.47Q394.362 660.566 394.683 661.679Q395.003 662.791 395.268 663.919Q395.533 665.046 395.742 666.185Q395.951 667.324 396.103 668.473Q396.255 669.621 396.35 670.775Q396.445 671.929 396.482 673.087Q396.519 674.244 396.499 675.402Q396.479 676.56 396.402 677.716C395.705 687.94 391.279 698.239 384.778 706.119C379.829 697.984 376.165 688.507 372.04 679.872L346.852 627.376Z"/>
	<path fill="#139276" d="M396.312 425.136C408.096 417.407 421.64 411.364 434.095 404.663L505.422 365.742L521.473 373.675C553.385 389.589 586.008 405.74 616.797 423.718L616.896 526.688C616.907 540.447 618.51 558.565 616.51 571.781C598.697 580.794 579.821 589.148 562.645 599.219L559.126 600.653C548.335 606.764 536.925 612.019 525.828 617.56C519.104 620.918 511.978 625.229 504.951 627.796Q478.642 613.93 452.049 600.617L449.74 599.455C442.693 593.381 408.208 578.424 396.789 571.71C396.028 555.693 396.534 539.418 396.483 523.363L396.287 429.867L396.312 425.136Z"/>
	<path fill="#025962" d="M559.067 453.681L562.363 451.582C562.511 476.859 562.217 502.16 562.576 527.432C575.989 521.013 604.923 503.302 616.651 500.435L615.923 503.863L562.572 531.589C562.558 554.127 562.353 576.683 562.645 599.219L559.126 600.653C558.229 578.297 559.025 555.579 559.052 533.187C547.326 538.826 515.524 557.094 505.329 559.25C505.185 557.508 505.438 557.397 506.355 555.987C524.11 547.467 541.586 538.046 559.019 528.881L559.067 453.681Z"/>
	<path fill="#139276" d="M562.572 531.589L615.923 503.863C615.989 526.16 614.435 549.684 616.51 571.781C598.697 580.794 579.821 589.148 562.645 599.219C562.353 576.683 562.558 554.127 562.572 531.589Z"/>
	<path fill="#139276" d="M505.329 559.25C515.524 557.094 547.326 538.826 559.052 533.187C559.025 555.579 558.229 578.297 559.126 600.653C548.335 606.764 536.925 612.019 525.828 617.56C519.104 620.918 511.978 625.229 504.951 627.796C504.077 605.064 504.764 582.066 504.824 559.307L505.329 559.25Z"/>
	<path fill="#139276" d="M504.68 482.405C523.069 473.742 540.912 462.94 559.067 453.681L559.019 528.881C541.586 538.046 524.11 547.467 506.355 555.987L504.734 555.618L504.68 482.405Z"/>
	<path fill="#A6DDB8" d="M396.312 425.136C408.096 417.407 421.64 411.364 434.095 404.663L505.422 365.742L521.473 373.675C553.385 389.589 586.008 405.74 616.797 423.718L616.896 526.688C616.907 540.447 618.51 558.565 616.51 571.781C614.435 549.684 615.989 526.16 615.923 503.863L616.651 500.435C614.292 493.363 615.935 435.035 615.966 423.133C598.999 433.84 580.235 442.476 562.363 451.582L559.067 453.681C540.912 462.94 523.069 473.742 504.68 482.405C487.508 473.332 470.434 463.864 452.881 455.552L450.983 454.35C432.333 445.724 414.332 435.023 396.312 425.136Z"/>
	<path fill="#0C7370" d="M519.759 429.842C526.101 432.439 533.677 435.589 538.987 439.94L535.611 442.492C530.541 439.156 523.539 437.415 519.507 432.799L519.759 429.842Z"/>
	<path fill="#35BB9D" d="M447.099 430.486C453.053 433.313 462.046 436.864 466.656 441.577C467.559 443.863 468.291 444.026 470.298 445.343C470.081 445.38 469.866 445.433 469.646 445.453C464.644 445.91 453.447 439.372 449.417 436.216C447.242 434.512 447.398 433.071 447.099 430.486Z"/>
	<path fill="#139276" d="M489.809 429.738L491.35 431.614C490.959 433.94 490.276 434.308 488.402 435.606C482.954 439.379 476.192 442.271 470.298 445.343C468.291 444.026 467.559 443.863 466.656 441.577Q478.072 435.344 489.809 429.738Z"/>
	<path fill="#139276" d="M563.248 428.105C563.378 429.99 563.931 431.37 562.541 432.871C558.633 437.092 545.513 443.824 540.057 444.324C538.578 444.46 536.821 443.214 535.611 442.492L538.987 439.94C546.069 438.341 556.256 431.46 563.248 428.105Z"/>
	<path fill="#139276" d="M525.201 446.507C525.507 448.257 526.264 450.048 525.103 451.575C521.201 456.709 509.511 460.504 503.62 463.175C497.616 460.461 486.055 456.654 482.623 451.133L482.463 447.363C489.466 450.994 496.286 454.939 503.123 458.871C510.534 454.849 518.004 450.906 525.201 446.507Z"/>
	<path fill="#139276" d="M526.83 410.377C526.943 412.106 527.362 413.309 526.187 414.771C522.067 419.898 509.996 424.761 503.936 427.532C498.636 424.773 484.057 418.777 481.675 413.833L481.495 411.114C488.973 414.586 496.269 418.51 503.605 422.273C511.066 417.809 519.011 414.165 526.83 410.377Z"/>
	<path fill="#FDF9F4" d="M540.844 414.211C545.598 416.77 561.322 423.608 563.248 428.105C556.256 431.46 546.069 438.341 538.987 439.94C533.677 435.589 526.101 432.439 519.759 429.842L519.807 427.17C523.354 421.617 534.844 417.269 540.844 414.211Z"/>
	<path fill="#FDF9F4" d="M468.081 415.289C473.529 418.196 487.764 424.224 489.809 429.738Q478.072 435.344 466.656 441.577C462.046 436.864 453.053 433.313 447.099 430.486C446.46 429.508 446.456 428.825 446.406 427.676C450.815 422.479 461.992 418.387 468.081 415.289Z"/>
	<path fill="#FDF9F4" d="M504.256 432.233C510.505 436.244 521.743 439.953 525.201 446.507C518.004 450.906 510.534 454.849 503.123 458.871C496.286 454.939 489.466 450.994 482.463 447.363L482.782 445.05C487.407 439.582 497.935 435.518 504.256 432.233Z"/>
	<path fill="#FDF9F4" d="M504.185 396.207C510.094 399.921 523.806 404.466 526.83 410.377C519.011 414.165 511.066 417.809 503.605 422.273C496.269 418.51 488.973 414.586 481.495 411.114L481.226 409.541C484.43 404.045 498.169 399.088 504.185 396.207Z"/>
	<path fill="#35BB9D" d="M396.312 425.136C414.332 435.023 432.333 445.724 450.983 454.35L452.881 455.552C470.434 463.864 487.508 473.332 504.68 482.405L504.734 555.618L506.355 555.987C505.438 557.397 505.185 557.508 505.329 559.25L504.824 559.307C504.764 582.066 504.077 605.064 504.951 627.796Q478.642 613.93 452.049 600.617L449.74 599.455C442.693 593.381 408.208 578.424 396.789 571.71C396.028 555.693 396.534 539.418 396.483 523.363L396.287 429.867L396.312 425.136Z"/>
	<path fill="#0C7370" d="M450.983 454.35L452.881 455.552L452.934 527.257Q471.741 537.536 490.662 547.601C495.361 550.149 499.954 553.319 504.734 555.618L506.355 555.987C505.438 557.397 505.185 557.508 505.329 559.25L504.824 559.307C487.928 549.704 470.61 539.402 453.057 531.107C453.089 539.812 454.601 597.076 452.049 600.617L449.74 599.455C449.068 576.219 449.647 552.801 449.696 529.549L403.811 505.295C402.251 504.457 398.663 503.618 397.615 502.592C397.291 502.276 396.901 501.001 396.69 500.531L397.54 499.797C403.998 500.761 440.806 521.18 449.573 525.648C449.601 516.106 447.882 458.679 450.983 454.35Z"/>
	<path fill="#35BB9D" d="M453.057 531.107C470.61 539.402 487.928 549.704 504.824 559.307C504.764 582.066 504.077 605.064 504.951 627.796Q478.642 613.93 452.049 600.617C454.601 597.076 453.089 539.812 453.057 531.107Z"/>
	<path fill="#35BB9D" d="M452.881 455.552C470.434 463.864 487.508 473.332 504.68 482.405L504.734 555.618C499.954 553.319 495.361 550.149 490.662 547.601Q471.741 537.536 452.934 527.257L452.881 455.552Z"/>
	<path fill="#8B2D55" d="M288.998 515.432L290.264 514.327C295.953 518.606 338.574 612.203 346.852 627.376L372.04 679.872C376.165 688.507 379.829 697.984 384.778 706.119L423.021 786.181C430.125 800.991 436.717 816.903 445.242 830.917L333.684 889.937C322.216 895.951 301.281 908.801 289.785 912.298C281.757 905.404 260.579 896.78 250.596 891.816L176.206 854.32C161.642 846.981 146.205 840.152 132.326 831.616C131.871 831.156 132.084 831.445 131.763 830.56C131.137 828.833 176.541 738.121 182.187 726.4C194.168 705.506 204.028 682.739 214.89 661.185Q251.485 588.076 288.998 515.432Z"/>
	<path fill="#B0436A" d="M294.107 755.092C309.217 761.769 326.891 772.985 342.086 781.121C372.618 797.468 403.779 813.203 433.803 830.442C418.564 839.827 402.343 847.667 386.469 855.918L294.154 904.855C295.11 855 294.221 804.962 294.107 755.092Z"/>
	<path fill="#B0436A" d="M294.496 536.736C299.085 540.937 427.163 806.351 433.662 824.083C417.601 817.619 401.208 806.375 385.731 798.064C355.267 781.705 324.214 766.342 294.329 748.925Q292.936 642.828 294.496 536.736Z"/>
	<path fill="#EF7D6F" d="M288.998 515.432C288.575 519.381 287.555 524.078 288.577 527.95C289.438 581.115 288.842 634.372 288.879 687.546C288.893 708 288.269 728.669 288.963 749.102L289.012 754.213L288.952 906.009L289.785 912.298C281.757 905.404 260.579 896.78 250.596 891.816L176.206 854.32C161.642 846.981 146.205 840.152 132.326 831.616C131.871 831.156 132.084 831.445 131.763 830.56C131.137 828.833 176.541 738.121 182.187 726.4C194.168 705.506 204.028 682.739 214.89 661.185Q251.485 588.076 288.998 515.432Z"/>
	<path fill="#FDF9F4" d="M259.81 607.046C262.549 600.641 264.666 596.338 269.7 591.416L270.925 592.014C270.083 595.74 267.979 599.058 266.137 602.367Q263.609 604.862 261.203 607.474L259.81 607.046Z"/>
	<path fill="#FDF9F4" d="M212.821 696.675C213.657 697.941 214.497 698.993 214.873 700.48Q200.966 727.931 186.412 755.045C182.992 761.522 180.272 769.049 176.333 775.155C175.01 777.205 173.127 778.736 170.98 779.86L170.17 779.156C173.468 769.285 180.19 759.024 185.049 749.672C194.225 732.012 202.92 713.936 212.821 696.675Z"/>
	<path fill="#FDF9F4" d="M259.81 607.046L261.203 607.474Q263.609 604.862 266.137 602.367Q250.517 632.831 234.583 663.131C228.098 675.568 221.935 688.371 214.873 700.48C214.497 698.993 213.657 697.941 212.821 696.675C218.752 681.424 228.516 665.996 236.151 651.402C243.458 637.436 250.97 619.651 259.81 607.046Z"/>
	<path fill="#DF5753" d="M288.998 515.432C288.575 519.381 287.555 524.078 288.577 527.95C270.935 555.379 256.651 587.26 241.843 616.401Q200.121 697.471 160.574 779.623C155.56 789.916 138.392 820.446 136.764 829.245Q212.62 788.71 288.963 749.102L289.012 754.213C240.832 780.838 191.725 805.881 143.257 831.995Q192.553 856.545 241.566 881.655C257.275 889.625 274.009 896.665 288.952 906.009L289.785 912.298C281.757 905.404 260.579 896.78 250.596 891.816L176.206 854.32C161.642 846.981 146.205 840.152 132.326 831.616C131.871 831.156 132.084 831.445 131.763 830.56C131.137 828.833 176.541 738.121 182.187 726.4C194.168 705.506 204.028 682.739 214.89 661.185Q251.485 588.076 288.998 515.432Z"/>
	<path fill="#EF7D6F" d="M143.257 831.995C191.725 805.881 240.832 780.838 289.012 754.213L288.952 906.009C274.009 896.665 257.275 889.625 241.566 881.655Q192.552 856.546 143.257 831.995Z"/>
	<path fill="#FDF9F4" d="M665.734 179.539L1175.22 179.837C1177.47 184.829 1177.82 225.137 1175.95 230.229C1175.73 230.822 1175.41 231.356 1175.06 231.877L1226.72 231.954C1227.33 232.93 1227.86 233.97 1228.04 235.12C1228.76 239.875 1229.26 483.689 1227.81 489.821C1227.67 490.4 1227.46 490.961 1227.23 491.51C1229.52 498.668 1228.77 626.574 1227.12 629.905C1227.06 630.039 1226.98 630.167 1226.91 630.298C1230.92 632.633 1244.85 638.985 1246.08 642.726C1244.25 645.079 1241.52 646.344 1238.97 647.789C1204.03 667.557 1168.08 685.792 1132.8 704.975L1097.26 724.315C1091.68 727.348 1085.53 731.557 1079.56 733.5C1080.91 748.525 1081.73 885.504 1079.46 891.584C1071.46 887.468 1063.39 882.76 1054.98 879.568C1053.33 876.669 925.3 811.706 909.738 803.798Q909.658 781.981 909.905 760.165L737.581 760.191C726.514 759.759 715.287 760.1 704.206 760.1L699.176 753.417C690.566 740.985 680.815 728.811 673.277 715.723L665.701 705.197L665.913 293.27L665.734 179.539Z"/>
	<path fill="#35BB9D" d="M955.211 475.986C955.096 476.092 954.982 476.201 954.864 476.305C952.699 478.225 948.582 480.13 945.633 479.749C944.079 479.549 942.633 478.511 941.759 477.242C939.734 474.301 939.654 470.35 940.48 466.985C941.264 463.789 942.802 461.716 945.651 460.033C947.161 459.745 948.498 459.564 949.967 460.151C952.371 461.111 955.813 463.913 956.777 466.333C957.761 468.801 957.369 470.661 956.437 473.05L955.211 475.986Z"/>
	<path fill="#EF7D6F" d="M1062.4 422.864L1063.16 422.339C1070.93 416.929 1067.61 402.222 1079.9 404.193C1083 404.69 1085.24 406.223 1086.96 408.809C1088.66 411.36 1088.97 415.366 1088.25 418.346C1087.66 420.761 1086.92 421.408 1085.16 422.994C1078.22 425.196 1075.01 420.72 1070.01 421.058C1068.03 421.192 1064.98 424.865 1063.02 425.743L1062.4 422.864Z"/>
	<path fill="#FCB74F" d="M956.437 473.05C963.634 479.489 992.411 508.248 997.215 511.06C1001.43 508.642 1004.93 505.214 1010.14 506.657C1012.41 507.283 1014.27 508.872 1015.86 510.533L1017.09 513.225C1016.93 514.442 1016.79 515.719 1016.46 516.905C1015.62 519.907 1013.78 522.992 1010.87 524.37C1008.01 525.722 1004.51 525.116 1001.71 523.861C1000.49 523.317 999.64 522.628 999.206 521.322C998.598 519.499 998.156 517.659 996.962 516.099C993.11 511.065 987.296 506.471 982.654 502.107Q968.735 489.254 955.211 475.986L956.437 473.05Z"/>
	<path fill="#35BB9D" d="M1015.86 510.533Q1032.36 494.136 1049.09 477.983C1054.32 473.015 1062.54 467.128 1066.52 461.363C1067.89 459.383 1068.16 457.224 1068.18 454.866C1068.2 451.179 1068.13 448.544 1070.88 445.647C1072.57 443.869 1074.67 442.858 1077.14 442.983C1080.44 443.149 1083.41 445.099 1085.39 447.664C1086.88 449.599 1087.97 452.17 1087.58 454.652C1087.25 456.785 1085.73 458.494 1083.95 459.601C1079.63 462.273 1076.52 462.31 1071.73 461.027C1071.44 460.951 1071.16 460.868 1070.88 460.789C1053.18 478.008 1035.65 497.126 1017.09 513.225L1015.86 510.533Z"/>
	<path fill="#EF7D6F" d="M985.887 461.257C1008.65 437.05 1034.32 415.664 1057.07 391.524C1056.45 389.077 1055.59 386.16 1055.55 383.63C1055.51 381.219 1056.18 378.844 1057.92 377.106C1059.95 375.079 1062.72 374.091 1065.57 374.252C1068.44 374.414 1071.37 375.821 1073.25 377.999C1075.04 380.068 1075.79 382.618 1075.37 385.326C1075.12 386.91 1074.47 388.512 1073.56 389.832C1068.86 396.663 1063.38 390.716 1056.57 396.661C1032.91 417.342 1012.1 443.605 987.685 463.127C993.549 468.595 999.29 474.207 1005.08 479.751Q1025.23 460.275 1045.17 440.586C1050.55 435.292 1058.43 429.216 1062.4 422.864L1063.02 425.743C1062.27 428.715 1011.58 476.985 1004.87 483.547L975.895 454.517C971.32 449.958 966.416 444.097 961.15 440.412C958.706 438.701 954.292 446.8 949.431 447.42C947.445 447.673 945.642 446.938 944.057 445.795C941.709 444.102 939.72 441.523 939.36 438.601C939.008 435.74 940.063 432.945 941.965 430.822C943.868 428.698 946.583 427.33 949.465 427.38C951.744 427.419 953.813 428.344 955.542 429.791C959.87 433.411 963.408 439.129 967.337 443.301C973.191 449.516 979.729 455.322 985.887 461.257Z"/>
	<path fill="#399EC5" d="M699.176 753.417C769.393 753.462 839.698 754.367 909.903 753.514L909.905 760.165L737.581 760.191C726.514 759.759 715.287 760.1 704.206 760.1L699.176 753.417Z"/>
	<path fill="#F6823A" d="M780.024 208.627C787.99 214.788 795.079 223.669 802.053 230.948Q823.548 253.625 845.528 275.832C823.76 275.271 801.91 275.688 780.133 275.719L780.024 208.627Z"/>
	<path fill="#FCB74F" d="M777.35 207.89C778.394 215.015 777.614 223.325 777.597 230.559L777.573 275.813L711.572 275.791C711.74 272.97 771.253 213.646 777.35 207.89Z"/>
	<path fill="#FCB74F" d="M710.203 278.208C732.368 278.328 755.876 280.031 777.876 277.956C776.635 301.475 777.537 325.49 777.719 349.05L710.203 278.208Z"/>
	<path fill="#F6823A" d="M780.018 278.556C802.07 277.133 824.775 278.264 846.909 278.359L780.235 349.926Q780.369 314.24 780.018 278.556Z"/>
	<path fill="#399EC5" d="M665.734 179.539L1175.22 179.837C1177.47 184.829 1177.82 225.137 1175.95 230.229C1175.73 230.822 1175.41 231.356 1175.06 231.877L1226.72 231.954C1227.33 232.93 1227.86 233.97 1228.04 235.12C1228.76 239.875 1229.26 483.689 1227.81 489.821C1227.67 490.4 1227.46 490.961 1227.23 491.51C1229.52 498.668 1228.77 626.574 1227.12 629.905C1227.06 630.039 1226.98 630.167 1226.91 630.298C1226.68 630.2 1226.45 630.125 1226.23 630.005C1225.42 629.55 1223.81 628.519 1223.17 627.858C1219.06 623.592 1223.88 585.346 1220.88 575.992C1222.7 571.101 1222.25 272.809 1221.67 244.019C1221.64 242.311 1221.53 240.966 1220.78 239.393C1220.65 239.128 1220.52 238.867 1220.39 238.604L1175.25 238.653C1176.6 241.405 1176.54 243.8 1176.58 246.789C1177.74 334.009 1176.52 421.428 1176.54 508.669C1176.54 522.671 1178.04 592.623 1176.04 599.422C1175.86 600.06 1175.75 600.221 1175.45 600.868C1173.09 599.992 1170.41 597.787 1168.26 596.378C1168.94 594.804 1169.28 593.427 1169.35 591.722C1170.71 558.022 1169.14 523.668 1169.1 489.892L1169.33 295.22C1169.33 283.501 1170.96 194.073 1168.74 188.579C1168.49 187.967 1168.33 187.804 1167.95 187.213L673.056 186.638C674.823 301.634 673.494 416.812 673.488 531.826L673.495 653.474C673.508 674.002 674.846 695.314 673.277 715.723L665.701 705.197L665.913 293.27L665.734 179.539Z"/>
	<path fill="#87C1F2" d="M779.93 374.526C796.821 371.792 816.406 377.903 830.18 387.56Q831.641 388.587 833.049 389.685Q834.457 390.783 835.809 391.95Q837.162 393.116 838.454 394.348Q839.747 395.58 840.978 396.874Q842.208 398.169 843.373 399.522Q844.538 400.876 845.634 402.286Q846.731 403.695 847.756 405.157Q848.781 406.62 849.733 408.131Q850.685 409.642 851.561 411.198Q852.437 412.755 853.235 414.352Q854.032 415.95 854.75 417.586Q855.468 419.221 856.104 420.89Q856.74 422.559 857.293 424.257Q857.846 425.955 858.314 427.679Q858.782 429.402 859.164 431.147Q859.546 432.892 859.842 434.653C863.2 454.45 858.855 475.915 847.039 492.27C835.287 508.534 817.735 517.617 798.229 520.791C779.273 522.294 761.637 518.595 746.297 506.935C730.6 495.005 720.429 476.395 717.849 456.943Q717.601 455.093 717.444 453.233Q717.287 451.373 717.221 449.508Q717.156 447.642 717.181 445.776Q717.206 443.909 717.323 442.046Q717.439 440.183 717.647 438.328Q717.854 436.473 718.152 434.631Q718.45 432.788 718.837 430.962Q719.225 429.136 719.701 427.332Q720.177 425.527 720.741 423.748Q721.305 421.968 721.956 420.219Q722.606 418.469 723.341 416.753Q724.076 415.038 724.894 413.36Q725.712 411.682 726.61 410.046Q727.509 408.411 728.487 406.821Q729.465 405.231 730.519 403.691Q731.574 402.151 732.702 400.664C744.388 385.559 761.188 376.878 779.93 374.526Z"/>
	<path fill="#FDF9F4" d="M1175.25 238.653L1220.39 238.604C1220.52 238.867 1220.65 239.128 1220.78 239.393C1221.53 240.966 1221.64 242.311 1221.67 244.019C1222.25 272.809 1222.7 571.101 1220.88 575.992C1222.22 584.173 1222.92 619.452 1220.19 626.714C1214.42 621.691 1183.52 604.891 1175.45 600.868C1175.75 600.221 1175.86 600.06 1176.04 599.422C1178.04 592.623 1176.54 522.671 1176.54 508.669C1176.52 421.428 1177.74 334.009 1176.58 246.789C1176.54 243.8 1176.6 241.405 1175.25 238.653Z"/>
	<path fill="#35BB9D" d="M909.96 645.327Q969.961 677.219 1030.43 708.217C1046.5 716.459 1063 726.466 1079.56 733.5C1080.91 748.525 1081.73 885.504 1079.46 891.584C1071.46 887.468 1063.39 882.76 1054.98 879.568C1053.33 876.669 925.3 811.706 909.738 803.798Q909.658 781.981 909.905 760.165L909.903 753.514C908.873 739.474 909.726 724.808 909.733 710.7C890.55 710.657 725.436 712.159 721.368 709.751C741.816 708.959 762.4 709.446 782.865 709.376L909.678 709.48L909.693 661.275L780.768 661.381C766.952 661.4 732.991 663.42 721.107 660.281C743.233 658.773 765.953 659.805 788.15 659.841L909.595 659.84C910.205 654.998 910.053 650.193 909.96 645.327Z"/>
	<path fill="#A6DDB8" d="M1079.67 546.963C1089.88 550.002 1101.35 558.582 1110.68 563.964Q1139.2 580.654 1168.26 596.378C1170.41 597.787 1173.09 599.992 1175.45 600.868C1183.52 604.891 1214.42 621.691 1220.19 626.714C1222.92 619.452 1222.22 584.173 1220.88 575.992C1223.88 585.346 1219.06 623.592 1223.17 627.858C1223.81 628.519 1225.42 629.55 1226.23 630.005C1226.45 630.125 1226.68 630.2 1226.91 630.298C1230.92 632.633 1244.85 638.985 1246.08 642.726C1244.25 645.079 1241.52 646.344 1238.97 647.789C1204.03 667.557 1168.08 685.792 1132.8 704.975L1097.26 724.315C1091.68 727.348 1085.53 731.557 1079.56 733.5C1063 726.466 1046.5 716.459 1030.43 708.217Q969.96 677.219 909.96 645.327C910.053 650.193 910.205 654.998 909.595 659.84C908.786 654.929 909.181 649.505 909.145 644.518C923.283 633.935 947.544 622.243 963.556 612.567L796.444 612.596L748.437 612.622C739.312 612.626 729.534 613.309 720.515 611.963C722.741 610.498 727.922 610.35 730.673 610.283C760.293 609.559 790.191 610.415 819.841 610.41L967.629 610.43C979.601 603.826 1045.53 568.668 1050.57 562.78C1041.64 562.191 1032.33 562.719 1023.36 562.726L969.681 562.752L800.674 562.803L747.904 562.811C739.169 562.809 729.681 563.583 721.041 562.413L720.814 561.686C725.056 559.319 938.122 560.288 967.257 560.195L1023.39 560.205C1033.81 560.226 1044.73 559.563 1055.05 560.79C1063.04 557.498 1072.97 552.298 1079.67 546.963Z"/>
</svg>
