<?xml version="1.0" standalone="no"?>
<!DOCTYPE svg PUBLIC "-//W3C//DTD SVG 20010904//EN"
 "http://www.w3.org/TR/2001/REC-SVG-20010904/DTD/svg10.dtd">
<svg version="1.0" xmlns="http://www.w3.org/2000/svg"
 width="468pt" height="98pt" viewBox="0 0 468 98"
 preserveAspectRatio="xMidYMid meet">
<metadata>
Created by potrace 1.8, written by Peter Selinger 2001-2007
</metadata>
<g transform="translate(0,98) scale(0.079188,-0.079188)"
fill="#000000" stroke="none">
<path d="M32 1208 c-16 -20 -18 -1166 -2 -1182 8 -8 807 -10 2933 -7 1607 2
2925 5 2930 8 11 7 9 1171 -3 1178 -5 3 -1323 8 -2927 12 -2539 5 -2920 4
-2931 -9z m5016 -23 c-7 -7 -4969 -7 -4976 0 -3 3 1117 5 2488 5 1371 0 2491
-2 2488 -5z m820 -10 c10 -10 9 -1112 -1 -1122 -8 -8 -4611 -21 -5429 -15
l-398 2 1 383 c1 210 5 465 9 567 5 133 7 31 8 -369 0 -304 3 -555 5 -558 7
-6 5778 -4 5788 3 5 3 9 250 9 548 l0 544 -31 6 c-17 3 -177 6 -355 6 -237 0
-324 3 -324 11 0 9 92 11 356 6 195 -3 358 -8 362 -12z m-5048 -36 c0 -6 -13
-16 -30 -22 -40 -15 -38 -23 8 -31 88 -14 210 1 272 34 19 10 21 9 18 -6 -6
-32 -54 -57 -120 -62 l-63 -5 34 -12 c51 -17 55 -40 5 -31 -22 4 -54 10 -72
13 -19 2 -59 16 -90 30 -47 21 -78 26 -178 30 -105 5 -131 3 -191 -15 -39 -12
-76 -29 -83 -37 -16 -19 3 -20 23 -1 8 8 50 19 93 25 169 23 309 -34 400 -163
12 -18 23 -26 27 -19 6 10 -44 86 -73 111 -8 7 -37 26 -65 42 -27 16 -42 30
-33 30 32 0 116 -39 183 -85 36 -25 69 -45 71 -45 11 0 84 -65 84 -75 1 -12
50 -73 50 -62 0 18 -31 66 -55 85 -14 11 -25 24 -25 28 -1 5 -21 25 -45 43
-49 39 -51 61 -3 34 49 -28 203 -179 245 -239 62 -91 113 -178 113 -195 0 -22
-35 -51 -56 -47 -13 2 -22 19 -30 58 -6 30 -15 64 -19 75 -12 35 -58 119 -72
133 -7 7 -13 18 -13 23 0 5 -8 9 -17 9 -16 -1 -16 -2 -2 -13 28 -21 67 -101
74 -149 9 -61 -1 -79 -27 -47 -37 46 -58 84 -58 106 0 28 -20 73 -33 73 -6 0
-6 -5 1 -12 5 -7 13 -27 16 -45 8 -34 -7 -52 -28 -34 -10 9 -14 -5 -19 -72
-11 -162 -44 -225 -102 -199 -28 13 -31 28 -13 67 11 26 41 34 54 14 15 -25
27 15 33 113 4 69 10 102 18 101 11 -2 10 5 -25 106 -19 57 -78 123 -106 119
-29 -4 -26 -20 6 -36 33 -16 68 -58 68 -83 0 -25 -8 -24 -39 4 -21 18 -23 18
-10 2 17 -21 39 -79 39 -101 0 -46 -90 37 -100 92 -6 31 -8 34 -9 12 -2 -45
-25 -32 -62 33 -19 34 -53 79 -77 100 -90 79 -234 98 -360 48 -29 -12 -34 -11
-53 8 -27 26 -20 38 39 65 78 35 140 48 290 58 79 5 151 14 160 20 22 13 32
12 32 -1z m522 -14 c21 -18 36 -23 54 -19 27 7 32 -7 9 -26 -9 -7 -26 -9 -47
-5 l-32 8 27 -36 c32 -42 34 -57 7 -57 -21 0 -43 18 -72 60 l-18 25 6 -26 c7
-35 -10 -45 -30 -18 -11 16 -22 20 -45 17 -23 -3 -31 -1 -31 10 0 37 94 58
120 27 15 -18 30 -20 30 -4 0 6 -9 13 -20 16 -23 6 -26 23 -8 41 16 16 15 16
50 -13z m1158 15 c-8 -5 -22 -9 -30 -9 -10 0 -8 3 5 9 27 12 43 12 25 0z m83
-1 c71 -19 112 -89 88 -152 -22 -57 -111 -60 -111 -3 0 32 20 44 27 17 10 -40
53 -17 53 30 0 35 -33 75 -75 90 -19 7 -35 17 -35 21 0 10 7 10 53 -3z m2047
-12 c0 -20 4 -23 29 -19 23 3 36 -3 56 -23 23 -22 26 -32 21 -63 -4 -20 -16
-45 -27 -54 -21 -18 -21 -18 5 -28 14 -5 26 -12 26 -15 0 -13 -73 -35 -117
-35 -91 0 -181 33 -241 89 -38 35 -28 40 26 12 65 -33 145 -50 196 -40 52 10
86 28 86 47 0 8 9 16 20 19 16 4 18 8 9 19 -17 21 -50 17 -56 -6 -3 -11 -10
-20 -15 -20 -5 0 -12 9 -15 20 -6 23 -23 27 -23 6 0 -39 -65 -61 -90 -31 -8 9
-8 15 -2 15 13 0 42 28 42 41 0 5 -8 9 -18 9 -21 0 -42 19 -42 38 0 8 7 11 19
7 11 -3 28 3 42 14 34 29 69 27 69 -2z m198 3 c34 -25 122 -50 178 -50 69 0
164 12 164 21 0 5 -9 9 -19 9 -27 0 -51 10 -51 22 0 6 8 7 18 3 9 -4 87 -11
172 -15 85 -5 176 -16 201 -24 60 -19 122 -50 139 -71 12 -14 15 -14 37 6 32
31 31 69 -3 69 -14 0 -23 4 -19 10 3 6 22 10 40 10 72 0 65 -61 -18 -151 -60
-66 -144 -88 -161 -43 -8 20 8 51 18 35 8 -13 45 -14 65 -2 38 25 -140 73
-221 60 -93 -15 -190 -69 -215 -121 -6 -12 -21 -44 -33 -70 -19 -42 -50 -65
-50 -38 0 19 -19 10 -26 -12 -3 -13 -26 -43 -50 -66 l-44 -44 0 36 c0 25 9 45
31 71 21 24 26 35 16 35 -8 0 -20 -7 -27 -15 -18 -21 -30 -19 -30 6 0 12 16
37 35 56 34 34 55 37 55 7 0 -25 17 -15 33 19 22 46 72 90 152 133 66 36 74
38 160 39 49 0 108 -3 130 -7 30 -6 34 -5 17 2 -82 35 -293 27 -407 -15 -38
-14 -71 -22 -73 -17 -2 6 -19 6 -42 0 -22 -6 -48 -7 -57 -3 -17 6 -17 7 1 21
18 13 17 14 -20 14 -53 0 -105 30 -121 69 -15 36 -12 38 25 11z m-1483 -3
c-10 -7 -32 -25 -48 -40 -25 -23 -28 -33 -23 -60 9 -46 23 -55 42 -29 13 18
19 21 30 11 19 -16 18 -33 -6 -54 -45 -41 -107 14 -97 86 8 59 48 98 102 98
20 0 20 0 0 -12z m-3095 -12 l25 -14 -27 -1 c-43 0 -36 -33 19 -91 60 -64 95
-84 124 -69 18 10 20 9 17 -12 -7 -52 -90 -29 -156 44 -68 75 -86 120 -60 146
15 15 27 15 58 -3z m1710 6 c0 -4 -30 -13 -67 -19 -64 -11 -109 -32 -68 -32
13 0 4 -11 -29 -37 -26 -20 -59 -57 -73 -82 -29 -50 -49 -71 -71 -71 -10 0
-13 9 -10 31 l5 31 -24 -30 c-22 -28 -111 -87 -120 -79 -6 7 15 53 32 70 15
16 15 17 -4 17 -27 0 -26 8 1 37 29 31 4 30 -34 -2 -60 -51 -205 -78 -290 -54
-45 12 -48 26 -12 40 25 9 26 11 10 28 -17 19 -22 51 -8 51 5 0 14 -11 19 -23
8 -17 27 -28 70 -40 55 -16 62 -15 128 2 39 10 86 26 106 34 20 9 39 14 42 11
10 -10 47 7 47 21 0 17 15 25 100 56 107 38 250 61 250 40z m175 -6 c33 -9 97
-34 143 -57 86 -42 108 -67 90 -102 -8 -14 -3 -25 22 -51 27 -28 30 -36 21
-53 -6 -11 -11 -32 -11 -47 0 -30 36 -51 72 -42 26 7 78 83 78 115 0 26 -25
52 -51 52 -11 0 -38 17 -62 38 -23 21 -50 42 -59 45 -30 11 -21 44 15 61 88
41 152 41 195 3 30 -28 28 -37 -12 -37 -36 0 -46 -12 -46 -59 0 -30 22 -55 56
-65 12 -4 50 3 85 14 37 11 92 20 130 20 47 0 70 4 79 15 9 10 32 15 75 15 43
0 66 -5 75 -15 9 -11 32 -15 82 -15 42 0 97 -8 138 -21 57 -17 73 -18 92 -8
31 16 38 28 38 65 0 37 -16 54 -52 54 -31 0 -34 7 -15 31 33 43 106 51 173 18
73 -35 73 -41 7 -103 -32 -31 -67 -55 -77 -56 -27 0 -56 -29 -56 -54 0 -28 33
-81 64 -101 55 -37 110 10 79 68 -14 28 -14 30 18 63 18 19 28 34 21 34 -18 0
-88 -71 -96 -98 -8 -26 -29 -25 -34 1 -4 21 109 142 118 127 5 -7 11 -6 19 4
7 8 10 19 7 24 -13 21 82 80 173 108 25 8 77 17 115 21 62 5 69 4 63 -10 -5
-13 -1 -17 18 -17 16 0 25 -6 25 -15 0 -10 10 -15 29 -15 72 0 107 -39 45 -50
-28 -5 -28 -6 19 -24 45 -17 87 -59 73 -73 -3 -3 -17 -1 -31 5 -14 7 -39 12
-56 12 -37 0 -76 20 -108 54 -14 14 -32 26 -40 26 -10 0 -4 -9 17 -26 35 -28
42 -54 15 -54 -10 0 -43 13 -73 29 -70 36 -113 44 -180 31 -55 -10 -104 -40
-67 -40 17 0 26 -22 30 -75 2 -25 -2 -30 -23 -33 -30 -4 -50 -27 -50 -57 0
-55 94 -84 143 -45 25 20 28 28 25 69 -3 46 -3 46 30 49 29 3 41 -4 83 -46 47
-47 49 -51 49 -106 0 -53 -1 -56 -25 -56 -36 0 -48 -38 -40 -135 5 -71 3 -83
-14 -103 -29 -34 -65 -27 -66 13 0 25 -4 30 -25 30 -20 0 -26 -6 -28 -28 -5
-38 14 -57 55 -57 46 0 92 25 104 57 5 14 8 58 7 98 -4 97 17 123 29 35 9 -65
28 -42 30 37 2 89 37 163 64 136 15 -15 21 -96 10 -127 -9 -22 -14 -26 -25
-17 -12 10 -15 1 -21 -49 -4 -33 -11 -63 -16 -66 -5 -3 -9 -12 -9 -21 0 -22
-58 -91 -91 -108 -75 -39 -159 -3 -159 69 0 19 -4 37 -8 40 -20 12 -85 -19
-103 -49 -25 -40 -24 -42 15 -59 37 -15 56 -41 56 -75 0 -30 -10 -26 -58 21
-59 57 -75 89 -61 125 33 88 -73 116 -128 34 -13 -19 -23 -44 -23 -57 0 -24
33 -54 60 -54 9 0 42 -27 75 -60 33 -33 66 -60 75 -60 26 0 42 -36 28 -60 -7
-11 -16 -20 -20 -20 -3 0 -14 -8 -23 -17 -39 -39 -159 -47 -199 -14 -42 35
-18 115 32 109 21 -2 28 -9 30 -32 3 -20 0 -27 -10 -24 -7 3 -13 11 -13 19 0
22 -30 16 -33 -7 -3 -23 37 -50 62 -41 43 17 26 100 -26 125 -31 14 -228 42
-304 42 -57 0 -70 10 -80 60 -7 31 6 51 29 47 4 -1 12 5 17 13 8 12 13 13 27
2 10 -7 33 -19 51 -27 42 -20 73 -6 166 75 112 98 217 119 359 73 57 -18 67
-12 45 25 -28 46 -60 63 -129 69 -35 3 -69 10 -76 15 -6 5 -32 6 -57 3 -58 -9
-76 4 -76 57 0 32 -7 47 -35 75 -19 19 -35 42 -35 51 0 17 -28 52 -42 52 -4 0
-8 -12 -8 -26 0 -19 -4 -24 -17 -20 -131 37 -315 40 -506 10 -33 -5 -41 -3
-54 16 -15 22 -17 22 -30 5 -7 -11 -13 -25 -13 -33 0 -8 -16 -32 -35 -55 -19
-22 -35 -47 -35 -55 0 -8 -7 -29 -16 -47 -15 -33 -16 -33 -70 -28 -37 4 -54 2
-54 -6 0 -7 -21 -11 -59 -11 -60 0 -111 -23 -135 -62 -20 -33 5 -38 89 -18 82
19 108 18 184 -6 64 -21 78 -30 152 -100 76 -71 106 -80 153 -43 25 20 29 20
64 6 51 -20 60 -38 40 -80 l-16 -34 -99 -6 c-128 -8 -252 -32 -283 -55 -28
-21 -37 -61 -20 -92 13 -24 37 -26 62 -3 21 19 23 36 5 51 -15 13 -43 -1 -33
-16 3 -6 2 -13 -3 -16 -16 -10 -23 12 -11 34 22 41 80 13 80 -38 0 -70 -97
-94 -187 -47 -66 36 -85 55 -80 82 3 16 1 20 -7 14 -23 -18 -127 -51 -213 -67
-76 -14 -101 -15 -185 -4 -131 16 -130 35 1 26 80 -6 118 -3 201 14 103 21
179 50 201 76 6 8 17 14 24 14 6 0 20 9 30 20 10 11 22 20 27 20 17 0 7 -19
-29 -55 -34 -34 -36 -37 -13 -31 14 4 50 34 81 67 31 32 65 59 75 59 37 0 47
15 41 60 -7 52 -31 79 -80 87 -55 9 -66 -6 -64 -84 2 -53 -1 -66 -16 -74 -10
-6 -32 -26 -49 -45 -37 -40 -48 -43 -48 -11 0 34 28 67 56 67 28 0 31 18 9 61
-23 43 -105 68 -118 37 -4 -10 -8 -10 -15 0 -16 24 -47 10 -47 -21 1 -24 -3
-27 -32 -27 -43 0 -57 32 -49 116 6 77 -9 124 -41 124 -44 0 -42 88 4 148 28
37 103 78 127 69 13 -5 13 -11 5 -37 -13 -36 6 -74 46 -92 38 -17 103 5 116
40 13 35 -2 69 -36 78 -21 5 -25 12 -25 43 0 51 11 64 46 55 19 -4 26 -3 19 3
-14 14 -130 53 -158 53 -38 0 -93 -19 -131 -45 -20 -14 -51 -25 -68 -25 -26 0
-30 3 -25 20 5 20 5 20 -26 1 -38 -22 -147 -34 -147 -16 0 18 22 34 77 55 l48
19 -37 1 c-21 0 -38 4 -38 8 0 19 27 32 67 32 36 0 43 3 43 20 0 14 7 20 23
21 12 0 16 3 8 6 -11 5 -11 7 0 14 21 13 78 11 144 -6z m1985 -4 c99 -24 154
-53 218 -115 54 -53 67 -82 32 -73 -16 4 -13 -3 15 -31 34 -35 45 -62 26 -62
-6 0 -12 4 -15 9 -3 4 -20 11 -37 15 -17 3 -44 20 -60 37 -26 28 -29 29 -29
10 0 -12 -6 -21 -14 -21 -15 0 -66 55 -66 71 0 18 -74 91 -113 110 -40 21 -44
40 -4 22 12 -6 40 -16 62 -23 52 -17 106 -58 103 -79 -2 -10 4 -16 17 -17 11
0 28 -3 38 -7 36 -15 48 -16 42 -7 -3 6 -13 10 -22 10 -8 0 -38 21 -67 46 -28
26 -62 51 -76 57 -14 5 -38 16 -55 23 -16 7 -56 15 -87 19 -32 4 -58 11 -58
16 0 15 70 10 150 -10z m-1261 -22 c11 -16 26 -19 103 -19 81 0 90 2 95 20 5
18 14 20 88 20 76 0 83 -2 78 -18 -3 -12 -14 -19 -31 -19 -15 0 -40 -6 -56
-12 -26 -10 -28 -15 -23 -46 5 -33 4 -35 -22 -35 -16 0 -34 7 -41 15 -17 21
-168 21 -196 0 -22 -16 -74 -20 -74 -5 0 6 5 10 10 10 6 0 10 13 10 30 0 26
-5 30 -42 40 -74 19 -78 21 -78 34 0 10 20 12 83 8 66 -3 85 -8 96 -23z m-979
-9 c0 -5 -7 -10 -15 -10 -8 0 -15 5 -15 10 0 6 7 10 15 10 8 0 15 -4 15 -10z
m3219 -119 c-35 -35 -47 -41 -70 -36 -23 5 -33 -1 -70 -44 -39 -45 -77 -128
-78 -172 -1 -16 -38 -56 -45 -48 -1 2 -8 13 -14 24 -10 18 -11 18 -18 -10 -4
-17 -20 -46 -36 -65 -15 -19 -28 -43 -28 -53 0 -11 -5 -15 -11 -11 -7 4 -10
27 -7 61 6 70 -9 65 -37 -13 -12 -32 -27 -69 -34 -82 -11 -21 -14 -22 -34 -9
-31 20 -32 48 -2 101 97 174 218 302 352 374 24 12 43 19 43 14 0 -10 -56 -52
-69 -52 -11 0 -121 -132 -121 -146 0 -5 21 15 46 44 25 28 50 52 55 52 6 0 27
13 47 30 48 38 166 102 170 91 1 -4 -16 -27 -39 -50z m-1919 19 c0 -5 -2 -10
-4 -10 -3 0 -8 5 -11 10 -3 6 -1 10 4 10 6 0 11 -4 11 -10z m2550 -10 c0 -5
-8 -10 -17 -10 -15 -1 -15 -4 5 -20 20 -16 21 -22 10 -39 -15 -25 -69 -28 -88
-6 -11 13 -7 21 26 50 39 34 64 44 64 25z m-5470 -29 l39 -28 -25 -12 c-14 -6
-34 -11 -44 -11 -21 0 -60 33 -60 51 0 6 9 8 20 4 14 -5 20 -2 20 9 0 22 4 20
50 -13z m264 7 c20 -28 5 -48 -35 -48 -38 0 -45 17 -18 46 28 30 34 30 53 2z
m4786 12 c0 -28 86 -100 164 -138 89 -44 136 -88 136 -128 0 -36 -18 -64 -40
-64 -10 0 -20 -6 -23 -12 -2 -7 -8 -9 -13 -5 -5 5 -1 15 10 23 19 14 19 14 -3
14 -12 0 -32 11 -45 25 -27 29 -36 31 -36 9 0 -15 -2 -15 -25 0 -40 26 -175
17 -175 -12 0 -11 8 -13 40 -8 37 6 41 4 50 -19 10 -25 33 -35 85 -35 99 -1
174 -13 190 -30 34 -37 -7 -69 -43 -34 -13 13 -17 14 -21 3 -2 -7 1 -15 8 -17
17 -6 13 -42 -5 -49 -17 -6 -63 41 -64 65 0 17 -14 15 -32 -5 -31 -37 -30 -42
11 -59 23 -9 41 -22 41 -30 0 -19 -33 -35 -51 -23 -7 5 -28 9 -46 9 -17 0 -35
5 -39 11 -13 22 -72 39 -98 29 -16 -6 -27 -6 -31 0 -8 13 30 44 62 50 39 7 34
23 -14 40 -35 12 -42 18 -37 33 5 15 2 18 -14 13 -11 -4 -23 -2 -27 4 -3 5 -1
10 4 10 6 0 11 7 11 15 0 11 -5 12 -26 5 -37 -15 -54 -12 -54 8 0 14 -2 15
-10 2 -16 -24 -12 -38 12 -42 13 -2 25 -14 30 -29 7 -22 3 -31 -27 -63 -19
-21 -35 -43 -35 -50 0 -17 -38 -66 -51 -66 -5 0 -14 10 -19 23 -8 20 -9 21 -9
2 -1 -26 27 -67 40 -60 5 4 9 15 9 26 0 38 17 18 18 -22 1 -22 5 -45 8 -51 3
-5 -3 -12 -15 -15 -25 -6 -27 -16 -5 -34 13 -10 17 -10 24 1 7 11 18 4 49 -32
24 -27 61 -54 91 -67 60 -26 67 -46 12 -39 -55 8 -130 45 -164 81 -96 104
-114 309 -37 428 17 27 35 49 40 49 5 0 18 8 28 17 28 24 110 53 149 53 18 0
47 -7 64 -16 25 -13 36 -14 51 -5 24 15 34 7 17 -14 -10 -13 -9 -15 8 -15 12
0 23 4 26 9 13 20 -7 39 -52 51 -75 19 -102 31 -113 51 -8 17 -6 19 21 19 l31
0 -26 23 c-27 23 -47 97 -26 97 6 0 11 -5 11 -10z m-5160 -23 c0 -30 37 -65
78 -73 39 -8 37 -28 -2 -32 -22 -3 -35 4 -57 30 -34 38 -52 75 -43 89 10 17
24 9 24 -14z m460 -4 c0 -14 -12 -41 -26 -60 l-26 -34 26 7 c15 4 26 2 26 -4
0 -18 -50 -51 -86 -58 -19 -3 -37 -10 -40 -16 -3 -5 -14 -6 -25 -3 -27 9 -25
-29 3 -49 18 -13 19 -18 8 -31 -10 -12 -16 -13 -27 -4 -11 10 -18 7 -35 -10
-12 -14 -28 -21 -39 -18 -21 6 -26 -8 -6 -16 6 -3 2 -6 -10 -6 -32 -1 -55 37
-47 78 6 28 65 91 86 91 4 0 35 16 70 36 70 41 128 91 128 111 0 7 5 13 10 13
6 0 10 -12 10 -27z m1843 -21 c34 -43 48 -82 30 -82 -11 0 -103 107 -103 119
0 26 38 6 73 -37z m3333 33 c3 -8 1 -28 -4 -45 -6 -16 -7 -30 -3 -30 16 0 45
-175 45 -270 0 -72 -6 -111 -23 -163 -27 -81 -68 -156 -88 -164 -13 -5 -13 -7
0 -15 33 -18 77 31 77 87 0 14 5 25 10 25 15 0 12 -46 -5 -87 -9 -20 -14 -51
-13 -68 2 -39 -34 -92 -68 -101 -35 -9 -70 18 -100 77 -26 53 -64 185 -64 226
0 40 18 16 30 -40 23 -108 30 -127 49 -127 18 0 18 2 3 44 -16 42 -15 46 3 66
20 22 65 24 72 3 3 -7 -4 -9 -18 -6 -36 10 -52 -21 -31 -63 15 -33 37 -49 26
-19 -4 8 8 37 25 64 37 58 49 93 61 181 11 83 -1 146 -45 236 -26 54 -41 73
-60 78 -40 10 -32 36 12 34 39 -1 73 27 73 61 0 31 26 43 36 16z m-1318 -58
c82 -87 101 -277 27 -277 -30 0 -49 32 -40 67 5 22 10 25 37 19 30 -6 30 -6
23 30 -9 49 -48 136 -68 153 -18 14 -22 31 -9 31 5 0 18 -10 30 -23z m-2988 9
c0 -3 -14 -27 -31 -55 -20 -32 -34 -69 -37 -99 -4 -46 -3 -49 19 -48 32 1 37
-32 10 -65 -16 -20 -23 -22 -38 -13 -42 25 -20 190 33 253 22 27 44 40 44 27z
m390 -32 c13 -33 13 -76 0 -109 -9 -23 -13 -25 -25 -15 -8 7 -15 21 -15 31 0
23 -4 23 -36 3 -51 -34 -43 23 11 79 43 44 52 45 65 11z m2236 -10 c36 -40 56
-85 45 -103 -5 -8 -15 -3 -30 13 l-23 25 -23 -27 -23 -27 -11 28 c-12 31 -14
86 -5 111 10 26 34 19 70 -20z m-3939 -14 c14 -11 32 -20 40 -20 8 0 13 -3 11
-7 -73 -146 -73 -145 -72 -238 1 -108 21 -184 66 -244 30 -41 32 -43 41 -23
13 29 2 52 -24 52 -18 0 -19 2 -9 15 42 50 79 -33 45 -99 -8 -15 -15 -29 -15
-30 0 0 11 -2 25 -2 26 -2 33 13 51 104 4 18 10 32 15 32 15 0 10 -44 -11
-112 -24 -75 -23 -73 -7 -60 13 11 107 9 126 -3 6 -3 11 -18 11 -33 0 -17 10
-34 28 -48 15 -12 24 -25 20 -29 -18 -19 -188 46 -195 74 -4 16 -8 14 -33 -11
-35 -34 -99 -42 -127 -15 -17 17 -29 77 -15 77 6 0 12 -12 14 -27 6 -52 80
-62 115 -16 10 13 8 20 -12 39 -15 14 -32 20 -44 17 -40 -10 -66 5 -89 52 -12
25 -22 52 -22 60 0 28 15 15 33 -29 10 -25 25 -50 32 -56 16 -13 75 -4 75 10
0 5 -7 7 -15 4 -38 -15 -82 64 -120 216 -21 80 -18 162 7 272 13 54 25 98 26
98 2 0 15 -9 29 -20z m2548 -118 c15 -19 51 -47 80 -63 76 -43 101 -73 89
-107 -7 -21 -18 -28 -44 -32 -27 -4 -41 -14 -59 -43 -31 -47 -50 -45 -125 17
-30 24 -81 56 -114 72 -42 20 -61 36 -65 52 -6 33 13 28 71 -18 27 -22 55 -40
61 -40 18 0 13 18 -10 34 -25 17 -53 55 -46 62 15 15 147 -84 147 -110 0 -14
31 -46 46 -46 7 0 14 10 16 23 2 14 11 23 26 25 43 6 20 35 -46 57 -34 11 -71
28 -82 38 -24 20 -27 52 -5 43 8 -3 22 -9 30 -12 23 -9 18 7 -15 50 -23 31
-30 50 -30 85 l0 46 24 -50 c12 -27 36 -65 51 -83z m551 54 c-4 -18 -23 -52
-43 -76 l-37 -43 29 7 c16 4 32 8 35 9 3 1 7 -2 9 -8 5 -15 -37 -43 -99 -64
-62 -22 -73 -37 -37 -50 20 -8 24 -15 19 -36 -8 -43 28 -28 64 27 17 26 42 56
56 67 27 22 78 44 85 38 6 -6 -24 -59 -39 -68 -7 -4 -9 -11 -5 -15 4 -4 20 3
35 17 26 24 84 59 96 59 3 0 6 -9 6 -19 0 -14 -17 -27 -57 -46 -32 -14 -60
-26 -63 -27 -3 0 -28 -22 -56 -48 -33 -32 -64 -51 -87 -55 -44 -9 -54 -3 -62
35 -5 21 -14 32 -31 35 -13 3 -35 7 -48 10 -57 12 -29 64 69 127 57 37 113 95
137 142 23 44 34 35 24 -18z m-413 16 c29 -18 36 -42 12 -42 -8 0 -15 -7 -15
-15 0 -24 -20 -17 -56 19 -45 45 -46 70 -1 61 17 -4 44 -15 60 -23z m627 24
c0 -3 -4 -8 -10 -11 -5 -3 -10 -1 -10 4 0 6 5 11 10 11 6 0 10 -2 10 -4z
m-350 -17 c0 -20 -41 -79 -55 -79 -7 0 -15 7 -19 15 -3 8 -12 15 -21 15 -25 0
-17 19 18 40 35 22 77 26 77 9z m-2415 -69 c22 -10 57 -35 77 -55 29 -29 34
-40 25 -50 -10 -11 -15 -11 -27 1 -14 12 -15 9 -12 -21 5 -39 -3 -43 -36 -19
l-23 16 20 15 c26 17 26 22 0 53 l-20 25 3 -25 c3 -22 0 -25 -27 -22 -24 3
-28 1 -17 -9 23 -24 14 -42 -19 -37 l-31 5 23 -18 c13 -10 35 -19 48 -19 30 0
71 -37 71 -63 0 -16 -6 -14 -39 16 -44 40 -92 54 -134 38 -30 -12 -36 -31 -9
-31 24 0 62 -28 62 -46 0 -11 -4 -12 -19 -4 -32 16 -61 12 -93 -15 -16 -14
-42 -25 -56 -25 -15 0 -33 -4 -41 -9 -20 -13 -41 -2 -41 20 0 13 12 21 40 29
39 11 57 40 24 40 -9 0 -18 9 -21 20 -8 31 -27 24 -53 -20 -27 -43 -41 -48
-60 -25 -10 13 -10 19 4 33 20 23 20 32 2 32 -8 0 -16 -7 -20 -15 -7 -18 -33
-20 -39 -2 -5 16 13 57 27 59 20 3 141 8 185 8 48 0 68 12 82 48 9 23 11 24
28 8 21 -19 51 -21 51 -3 0 21 -45 37 -101 37 -63 0 -62 17 2 42 50 20 102 16
164 -12z m1106 -31 c-3 -57 -16 -84 -27 -56 -3 9 -3 36 0 59 3 24 5 47 5 51 1
5 6 7 13 5 8 -3 11 -23 9 -59z m156 19 c9 -18 19 -64 22 -103 5 -53 10 -70 21
-70 10 0 16 12 18 33 2 17 7 32 13 32 9 0 12 -22 13 -117 1 -61 30 -99 82
-109 31 -6 72 8 86 30 4 6 9 8 12 5 10 -10 -39 -60 -64 -65 -99 -20 -195 81
-208 218 -2 32 -9 58 -13 58 -5 0 -9 -7 -9 -16 0 -9 -6 -14 -12 -12 -16 6 -22
49 -13 105 8 52 28 56 52 11z m2139 17 c8 -21 -5 -105 -17 -105 -5 0 -9 27 -9
60 0 57 13 79 26 45z m-1201 -57 c14 -29 25 -60 25 -68 1 -8 12 5 25 30 33 61
62 96 71 87 5 -4 3 -16 -4 -25 -53 -76 -67 -109 -70 -174 -3 -46 -8 -68 -17
-68 -8 0 -14 24 -17 73 -3 50 -13 91 -31 131 -31 67 -31 66 -17 66 6 0 22 -24
35 -52z m-1133 -35 c15 -15 26 -30 25 -33 -1 -3 13 -30 30 -61 30 -53 74 -99
94 -99 21 0 6 40 -21 60 -37 26 -60 69 -60 110 0 43 25 38 46 -10 10 -21 24
-41 32 -42 15 -3 42 -76 42 -115 0 -27 -25 -53 -52 -53 -13 0 -56 35 -112 91
-101 102 -185 153 -237 142 -41 -8 -37 15 5 32 52 22 99 9 148 -39 23 -23 36
-32 29 -19 -6 12 -16 25 -21 28 -6 3 -10 17 -10 31 0 20 3 23 18 15 9 -5 29
-22 44 -38z m2585 15 c34 -32 28 -40 -22 -32 -25 3 -60 3 -80 0 -48 -9 -125
-73 -176 -146 -44 -64 -69 -80 -118 -80 -20 0 -30 6 -34 20 -9 36 24 136 50
153 7 4 13 12 13 18 0 17 38 51 49 44 28 -17 1 -87 -48 -123 -17 -12 -31 -29
-31 -37 0 -45 89 22 109 82 19 58 64 118 90 121 20 3 23 0 18 -17 -6 -24 0
-26 22 -7 46 39 118 41 158 4z m524 -67 c-2 -64 17 -141 35 -141 3 0 4 6 1 14
-3 8 1 20 9 26 11 10 19 9 40 -4 20 -14 25 -24 22 -49 -3 -27 -8 -33 -32 -35
-62 -7 -114 93 -102 196 12 101 30 96 27 -7z m-2491 29 c11 -7 -1 -9 -40 -9
-42 1 -49 3 -30 9 35 11 53 11 70 0z m1169 -4 c-9 -8 -98 -13 -93 -5 3 5 26 9
51 9 26 0 44 -2 42 -4z m2147 -63 c-4 -34 -1 -57 9 -77 18 -33 18 -36 5 -36
-21 0 -42 62 -36 103 4 22 9 44 12 49 12 19 16 5 10 -39z m-4847 -28 c43 -179
-81 -373 -242 -378 -67 -3 -70 16 -5 33 39 10 63 24 95 58 40 41 45 43 56 28
12 -16 14 -16 32 5 11 12 15 20 9 16 -20 -11 -46 28 -38 57 7 29 26 46 32 28
7 -21 32 -13 42 14 13 34 13 39 -4 25 -12 -10 -20 -9 -40 4 -14 10 -26 21 -26
25 0 5 -3 17 -7 27 -6 17 -6 17 14 1 11 -10 28 -18 38 -18 14 0 16 6 12 30 -5
23 -3 30 9 30 9 0 14 6 12 13 -7 20 -33 13 -36 -10 -4 -26 -30 -31 -38 -8 -4
8 0 23 7 32 8 9 13 25 11 35 -3 16 2 19 25 16 25 -3 29 -9 42 -63z m3587 36
c17 -10 48 -40 69 -65 20 -25 45 -46 53 -46 11 0 4 11 -20 34 -20 19 -39 43
-42 54 -6 17 -3 19 16 15 29 -7 76 -51 143 -133 78 -95 97 -115 123 -129 30
-16 28 -1 -4 24 -29 23 -44 99 -26 131 10 18 11 18 18 -1 4 -11 22 -41 41 -66
18 -26 33 -54 33 -62 0 -23 21 -67 32 -67 5 0 2 10 -6 22 -21 29 -21 68 -1 68
8 0 24 -15 34 -32 55 -94 65 -106 119 -135 90 -48 164 -67 236 -59 45 5 67 12
85 30 27 27 21 46 -14 46 -32 0 -76 21 -72 34 2 6 17 13 33 16 27 6 26 6 -14
13 -49 8 -82 26 -82 44 0 7 9 13 21 13 l20 0 -20 26 c-21 27 -29 94 -12 94 5
0 14 -15 21 -34 14 -43 34 -61 112 -100 104 -53 116 -119 32 -175 -64 -42
-167 -51 -294 -25 -104 20 -288 133 -438 268 -40 36 -79 66 -87 66 -8 0 -15 4
-15 8 0 11 -113 58 -155 65 -77 13 -148 -22 -157 -78 -3 -17 2 -20 29 -17 41
4 55 -30 25 -61 -20 -20 -21 -20 -54 0 -42 24 -51 80 -19 112 26 26 26 31 1
31 -27 0 -25 8 8 37 33 29 63 37 102 29 22 -4 30 -2 30 9 0 22 58 19 96 -4z
m-4224 -27 c-4 -39 -22 -84 -34 -84 -6 0 -8 10 -4 23 3 12 9 39 12 60 8 44 30
45 26 1z m1318 27 c0 -5 -6 -12 -12 -14 -7 -3 14 -3 47 -1 50 4 67 1 100 -18
42 -25 46 -44 8 -41 -13 1 -23 -2 -23 -8 0 -5 4 -9 9 -9 14 0 33 -57 26 -80
-4 -11 -18 -28 -31 -37 -47 -30 -101 22 -59 57 13 10 19 10 34 -4 25 -23 37
-4 21 32 -28 68 -115 88 -224 53 -36 -11 -68 -21 -72 -21 -13 0 49 61 81 81
31 20 95 26 95 10z m-150 -34 c0 -6 -12 -24 -27 -40 -16 -17 -21 -26 -13 -22
12 6 13 5 3 -6 -19 -19 -16 -28 7 -22 15 4 37 -10 83 -54 98 -94 246 -163 350
-163 36 0 113 35 121 55 6 17 -10 30 -19 15 -10 -17 -34 -11 -45 11 -9 16 -8
25 6 40 23 25 52 24 81 -3 45 -42 21 -102 -54 -134 -18 -8 -66 -14 -110 -14
-77 0 -78 0 -48 -16 38 -19 61 -42 52 -50 -13 -14 -116 28 -178 73 -35 25 -88
70 -116 100 -29 31 -53 51 -53 46 0 -6 9 -18 21 -29 23 -21 51 -81 47 -101 -5
-21 -110 88 -122 126 -6 19 -17 36 -23 38 -10 4 -10 -3 -2 -26 6 -16 9 -37 7
-46 -3 -14 -5 -14 -26 0 -12 9 -29 30 -38 48 -16 30 -16 31 12 56 46 39 7 20
-47 -24 -27 -22 -90 -75 -140 -118 -103 -89 -212 -146 -329 -171 -69 -15 -84
-16 -179 -1 -58 9 -106 17 -106 18 -1 1 -9 13 -18 27 -37 54 -5 120 77 162 56
28 106 77 106 105 0 25 17 31 26 10 5 -15 -22 -87 -34 -87 -5 0 -17 -7 -28
-15 -18 -15 -17 -16 13 -10 40 8 51 -10 21 -35 -14 -12 -40 -20 -68 -21 -39
-1 -41 -2 -15 -8 45 -9 38 -34 -12 -44 -33 -6 -43 -13 -43 -27 0 -81 248 -67
368 20 26 18 49 49 66 85 27 56 52 78 65 56 7 -11 47 43 81 108 12 24 13 24
26 6 26 -35 17 -81 -21 -119 -19 -20 -35 -38 -35 -41 0 -26 94 62 173 163 59
76 137 121 137 79z m1476 -56 c73 -52 124 -128 143 -212 16 -69 -30 -159 -81
-159 -23 0 -52 26 -44 39 6 9 13 8 27 -5 25 -22 42 -13 64 32 25 52 21 93 -14
161 -33 64 -69 104 -118 134 -18 10 -33 23 -33 29 0 16 15 12 56 -19z m184 -2
c0 -5 -8 -12 -17 -16 -10 -3 -30 -17 -45 -31 -32 -29 -47 -24 -25 9 31 43 87
68 87 38z m-570 -20 c0 -20 -65 -118 -78 -119 -7 0 3 22 23 51 19 28 35 57 35
65 0 8 5 14 10 14 6 0 10 -5 10 -11z m950 -5 c0 -21 47 -104 78 -136 14 -16
34 -28 43 -28 10 0 22 -6 26 -13 14 -24 123 -68 206 -84 57 -11 115 -14 190
-10 101 4 130 -1 90 -18 -10 -4 -61 -10 -114 -12 -103 -6 -205 11 -288 48 -24
10 -48 19 -53 19 -11 0 -16 4 -90 71 -32 28 -58 56 -58 61 0 5 -11 26 -25 46
-26 38 -33 72 -15 72 6 0 10 -7 10 -16z m1157 -54 c16 -19 7 -48 -23 -79 -23
-24 -24 -24 -44 -6 -15 14 -20 15 -20 4 0 -8 -25 -38 -56 -68 l-57 -53 5 45 5
45 -66 -54 c-82 -67 -154 -104 -200 -104 l-36 1 37 34 38 35 -69 0 c-112 0
-171 37 -171 106 0 23 8 39 26 53 33 26 36 26 64 3 18 -14 22 -25 16 -45 -7
-30 -27 -35 -46 -12 -20 24 -31 6 -15 -25 22 -42 50 -53 130 -53 119 1 244 64
349 179 l49 53 36 -21 c20 -12 41 -29 48 -38z m-1657 -42 c0 -19 -18 -43 -25
-36 -9 9 4 48 16 48 5 0 9 -6 9 -12z m-1670 -50 c0 -134 -111 -272 -159 -197
-16 27 0 64 32 73 27 7 37 0 37 -26 0 -17 2 -18 15 -8 18 15 59 145 52 164 -6
15 1 26 15 26 4 0 8 -14 8 -32z m3407 -39 c6 -59 22 -98 49 -120 10 -8 15 -9
11 -2 -10 16 3 43 21 43 26 0 52 -31 52 -62 0 -56 -62 -48 -113 15 -24 28 -33
54 -42 112 -7 41 -10 77 -7 80 12 11 23 -14 29 -66z m-1698 7 c7 -8 11 -30 9
-48 -3 -33 -4 -33 -58 -35 -72 -4 -224 -31 -278 -50 -23 -9 -44 -14 -46 -12
-1 2 -1 23 2 47 5 51 22 56 22 7 0 -38 7 -43 24 -19 7 9 24 17 39 17 18 2 27
8 27 20 0 9 -6 17 -14 17 -7 0 -27 7 -42 15 -16 8 -36 12 -46 9 -9 -2 -19 0
-23 6 -3 5 -3 10 2 11 4 0 55 6 113 14 148 18 255 19 269 1z m275 -7 c27 -5
51 -11 54 -13 2 -2 -3 -17 -12 -33 l-15 -28 -1 29 c0 27 -1 28 -17 14 -10 -8
-31 -15 -48 -16 -16 -1 -33 -6 -38 -11 -13 -13 1 -31 18 -25 8 4 17 -1 21 -9
3 -9 12 -13 20 -10 13 5 32 -22 22 -32 -2 -2 -33 4 -68 14 -36 11 -81 22 -102
25 -35 6 -36 8 -40 54 -3 26 -3 51 0 56 5 9 124 0 206 -15z m2334 -45 c6 -2
12 -12 12 -24 0 -25 -68 -71 -110 -75 -17 -1 -33 -5 -37 -9 -10 -9 -33 -7 -33
3 0 5 7 17 16 26 9 8 18 33 21 54 l5 39 57 -5 c31 -2 62 -6 69 -9z m-2278 -96
c0 -4 -7 -8 -15 -8 -10 0 -15 10 -15 28 1 26 1 26 15 8 8 -11 15 -23 15 -28z"/>
<path d="M5555 1030 c3 -5 8 -10 11 -10 2 0 4 5 4 10 0 6 -5 10 -11 10 -5 0
-7 -4 -4 -10z"/>
<path d="M1706 1039 c-26 -17 -45 -34 -42 -36 3 -3 18 4 35 16 17 12 47 28 68
36 33 12 35 14 12 14 -14 1 -47 -13 -73 -30z"/>
<path d="M2057 1059 c-27 -4 -50 -9 -52 -11 -2 -2 52 -3 120 -3 123 0 139 8
35 17 -30 2 -77 1 -103 -3z"/>
<path d="M3707 1060 c-43 -8 -166 -60 -139 -60 16 0 66 23 74 34 4 6 51 12
106 14 80 3 107 1 136 -13 20 -10 40 -15 43 -11 13 13 -13 25 -77 35 -72 12
-75 12 -143 1z"/>
<path d="M2265 1030 c3 -5 8 -10 11 -10 2 0 4 5 4 10 0 6 -5 10 -11 10 -5 0
-7 -4 -4 -10z"/>
<path d="M2325 995 c34 -27 47 -31 39 -12 -2 7 -19 18 -37 25 l-32 12 30 -25z"/>
<path d="M4736 703 c-6 -14 -5 -15 5 -6 7 7 10 15 7 18 -3 3 -9 -2 -12 -12z"/>
<path d="M5102 560 c-7 -11 -21 -20 -32 -20 -11 0 -20 -7 -20 -15 0 -8 4 -15
9 -15 5 0 11 -10 13 -22 4 -27 31 -31 36 -5 2 9 -1 17 -7 17 -6 0 -11 9 -11
21 0 15 4 19 16 15 9 -4 23 -1 30 5 11 9 11 13 -1 25 -17 18 -18 18 -33 -6z"/>
<path d="M5675 224 c-6 -7 -19 -13 -28 -15 -15 -4 -14 -7 4 -36 20 -32 50 -42
75 -25 12 8 44 66 44 79 0 13 -82 10 -95 -3z"/>
<path d="M436 147 c3 -10 9 -15 12 -12 3 3 0 11 -7 18 -10 9 -11 8 -5 -6z"/>
<path d="M2715 660 c3 -5 8 -10 11 -10 2 0 4 5 4 10 0 6 -5 10 -11 10 -5 0 -7
-4 -4 -10z"/>
<path d="M4428 313 c7 -3 16 -2 19 1 4 3 -2 6 -13 5 -11 0 -14 -3 -6 -6z"/>
</g>
</svg>
