<?xml version="1.0" encoding="UTF-8"?>
<svg viewBox="0 0 573.5 352.5" xmlns="http://www.w3.org/2000/svg">
 <g fill-rule="evenodd" stroke-width="0">
  <path d="m190.75 31l2.25-4 4 5.75q4 5.75 6.25 7.5l2.25 1.75 0.5 7 0.5 7 6.5 7.5q6.5 7.5 7 14t-0.5 13 1.25 8.25 28.75-0.25 31.75-2.75l5.25-0.75 5.25 2.25q5.25 2.25 5.75 0.25l0.5-2-3-1q-3-1-32 1.5t-31.5 2.5-6.5-0.5l-4-0.5 5.5-1q5.5-1 36.5-3.5t38.5-1.5 16-5 19.5-9 11.5-3 27-2 56 2.5 38.75 8.75 12.5 8l3.25 3.75 8-2.5q8-2.5 12-3.25l4-0.75 0.25 7.5q0.25 7.5 0.25 9.5v2l6 4 6 4 0.5 7q0.5 7-0.75 8.75l-1.25 1.75-5.5-2.5q-5.5-2.5-16.5-3l-11-0.5-5.75 9.25q-5.75 9.25-9.25 13.25t-11.5 11.5l-8 7.5-0.75 1.25q-0.75 1.25 13.25-1.25t20.75 0.25l6.75 2.75-2.25 1.25q-2.25 1.25-10.25-0.75l-8-2-7.5 2.5q-7.5 2.5-20.5 4.75l-13 2.25 19.5-0.25 19.5-0.25v1.5q0 1.5-13 1t-26-1.25l-13-0.75-3 7.25q-3 7.25-15 15.75t-26.5 13-32.5 8.5-32 10-29 21-12.5 14.5l2.5-0.5 1.5-2.5q1.5-2.5 9-4.25l7.5-1.75-5-0.5-5-0.5 26.25-1.5 26.25-1.5 2.75 1.25q2.75 1.25 6.5 3l3.75 1.75-3.25 0.25q-3.25 0.25-9.25-0.75t-11-0.5-15.5 1-16.75 3.75-4.5 3.75 1.75 2v1.5l-15.5 2.25q-15.5 2.25-31.5 5.75t-41.5 1-28.5-4l-3-1.5h-9q-9 0-22-1.5t-18-1l-5 0.5-4-2q-4-2-2.5-3t8 0 13.75 0.75l7.25-0.25 0.25-1.5q0.25-1.5-17.25-3t-16.5-2.75l1-1.25 3.5-2q3.5-2 10.75-2.75l7.25-0.75-1.25-0.25q-1.25-0.25-2.25-1.25t9-0.5l10 0.5-13.5-10q-13.5-10-45.75-24.75t-37.25-20.75l-5-6-0.5-11.5q-0.5-11.5 0.5-13.5l1-2 5-3.5 5-3.5-1-4.5q-1-4.5-3.5-12t0-18.5 7.25-19.75 7.5-9.5l2.75-0.75v3q0 3 2.5 8t9.25 9.5l6.75 4.5 2.75 8q2.75 8 2.75 12v4l1-7q1-7 2-7.5l1-0.5-0.5 7.5q-0.5 7.5-5.25 15l-4.75 7.5 5.75 3q5.75 3 7.5 4.25l1.75 1.25 18-1q18-1 29-6t13-5h2l7-5.5q7-5.5 15-7.5t28-3 38 4 25.5 7.5 22.5 2.5 17.5 0.25 10 0.25h7.5v1q0 1-4.5 0.75l-4.5-0.25-2 0.5q-2 0.5 4-1.5t-2-8.25l-8-6.25-21-2.75q-21-2.75-34.5-6.75t-30.5-7l-17-3-3.75-6.75q-3.75-6.75-4.75-13.25l-1-6.5-4.75-1.75-4.75-1.75-4.25-5.75-4.25-5.75-0.5-1q-0.5-1 2-16t5-21 4.75-10zm-134.5 73.25l0.25-0.25 2.75 6.5q2.75 6.5 4 6t1.25-2 4.25 1.75 5.25 3.5 1 1.25 1 1 2.25 2 2.25 3.5l1 1.5 0.5 1.5q0.5 1.5 0 8.5t-3 12-2-1.5 0-7-2 6l-1.5 6.5-0.5-9-0.5-9-1.5-0.5q-1.5-0.5-1.5 0t1 3 0.5 9-2.5 9.5-2.25 5 1 1.5 3.5-3.25 3.25-3 2 4.25-4.25 6-6.25 1.5-1.75-1.75-2.25-2 0.25 3.25 3.5 4.25 4.75 1.25 4.25-0.25 3.25-5.75 3.25-4.75 4.75 2.75 15.5 3.5 22.75-0.25 10.5 0.25 3.75 0 4-0.5-2.75 2.5-2 1.75 4.75-0.75l4-1-3.5 2q-3.5 2-4 2t-4.5-0.5-20-1-21.5-1.75-5.5 1-5.5 4.25-7.5 2.5-10 0-13.25-2.25-6.75-3.25-1.5-3.5v-2l0.25-1.5q0.25-1.5 3.25-3t2.5 3.25 2.5 6.75 10.5 3 13.25-0.75 6.75-3.25l1-1.5-0.75-1.25q-0.75-1.25-2.75 1.25t-3.5 3-10.75-0.25-9.5-1l-0.25-0.25 3.5-0.5q3.5-0.5 0-2.5t-4.75-4.25-2-6.5 1-3.5 2.25 1.75 0.75 4.5 1.5 3 1.25-3v-2.5l-1.75-2.75q-1.75-2.75-5.25-6.5l-3.5-3.75-1.25-4q-1.25-4-0.75-13.5t3.25-16.5 4.75-8.25 2.25-1.5zm-8 88.75l-0.25-1 1.25 1q1.25 1 0.25 1t-1.25-1zm19.25-8.25l8.5-1.75v1.5q0 1.5 1 1.5t1 1 6.5 2.25 7 1.25 2.5 1 4.5 1.25 3 1.5 4.75 1.5 4 1.25l-0.25 1 4.75-0.5q4.75-0.5 4.5-0.25t4.5 0.5 6.5 3 2.75 3l1 0.25 2-5q2-5 4.75-6t3-2 2.25-1 2 1 1 1 1.5-4.25 1.5-4.25h1l-0.25 0.25q-0.25 0.25-1.5 5t-5.5 10-5 9.75l-0.75 4.5-3-0.75q-3-0.75-9.5-1.25t-9-1.5-16-2.5-16-2.5-4.25-0.75-2-0.75-3.25-1.75-5.5-2.25-3.25-1.25-1-1.25-2.25-1.5-2-1-1.5-1-1.5-2.25-1-2.75l-1-0.5 0.5-0.5q0.5-0.5 9-2.25zm15-3.5q4.5-0.75 4.25-0.5l-0.25 0.25-0.75 0.75q-0.75 0.75-4.25 1.5t-3.5-0.25 4.5-1.75zm16.5-0.5l10-2.75v1q0 1-7.5 3.25t-11 3.25-5.5 0.5 1-1.5l3-1 10-2.75zm-1.5-2.25q2.5 0-1 1t-6 0.5 1-1l3.5-0.5h2.5zm14.75 1.25q1.25-0.75 1 0.5l-0.25 1.25-4.5 1.75q-4.5 1.75-4.5 2.75t-2 1.25l-2 0.25-1.25-0.75q-1.25-0.75 0-1.5t6.75-2.75 6.75-2.75zm-11.75 42.75h1.5-3 1.5zm6.5-35.5q0-1 1-1h1l-0.5 1.75q-0.5 1.75-1 1t-0.5-1.75zm18-1.5q2 0 0.5 1t-3.5 2l-2 1-2.5 1q-2.5 1-7.5 1.5l-5 0.5 7-2.5q7-2.5 9-3.5t4-1zm-16.5 38h1.5l-1.25 0.25q-1.25 0.25-1.5 0l-0.25-0.25h1.5zm7-40.5l2.5-0.5-2 1q-2 1-2.5 0.5t2-1zm-1.5 3.75l3-0.25-3 1.25q-3 1.25-3 0.25t3-1.25zm7-2.25zm-3.75 43.5q0.25-1 1.5-0.25l1.25 0.75-1.5 0.25q-1.5 0.25-1.25-0.75zm1.75-6.5q1 0 1.5 0.5l0.5 0.5-1.5-0.5-1.5-0.5h1zm5.5-32.25q1.5-0.25 2 1t-3 1.75l-3.5 0.5 1.5-1.5q1.5-1.5 3-1.75zm-0.5 74.75q3-0.5 2 0t-3 0.5h-2l3-0.5zm-0.5-45zm5.5-35q0-1 1.5-0.75l1.5 0.25-1.5 0.75q-1.5 0.75-1.5-0.25zm11 73.5q1 0 1.25 0.75t0 1-5.75-0.25l-5.5-0.5 4.5-0.5 4.5-0.5h1zm-7-61h1-2 1zm0 51.5v-1l2 1.25q2 1.25 1.25 1.5t-2-0.25-1.25-1.5zm4 13.25q1-0.25 1 0.75t1 1 1.5 1.25l0.5 1.25-3-0.75q-3-0.75-2.5-2t1.5-1.5zm1.5-97.25zm3.75 2q-0.25-1 0.75-0.75l1 0.25-0.75 0.75q-0.75 0.75-1-0.25zm129.25-7.5q1.5 0 3.75 1.75l2.25 1.75 0.5 6q0.5 6-0.75 6.75t-3.5 1.5-2.25 6.75 1.5 10 5.5 11.5 4.25 7.75l0.25 0.25 1 0.5q1 0.5 13.25-0.75t15-2 8-4 5.75-4.75l0.5-1.5 2.75 3.25q2.75 3.25 7.25 4.75t12.25 0.25 12.75-5.75 6.5-9 0.5-11-2.25-8.25l-1.25-1.75 2.5-1q2.5-1 7-1.25t6.25 3.25 5.25 9 5.25 8.75 3.5 2 0.75-6.75-4.75-10.25-3.75-6.25v-1.5l6.25 8.25q6.25 8.25 7 10t2.25 2.75-2.25 2.75-3 2.5 4.25-0.75l3.5-1.5-5 3q-5 3-10 5t-13 4.5-18 4.5-13 2.5-20.5 2.5-30.5 6-20.5 6.5-14.5 4-18.75 3.25-13.5 2-3.25-0.25-8.5 0-7.5 0.5-12-1.25-12.75-2.75-3-1.25-13-5-13.25-6.75-3-1.5-2.75-1.75-3.5-2.5-2-1.75l-0.25-1 3.25-1q3.25-1 5.5-6.5t7.25-6 3.5 1.25-3 3.25l-1.5 1.5-2.25 3.75q-2.25 3.75-1.5 6l0.75 2.25 3.25 0.25q3.25 0.25 7.75-5.75t7.25-6.75 2 0.5-3.75 5.75-2.25 8.75l0.75 4.25 3.5-0.25q3.5-0.25 5.25-5.75t6.5-8.75 5.25-1.75-4.25 5.25-5.25 4.75-0.25 5.25l0.25 4.25 3.75-1.25q3.75-1.25 6-5.5t8.25-8.75 6.75-4.25l0.75 0.25-1.25 2.75q-1.25 2.75-6.5 7.5t-5.5 7.75 2.75 3.25l3 0.25 1.5-0.5q1.5-0.5 3.5-4t6-7 7.25-7.75 3-9l-0.25-4.75-3.75 0.25q-3.75 0.25-6 5t-2.5 4.5-0.5-5-3.5-3.5-5.25 2.75-4 2-1.75-4.25-3.25-5-5.5 3.5-2.75 3l-0.75-0.75 0.75-3.5q0.75-3.5 0.75-4.5t1-1.75 16 1.25 30.5 1 26-5 11-4.5l0.5-0.5 2-4q2-4 0.25-2.75t-4 3.5-6.75 4.75-25 4.5-23.25 1.25-1.5-1 2-0.5l0.75-0.25 0.25-1.5q0.25-1.5 17.75-3.25t26.75-6 12.5-6.75 4.25 1.5 2.5 4 0-5-3-5-2-2.25 1-2.25zm-126 110q1.5 0 5.75 1.25t4.5 2.25-4-0.5l-4.25-1.5 0.25 1.75q0.25 1.75 1.25 2.25t-1.75 0.75-2.5-2.25-0.25-3.25 1-0.75zm0.5-101.25l1-0.25-0.5 1.25q-0.5 1.25-1.5 1.5l-1 0.25 0.5-1.25q0.5-1.25 1.5-1.5zm2 7q4-0.75 0.25 1t-4 0.75l-0.25-1 4-0.75zm6 20q1-0.25 0.5 1t-2.25 2.5-3.5 5.5-3.25 4.5 0.25-3.75 2-4.25l0.25-0.25 2.5-2.5q2.5-2.5 3.5-2.75zm-2.5-17.25q4.5-0.5-0.5 0.5t-4.5 0.5l0.5-0.5 4.5-0.5zm-5.5 86q0-1 1.75-0.5t1.75 1.5v1l-0.25-0.25q-0.25-0.25-1.75-0.5t-1.5-1.25zm2.5-13.5v-1.5l0.25 1.25q0.25 1.25 0 1.5l-0.25 0.25v-1.5zm5.5-70h2l-1 0.5q-1 0.5-3 0.5h-2l1-0.5q1-0.5 3-0.5zm4 4.75q3-0.25 2.5 1t-2.25 1.5-2.5 1.5l-0.75 1.25-0.25 0.25q-0.25 0.25 0-2.5t3.25-3zm6.75 17.5q2.75-1.75 3-0.5t-2.5 4l-2.75 2.75-0.5 0.5q-0.5 0.5-1.25 2.75t-2.75 2.5-1-2 3-5.25 4.75-4.75zm-4.75-22.75q0-1 2.25 0t3.5 1.75-2.25 0l-3.5-0.75v-1zm41.5-37q2.5-0.5 14 0t20.5 2 15.25 3.75 8.5 3.5 3.25 1.5 2.25 2.25l1.25 2-0.5 3.5q-0.5 3.5-2.25 5.75t-4.75 4.25-9 3.5-9 2.5-10 1.5-22.5 0-24.5-3-10.5-3.5-5.5-3-5.25-4.25-1.5-5.25l-0.25-3 1.25-0.5q1.25-0.5 1.5-2t3-2.5 3-2 7.25-2.75 9.5-2.25 7.5-1 7.5-1zm-37.75 44.5q0.25-2.5 1.5-1.5t1 2-1.5 1.5l-1.25 0.5 0.25-2.5zm7.75 0.75q2.5-0.25 1.5 3t-2.5 3.75l-1.5 0.5-1.5-0.75q-1.5-0.75-2.25 0.25t-0.5-0.75 1.25-2 2-2 3.5-2zm8 18.25q1.5 0-1.75 4.25t-4.25 6.75-1.5 2 0-3 1.25-3.75l0.75-1.25 2-2.5q2-2.5 3.5-2.5zm-1.5-15.25l1-0.25-1 2.25q-1 2.25-2 2.5l-1 0.25 1-2.25q1-2.25 2-2.5zm3 59.25h1-2 1zm0 15h1-2 1zm10.5-226l1-3.5 2.25 2.25q2.25 2.25 4.5 4.5t2.75 4.75 1 7l0.5 4.5 5.5 5.5q5.5 5.5 6.5 9t1.5 7-1.5 7.5-3.25 5.75-2.25 2l-1 0.25 1.25-3q1.25-3 1.75-8t0-6l-0.5-1-0.5 0.5q-0.5 0.5-1.5 3t-2.25-1.75-2-4-0.75 0.75 0.5 3-0.25 8.25-1 6-2-5.5-2.75-6-0.5 4.75-3.5 3.25-6.25-3.5-4.25-7.75-2.5-9.5 1-9.5 3.5-10 3-5.5 2-5zm-9.25 139.75l0.25-0.25 0.25 1q0.25 1-0.25 0.25t-0.25-1zm14 28.5q1.25-0.75 1 1t-4.75 4.75-5.25 3.75-1.5 3.5-2 2.5-0.75-2.75 1.25-3.75l0.75-1.25 3-2q3-2 5-3.5l2-1.5 1.25-0.75zm-11 35.5q0.25-0.25 0.5 0t4.5 1 4.5 1-3.25 0.25h-3.5l-1.5-1q-1.5-1-1.25-1.25zm3.5-46.75q0.25-2.5 1.25-2.5t0.25 3l-0.75 3-0.5-0.5q-0.5-0.5-0.25-3zm0.25-11.5v-1h1q1 0 1 1v1h-1q-1 0-1-1zm1 70q0-1 5-0.5t5 1.5v1l-5-0.5-5-0.5v-1zm3.5 13.25q1.5-0.25 1 0.25t-1.5 0.25l-1-0.25 1.5-0.25zm0.5-84.75l0.5-2.5v6l-0.5-0.5q-0.5-0.5 0-3zm-1 65.5v-1h4v1q0 1-2 1t-2-1zm2.75 2.75q0.75-0.75 1-0.5t1.75 0.5 1 1-2.5 0.25l-2-0.5 0.75-0.75zm17.25-45.25q0.5-0.5-0.25 2.25t-2 4l-1.25 1.25-2.75 2.25q-2.75 2.25-3.75 2.5t-2.5 3.5-1.75 3.5l-0.25 0.25-1.25 0.5q-1.25 0.5-0.25-2.75t6-7.25 6-4.25 2.25-2.75 1.75-3zm-14-24.25q1-0.25 1.5 2.75l0.5 3-1.25-0.5q-1.25-0.5-1.5-2.75t0.75-2.5zm0.5 63q1.5-0.25 1.5 0.75t-1.5 0.25l-1.5-0.75 1.5-0.25zm79.5-15.5q3-0.25 4 0l1 0.25-0.5 1.75q-0.5 1.75-1.75 2.5t-1.5 2.5-2.5 3-2.5 2.25 1.5 0.5 2 0.5-2.75 2.25-3.25 1.5l-0.25 0.25-0.25 0.25q-0.25 0.25 2.25-0.25t3.75-1.25 1 0.5-5.5 4-6 4-9.25 4.25-15.5 3.5l-7 0.5 12.5-2.75q12.5-2.75 12.5-3.75v-1l-8.5 1.75q-8.5 1.75-16 3.25t-11.5 2-2.5 1.5-1.25 1.75-2.5-0.5-9.75-3.25-9.75-2.25l0.25-0.25 0.25-0.25q0.25-0.25 1.75-0.5t2.25-1.25 2.5 0.25-0.25 1.5-2 1.25 8.5 0.75 8-0.75 0-1 10-1 24-4.25 14.5-4.75-6 0.25-7.5 1.75-5.5 0-5-1 1.5-1 6.5-1 7.5-1.5 7.25-2.25 4-2.25-10.75 1.75-19 3.25l-8 0.5 12.5-3q12.5-3 20-4.75t7.5-2.75-6 0.25-13 3.25l-7 2-1-0.5q-1-0.5 4.5-1.75t5.5-2.75 3.5-2.5 3.5 0.5 6 0 6-3.5 3-2.25zm-79 36.25v-1l2 0.5q2 0.5 2 1.5v1l-2-0.5q-2-0.5-2-1.5zm1.25-17q-0.25-1 3.75 0.5t4 2.5-1.75 1.5-2.5-1.25-2-2l-1.25-0.25-0.25-1zm1.75-145.5q0.5-2.5 1.25 0.25l0.75 2.75-1.25-0.25q-1.25-0.25-0.75-2.75zm-0.25 97.5q0.25-3 1.25-3t-0.25 3l-1.25 3 0.25-3zm0.75-16q0-3 1-1t1.75 3.25l0.75 1.25-1.75-0.25q-1.75-0.25-1.75-3.25zm-0.5 60q0-1 1.5-0.25l1.5 0.75-1.5 0.25q-1.5 0.25-1.5-0.75zm2 25.5h2-4 2zm2-166.25q1-0.25 0.75 0.75l-0.25 1-0.75-0.75q-0.75-0.75 0.25-1zm0.5 137.25h1.5-3 1.5zm0.5-134.5q0-1 2-0.25l2 0.75-2 0.25q-2 0.25-2-0.75zm1 138v-1h3v1q0 1-1.5 1t-1.5-1zm2 7q0-1 2-0.25l2 0.75-2 0.25q-2 0.25-2-0.75zm2-10v-1h1q1 0 1 1v1h-1q-1 0-1-1zm10.5-128.25q7.5-0.25 10.5 0.25t11 1 25.5 2 18.5 2 9 0.5 12 0h4l-2.75 0.75q-2.75 0.75-2.5 2.5t1.75 2.25-2 1.5-8 1.25-4.5 1.25-4 1.25-3 1.25l1 1-3-0.5q-3-0.5-11-2t-10.5-2.5-12-3.5-13.5-3.5-11.75-1.25-8 0-3.25 0.5-2.75-0.75l0.25-1 0.5-0.5q0.5-0.5 0.75-2t7.75-1.75zm-8.5 86.75q0-3.5 1.25-3t1 3.5-1.25 3h-1v-3.5zm3 55h3-6 3zm5.5 15h7.5l-2.5 0.5-2.5 0.5-4.75-0.25-4.75-0.25-0.25-0.25q-0.25-0.25 7.25-0.25zm17-162q18.5 0 32.5 2t23 2 9.5 0.5-3.25 1.75-4 1l-0.25-0.25-11.5-0.5q-11.5-0.5-31-2t-28.75-2.25l-9.25-0.75 0.25-0.25q0.25-0.25 2.25-0.75t20.5-0.5zm-23.5 143.5q0-1 2-0.75l2 0.25-0.5 0.5q-0.5 0.5-2 0.75t-1.5-0.75zm3.5-10.5h2.5-5 2.5zm2.25 4q0.25-1.5 1.25-1.5t0.5 2.25-2 2.25h-1.5l0.75-0.75q0.75-0.75 1-2.25zm3.5 28.25q-1.75-0.75-1-0.5t1.75 0.75l1 0.5-1.75-0.75zm4.75-22.75l4-0.5 3 0.5q3 0.5-6.25 0.75t-9.5 0 2.25-0.25 6.5-0.5zm8.5 2.25q6.5-1.25 6.5-0.25t-2.25 2l-2.25 1-0.25-0.25q-0.25-0.25-9.25 0.5t-9-0.25 2-1.25l2-0.25h3q3 0 9.5-1.25zm-11.5-131.75h2-4 2zm0 120h1-2 1zm1 24.75q2-0.25 2 0.75t-2 0.25l-2-0.75 2-0.25zm0.5-18.5q1.5-0.75 1.5 0.25t-1.5 0.75l-1.5-0.25 1.5-0.75zm2.5-6.75v-1h1q1 0 1 1v1h-1q-1 0-1-1zm13.25 22.25q0.25-0.25 1 0t2.25 0.75-3.5 1.5l-5 1-4 0.75q-4 0.75-4-0.25t6.5-2.25 6.75-1.5zm-1.75 5.25q4.5 0-1.5 1t-7 0.5 1.5-1l2.5-0.5h4.5zm-4.25-165.25q0.25-0.25 1 0t3.25 0 2 1l-0.5 1.25h-0.5q-0.5 0-3-1t-2.25-1.25zm3.75 170.25h2l-1 0.5q-1 0.5-2 0t1-0.5zm-4 7h1-2 1zm2.5-38.25q1.5-0.25 1.5 0.75t-2 0.75l-2-0.25 0.5-0.5q0.5-0.5 2-0.75zm11.5-138.75q1 0 3.5 1t-1.5 1.25l-4 0.25 0.5-1.25q0.5-1.25 1.5-1.25zm1 162.75q1-0.25 1 0.75t1 1.25l1 0.25-1.75-0.75q-1.75-0.75-2-1t0.75-0.5zm3-2.75v-1.5h1q1 0 1 1.5v1.5h-1q-1 0-1-1.5zm3.5 3q1.5 0 1 0.5t-2 0.5h-1.5l0.5-0.5q0.5-0.5 2-0.5zm1.5-6.5q2-0.5 1.5 0t-2 0.5h-1.5l2-0.5zm6.75-0.75q1.75-1.25 1.5 0t-1.75 1.25h-1.5l1.75-1.25zm8.75 12.25q2.5 0-1.75 0.75t-4 0.5l0.25-0.25 1.5-0.5q1.5-0.5 4-0.5zm-0.5-113q1 0 5.25 2.75t5.75 6.25 0.75 9.75-2.25 6.25h-1.5l-1-1.5q-1-1.5-2-1.75t0.25-2.75 0.5-6.75-1.5-6-1.5-3-2.25-2.25l-1.5-1h1zm5.5 34.75q0.5-1.25 1.5-1l1 0.25-0.5 1.25q-0.5 1.25-1.5 1l-1-0.25 0.5-1.25zm1.5 46q2-1.25 2 0.25t-2 1.25l-2-0.25 2-1.25zm1-131.25q0-1 3-0.5t3 1.5v1l-3-0.5q-3-0.5-3-1.5zm4.25 48.75q2.25-0.75 2.5-0.5t2.75 0.75 0.5 1l-2 0.5h-0.5q-0.5 0-3-0.5t-0.25-1.25zm-1.25 51.75l0.5-1.5-0.5 1.5-0.5 1.5 0.5-1.5zm2-3l0.5-1.5-0.5 1.5-0.5 1.5 0.5-1.5zm2.5 1.5q2-3 1.25 0.5l-0.75 3.5-1.25-0.5q-1.25-0.5 0.75-3.5zm0.5-29l0.5-1 0.25 1.5q0.25 1.5-0.5 1t-0.25-1.5zm5 6.5q1 0-0.75 2.75t-2.5 4.75-1.75 2 0-2.25l1-2.25 1.5-2.5q1.5-2.5 2.5-2.5zm-2.75-3.25l0.25-0.25-0.75 2.25q-0.75 2.25-1 2.5l-0.25 0.25 0.75-2.25q0.75-2.25 1-2.5zm-0.25-73.25v-1h4v1q0 1-2 1t-2-1zm1 59.5l0.5-2.5 0.5 2q0.5 2-0.5 2.5t-0.5-2zm3.25 27.25q1.25-1.75 1.25-0.75v1l-2 3.5q-2 3.5-1.25 0.75t2-4.5zm0-6.5l0.25-0.25-0.75 2.25q-0.75 2.25-1 2.5l-0.25 0.25 0.75-2.25q0.75-2.25 1-2.5zm0.25 15.75v-1 2-1zm2.5-5.5q1 0-0.25 2.25l-1.25 2.25 0.25-2.25q0.25-2.25 1.25-2.25zm1.5-40q2.5 0 7 3t18 3.5l13.5 0.5-1 0.5q-1 0.5-8.5 1t-13-0.5-8-3-6.5-3.5l-4-1.5h2.5zm-1.25 16q-0.25-1.5 0.75-0.75t0.25 1.5l-0.75 0.75-0.25-1.5zm1-6.5q-0.25-2 0.75-2t0.25 2l-0.75 2-0.25-2zm69.5-85.75q12.75-1.25 13-1t7 1 7 1.75 13.75 1.75l13.5 0.75-13.5 0.25q-13.5 0.25-13.5 1.75t-1 1.75l-1 0.25v1q0 1 13 1.25t13 1.25v1l-11-0.25q-11-0.25-12 0.25t-7.5 0.5-24.5 1.5-26 3.5-9.5 3-9.5 1.5-14 1.75l-6 1.25 0.5-2.5q0.5-2.5 4.5-3.75t8.5-2.75 5.5-1.75l1-0.25 1-1.75q1-1.75 5-4.25t12.5-4.5 13-2.5 17.25-1.75zm-67 123.25l0.75-2.5 0.25 2.25q0.25 2.25-0.75 2.5t-0.25-2.25zm1-30.5q0.25-2 1.25-2t0.5 2.5-1.5 2.25l-1-0.25 0.25-0.25q0.25-0.25 0.5-2.25zm1.25 8q0-1 1.5-0.75l1.5 0.25-1.5 0.75q-1.5 0.75-1.5-0.25zm1.75 21q0.25-1 1.25-1t0 2.5-2 2.25l-1-0.25 0.75-1.25q0.75-1.25 1-2.25zm1-27l0.75-3 0.5 1.5q0.5 1.5 0.25 3t-1.25 1.5-0.25-3zm2.25 13.5q0.5-0.5-0.25 3l-0.75 3.5h-1q-1 0 0.25-3t1.75-3.5zm0-5.75q2-0.25 2.25 1l0.25 1.25-0.25-0.25q-0.25-0.25-2 0t-2-0.75 1.75-1.25zm1.75-14q-1.25-0.75 0 0l1.25 0.75-1.25-0.75zm0 5.75q0.25-1.5 1.25-1.5t0 3-2 2.75l-1-0.25 0.75-1.25q0.75-1.25 1-2.75zm0.25 17q1-3.5 2-3.5h1l-1 3.5q-1 3.5-2 3.5h-1l1-3.5zm2.75-13.5q0.25-2 1-1.5t-0.25 2l-1 1.5 0.25-2zm1.25 14l0.5-1-0.5 2.5q-0.5 2.5-1 3.5l-0.5 1 0.5-2.5q0.5-2.5 1-3.5zm0.25 7.5l0.75-3.5 0.75 0.5q0.75 0.5-0.75 3.5t-0.75-0.5zm56.75-125q21-1 21.5-1t10.5 0.5 24 2.5 23 4.5 15.5 6 8.25 6.25 2 4.25 1.5 2 1.25 2.5v2l-2.25 2.75q-2.25 2.75-8.75 5.25t-14 4.5-21.5 3-31 1.5-31.5-1-31-6-17.5-4.5h-1l-3 0.25q-3 0.25-1.75-1.75t1.5-2.25 4.25 0.25 9.5 2.5 14 4 18 3 38.5 0.5 40.5-2.5 18-4.5 8.25-3.75 2.25-4.75l0.5-3.5-1.75-2.75q-1.75-2.75-4.25-4.25t-5.5-2.5-5-1.5-12-3-24.5-4-33-1.5-34 2-21.25 4.25-8 3.5-3.75 1.5-1-1 3-2.75l2.5-1.5 8.5-3q8.5-3 14-4t26.5-2zm-55 97.75q1-0.25 0.75 0.75l-0.25 1-0.75-0.75q-0.75-0.75 0.25-1zm1.25 5l0.25-0.25-0.25 2.5q-0.25 2.5-1.25 2.5t0-2.25 1.25-2.5zm1.75-18.75h2-4 2zm-0.75 24.75l0.25-0.25 0.25 1q0.25 1-0.25 0.25t-0.25-1zm3 0.75l0.75-2h1q1 0-0.25 2.5t-1.75 2 0.25-2.5zm2.25-44.75q1.5-0.25 1.5 0.75t-1.5 0.25l-1.5-0.75 1.5-0.25zm0.75 47.75l0.75-2h1q1 0-0.25 2.5t-1.75 2 0.25-2.5zm1.25 6.5l1-1.5-0.25 2.5q-0.25 2.5-1.5 3l-1.25 0.5 0.5-1.5q0.5-1.5 1.5-3zm0.75-51.25q0.25-0.25 2 0.5t2.75 1.25l1 0.5 0.5 0.5q0.5 0.5-1.5 0t-3.5-1.5-1.25-1.25zm4.75 32.5q5-0.75 4 3.75t-2.25 4-2-1.75l-0.75-1.25-1.25-0.75q-1.25-0.75-2-2t4.25-2zm-2.5-37.25h1.5l-1.25 0.25q-1.25 0.25-1.5 0l-0.25-0.25h1.5zm-1.5 32.5v-1h1q1 0 1 1v1h-1q-1 0-1-1zm2.5-37.5q1.5 0 1 0.5t-1.5 0l-1-0.5h1.5zm-0.5 17.75q1-0.25 0.75 0.75l-0.25 1-0.75-0.75q-0.75-0.75 0.25-1zm1.25 42l0.25-0.25-0.75 2.25q-0.75 2.25-1 2.5l-0.25 0.25 0.75-2.25q0.75-2.25 1-2.5zm-1.25-88.25v-1h1q1 0 1 1v1h-1q-1 0-1-1zm4.25 90.25q0.25-0.25-0.5 2t-1 2.5-0.5 1.75-1 1l-0.75-0.5 1.75-3.25q1.75-3.25 2-3.5zm-0.75-27.25zm-0.5 19.5q-0.5-1.5 2.25 1.25t4.25 3 1.5 1.25-2.5 0.5-3.75-2.5l-1.25-2-0.5-1.5zm0.25-64.5q0.25-1 1.5-0.25l1.25 0.75-1.5 0.25q-1.5 0.25-1.25-0.75zm1.25 4.25q1.5-0.25 1.5 0.75t-1.5 0.25l-1.5-0.75 1.5-0.25zm2 70q0.5-1.25 2-1.25t0.75 1.5l-0.75 1.5-1.75 2.75q-1.75 2.75-2.75 3t0.5-3 2-4.5zm4-60.25q-1.5-0.5 0 0l1.5 0.5-1.5-0.5zm-0.5-5.5q-1-1 1-0.5l2 0.5 5 1 5 1-6-0.5q-6-0.5-7-1.5zm1 17q-1-1 1-0.5l2 0.5-1 0.5q-1 0.5-2-0.5zm17.75-49.75q11.75-1.75 12-1.5t22.75 0.75 29.5 2-1.5 1.75l-8.5 0.25v1q0 1 7.5 1.25l7.5 0.25-6.75 1.25q-6.75 1.25-6.5 1.5t-1.25 0.5-1.5 1.25 1 1 1 1.5 6 1.25 7.5 0.25 0 1-30 0.5-40-1.25-11.5-2.25 19-0.5l19 0.5v-1q0-1-11-1.75l-11-0.75 21-0.75q21-0.75 21-1.75t-8-0.75-33.5 0.25h-25.5l4.5-0.5q4.5-0.5 33.5-2l29-1.5-0.5-0.5q-0.5-0.5-15-0.5t-28 0.5-1.75-1.25zm-21.25 70.75v-1.5 3-1.5zm2.75 30.5q1.75-4 2.75-4t0.75 1l-0.25 1-1.75 3.25q-1.75 3.25-2.5 3t1-4.25zm28.75-41q5-0.5 2.5 0.5l-2.5 1-15 2.25-15 2.25v-1q0-1 12.5-2.75t17.5-2.25zm-25 17.5q1.5-2.5 1-0.5t-1.5 4l-1 2-0.5 2.5q-0.5 2.5 1.5-0.5t2.25-4 1-0.5-2.25 5.5-4 4-0.25-4.25 1.5-4.5 2.25-3.75zm5.5-69h8.5l-6.5 0.5-6.5 0.5-2-0.5q-2-0.5 6.5-0.5zm-8 61.5v-1 2-1zm0.5-12q0-1 2.5-0.25l2.5 0.75-2.5 0.25q-2.5 0.25-2.5-0.75zm2-34q0-1 2-0.25l2 0.75-2 0.25q-2 0.25-2-0.75zm136.25-12.75l0.25-0.25-0.5 8.5q-0.5 8.5-3.5 15t-5.25 9.25-8 8l-5.75 5.25-1.75 0.75q-1.75 0.75-3.25 0.25t-4 1-7.5 3.5-8 2.5-18.5 0-18.25-1.75-4.5-6-6.75-4.75-5.5-0.5-2-0.75-0.5 1.5-4 2.75-5.5 0.5l-0.5-0.5 3.5-1q3.5-1-9.5-3t-15-2.5l-2-0.5 1-0.5q1-0.5 8.5 1t14 1.75 6.5-0.75-1-1.75-0.5-0.75 6 0.75 5.5 1.75 1 1-0.25-2-1.5-2.25-16.75-2.75-17-3l-0.5-0.5 2.5 0.5q2.5 0.5 4 1t17.5 1.25 16-0.25v-1l-1-0.25q-1-0.25-19-1.75t-20-2.5 8 0.5 15.5 1 4.5-1.5 1-0.5 3 1 4.75-0.25 3.5-1-4.75-1.25-17-2.25-13-3.25 0.5-2 1-1 6.5 0.25l6.5 1.25-6.25 0.75q-6.25 0.75-6 1t3.25 0.75 18.5 1.75 15.5 0.25-2-2.25 2.5-1.5 4.5-1.25-1.5-1.25 3.25 0.5 5 1 2.25 0.5l2 0.25-0.5-2q-0.5-2 2-1.75t8 0.25 14.5-0.5 9.5-0.5 10.5-2.5 18-6.5 8.25-4.25zm-134.25 32.25q2 0 4 1l2 1-3-0.5q-3-0.5-4-1l-1-0.5h2zm-0.5 26v-1.5l0.5 0.5q0.5 0.5 0.5 2v1.5l-0.5-0.5q-0.5-0.5-0.5-2zm5 11q2-3.5 1.25-0.75t-1 3l-0.25 0.25-1 0.5-1 0.5 2-3.5zm-1.25 14q1.25-0.5 0.75 1t-1.25 3.5-1.75 2h-1l1-3q1-3 2.25-3.5zm-1-35.75q1.25-0.75 2 0.75t-1.25 0.75l-2-0.75 1.25-0.75zm1-3q0.75-0.25 2.75 0.25l2 0.5 2.5 1q2.5 1-2.75-0.25t-4.5-1.5zm0.75 11.75l0.5-0.5v4l-0.5-1.5q-0.5-1.5 0-2zm2.75 14.5q0.25-1 1-0.5t-1 4.5-2.75 4-0.25-1.5l0.75-1.5 1-2q1-2 1.25-3zm-2.75 19.5l0.5-1.5-0.5 1.5-0.5 1.5 0.5-1.5zm6.5-55h3.5l2 0.5q2 0.5-2 0.5h-4l-1.5-0.5q-1.5-0.5 2-0.5zm0 20.5q2.5-0.5 2.75-0.25t0.5 1.75l0.25 1.5-1.25 0.5q-1.25 0.5-1.5-1t-1.5-0.5-1 1.25-0.75 0.5-0.5-1.5 3-2.25zm-1.5 46.25l1-0.25-0.5 1.25q-0.5 1.25-1.5 1.5l-1 0.25 0.5-1.25q0.5-1.25 1.5-1.5zm0-26.25q0.5-2 0 0l-0.5 2 0.5-2zm3 3.25q1-0.25 0.75 1.25l-0.25 1.5-0.75-1.25q-0.75-1.25 0.25-1.5zm4.75-22.75l0.75-2.5 0.75 2.5q0.75 2.5-0.75 2.5t-0.75-2.5zm11.25-4q1 0 1.25 0.25t0.25 1.75v1.5l-1.75 0.75q-1.75 0.75-2.25 0.75t-2.5 0.25-2-2.25v-2.5l1.25 0.5q1.25 0.5 1.5 1.5t1.25 1 1.5-1.75 1.5-1.75zm-1.5-38h3.5-7 3.5zm4.5 0.5q0-1 2.5-0.25l2.5 0.75-2.5 0.25q-2.5 0.25-2.5-0.75zm2 37.5q0.5-2.5 1-1.5t0 3l-0.5 2-0.5-0.5q-0.5-0.5 0-3zm5.5 18q-4-7.5-0.75-3.75l3.25 3.75 1.25 2.25q1.25 2.25 0.75 3.75t-4.5-6zm0.5 24.75q1-0.25 1 0.75t-3 1.25l-3 0.25 2-1q2-1 3-1.25zm0.5-49.75h1.5-3 1.5zm5.5 13.5q0-1 1.5-0.75l1.5 0.25-1.5 0.75q-1.5 0.75-1.5-0.25zm4 31.5h1l-1.5 1q-1.5 1-2.5 1h-1l1.5-1q1.5-1 2.5-1zm1.5-29.75q1.5-0.75 1.5 0.25t-1.5 0.75l-1.5-0.25 1.5-0.75zm1.75-81.75q-0.25-1 8.25-0.25l8.5 0.75h-14l-1.25 0.25q-1.25 0.25-1.5-0.75zm-0.25 85v-1h3v1q0 1-1.5 1t-1.5-1zm3 3.5v-1.5h1q1 0 1 1.5v1.5h-1q-1 0-1-1.5zm2.25 2.75q0.25-0.25 0.5 1t-0.5 1-0.5-1 0.5-1zm2 4.5l2.25-1.75 0.25 1q0.25 1-2.25 1.75t-0.25-1zm3.25-7.75v-1 2-1zm30.5-8.25q7-1.75 7-0.75t-2.5 2.25-3 1.75l-0.5 0.5-1 0.5q-1 0.5-13.25 1.25l-12.25 0.75-0.25-1q-0.25-1 9.25-2.25t16.5-3zm-12-78.25l-2-1 4 0.25q4 0.25 3.25 0.75t-2 0.75-3.25-0.75zm-5 6h2-4 2zm4-3h3-6 3zm11 1.5q-1-0.5 0 0l1 0.5-1-0.5zm-6 9.5h1-2 1zm4 2.75q1-0.25 0.75 0.75l-0.25 1-0.75-0.75q-0.75-0.75 0.25-1zm1.25-15.25q0.25-1 0.5-0.75t2.25 0.75l2 0.5-2.5 0.25q-2.5 0.25-2.25-0.75zm4.75-2.5q2 0 9 2t8 2.5l1 0.5-0.5 0.5q-0.5 0.5-6.5-1.5t-8.5-2.5l-2.5-0.5-1-0.5q-1-0.5 1-0.5zm1 7h2-4 2zm14.25 1.25q0.75-0.25 2.75 0.75l2 1-2.75-0.75q-2.75-0.75-2-1zm2.25 4.75q1.5 0 2.75 0.75t0.25 1.25-2.75-0.75l-1.75-1.25h1.5zm2.75-9.5q0.25-1 2.5 0.75l2.25 1.75-2.5-0.75q-2.5-0.75-2.25-1.75zm31 4.75l8.25-2.75-0.75 2.75q-0.75 2.75-1.5 4t-0.5 4 6.75 6.75l6.5 4-2 0.5q-2 0.5-9-0.5t-10.25-0.75l-3.25 0.25-0.5-0.5q-0.5-0.5-1.5-7.5l-1-7 0.25-0.25q0.25-0.25 8.5-3z"/>
  <path d="m94.25 251q-0.25-1 2.25-0.75l2.5 0.25 7.5 0.75q7.5 0.75 7.5 1.75t-9.75 0-10-2z"/>
  <path d="m156 297.5q1 0 5.5 0.5t15 0.5 10.75 0.25 0.5 1.75-2.5 1l-2.75-0.5-1.25 0.75q-1.25 0.75-11.25 0.75h-10l-3.25-0.75q-3.25-0.75-2.5-2.5t1.75-1.75z"/>
  <path d="m202.5 147q8.5-0.5 9-0.5t8.5 0.5 16 1.5 14.5 3.5 7 3 2 0.75l1.5 0.25-1 4.25q-1 4.25-3.5 5.75t-7.5 3.5-16 3.5-27 0-23-3.5-9.25-3.25-3.25-2.75-1-4.5v-3l3.25-2.25q3.25-2.25 6.75-3.25t9-2 14-1.5zm-7 3.75l8.5-0.75v11l-10.5 2q-10.5 2-10.5 3t-3.25-0.5-3.75-2l-0.5-0.5-1.25-0.5q-1.25-0.5 0.25-3.75t7-5.25 14-2.75zm-8 15.75q1.5 0 2 0.5l0.5 0.5-2.25 0.25q-2.25 0.25-2-0.5t1.75-0.75zm18.25-11.5l0.25-5h1q1 0 0.5 5.25l-0.5 5.25-0.75-0.25q-0.75-0.25-0.5-5.25zm4.5 0.5l0.25-5.5 0.5 0.5q0.5 0.5 0.75 5.5t-0.75 5h-1l0.25-5.5zm3.5-1q0.25-5.5 1.25-5.5t0.75 2.5l-0.25 2.5v0.5q0 0.5-1 3t-0.75-3zm4.75-5.25q1.5-0.25 1.25 2.75l-0.25 3-1 4q-1 4-1.25-2.75t1.25-7zm10.5 2.75v-2h1q1 0 1 2v2h-1q-1 0-1-2zm1 5.25q1-0.25 0.75 0.75l-0.25 1-0.75-0.75q-0.75-0.75 0.25-1z"/>
  <path d="m180.75 291.75q2.75-0.75 4-0.5t3.75 0.25 5.5 1 11.25 1.75l8.25 0.75 0.25-0.25q0.25-0.25 3 0t3 1.75-13.25 0.25-16.5-1.75-7.75-1.25l-4.75-0.75 0.25-0.25q0.25-0.25 3-1z"/>
  <path d="m190 65.5v-1.5h1q1 0 1 1.5v1.5h-1q-1 0-1-1.5z"/>
  <path d="m190.25 70q-0.25-1 0.25-0.25t0.25 1l-0.25 0.25-0.25-1z"/>
  <path d="m197 153.25l1-0.25-1 1.25q-1 1.25-1 0.25t1-1.25z"/>
  <path d="m200 154.5q0.5-2.5 1.25 0.5l0.75 3-1.25-0.5q-1.25-0.5-0.75-3z"/>
  <path d="m237.5 192.5q1.5 0 2.25 0.75t0.25 3.75-3.25 7.75-7.5 10-4.75 9.75-1.25 3.25-2.75-0.75l-1.5 0.5-3 0.75q-3 0.75-2.25-1.75t3-7.25 3.5-5.5 2-2 3.25-3.25 2.75-2.25l0.25-0.25 1.75-5.75q1.75-5.75 3.75-6.75l2-1h1.5zm-13.5 22q1 0-0.25 1.75t-3.25 5.75-2.5 3 0.75-3.25l1.25-2.25 1.5-2.5q1.5-2.5 2.5-2.5zm7.25-7.25q1.25-1.25 0.5 0.5t-3.5 4-2 0.5 2.25-2.75l1.5-1 1.25-1.25zm5.25-12q1.5-0.25 1.25 0.75l-0.25 1-1.5 3.5q-1.5 3.5-2 4.5t0.25-4.25 2.25-5.5z"/>
  <path d="m229.5 294.5q2.5 0 3 0t6 0.25l5.5 0.25-1 1.75q-1 1.75-3.5 1.25t-9.25-0.25-7-1.25 1.75-1.75l2-0.25h2.5z"/>
  <path d="m256.5 188.5h2.5l0.25 0.25q0.25 0.25-0.25 4.25t-2 6.5-6 8-5.5 6.5-2.75 6.25-5.25 5.75-3.75 0.25 0.25-2.75l0.5-2.5 1.25-3.25q1.25-3.25 6-9t7.5-12.5 3.75-7.25 3.5-0.5zm-17.75 28q0.25-1.5 1.25-1.5t0 4.25-2.5 3.75l-1.5-0.5 1.25-2.25q1.25-2.25 1.5-3.75zm9.25-11q0.5-0.5 0.5 0.5v1l-1.75 2.5q-1.75 2.5-2.5 2t1.25-3 2.5-3zm3-4l0.5-0.5-0.75 1.75q-0.75 1.75-0.5 0.5t0.75-1.75zm4.5-10.75q1.5-0.75 0.25 3.25t-1.5 4.25l-0.25 0.25-0.75 1.25q-0.75 1.25 0-3.5t2.25-5.5z"/>
  <path d="m238.25 287q-0.25-1 8.75-0.25t13.25 0.5 6 0.5 4.25 0.25 9-0.5 7 0 5.75 0.75l5.25 0.75 0.25 1q0.25 1-20.25 1.25t-29.75-1.5l-9.25-1.75-0.25-1z"/>
  <path d="m269 190.25l1-0.25-1.25 3q-1.25 3-1.75 5.5l-0.5 2.5 2-3q2-3 1.5-0.5t-2 9-3.25 9.75-3.25 4.75-5 1.5h-3.5l-0.25-1.25q-0.25-1.25 2.75-5.25t4.5-6 4-9.5 3.25-8.75 1.75-1.5zm-6.25 19.25q1.25-2.5 2-2t-1.5 5.25-4.25 6-0.75-1.25 2.25-4l1-1.5 1.25-2.5z"/>
  <path d="m285 255q3-0.5 5-0.5h2l4-0.25q4-0.25 3.5 1t-9.25 1.5-8.5-0.5 3.25-1.25z"/>
  <path d="m296 275.5q1 0 11.75 0.75l10.75 0.75 0.25 1q0.25 1-6.75 1.25t-12.5-0.5l-5.5-0.75 0.5-1.25q0.5-1.25 1.5-1.25z"/>
  <path d="m297 270.5q0.5-1.5 1.75-1.25t3.5 0l2.25-0.25 0.25 0.25q0.25 0.25 2.25 0.25t3 0.5 5.5 0.5h4.5l2.25 0.75q2.25 0.75 2.5 2.25t-6 0.5-6.5-0.75-7.25-0.25-7.75-0.75-0.25-1.75z"/>
  <path d="m381 223q17-2.5 19-2t3 0 5 0 14.75 2.25 8.75 2.75-2.25 0.75l-0.25-0.25-9.5-0.75q-9.5-0.75-9.5-1.75v-1l-6 0.75q-6 0.75-6.5 0.25t-3 0-6 1.5-8.25 1.75-5.5 1.5-21.25 3-20.5 0.75 4-1.75l4-0.25h1q1 0 10-0.75l9-0.75 0.5-1.25q0.5-1.25 1.5-1.75t18-3z"/>
  <path d="m368.25 173.5l-0.25-1.5 3.5 1.25q3.5 1.25 7.75 6.5t5.25 8.75-0.25 5.75l-1.25 2.25-0.5 0.5q-0.5 0.5-2.75 0.25t-3.75-6.25-4-10.5-3-5-0.75-2zm10.75 13q-0.5-3.5 1-1.5t1.75 5.5-0.75 3.5-1.25-2l-0.25-2-0.5-3.5z"/>
  <path d="m394 146.5v-1.5l1.25 0.5q1.25 0.5 1.5 1.5l0.25 1h-1.5q-1.5 0-1.5-1.5z"/>
  <path d="m397.25 141l-0.25-1h2.5q2.5 0 2.5 1.5t-2.25 1-2.5-1.5z"/>
  <path d="m397 152q0-1 1.5-0.75l1.5 0.25-1.5 0.75q-1.5 0.75-1.5-0.25z"/>
  <path d="m401 135.5q2 0 2.5 1.25l0.5 1.25-2.75-1q-2.75-1-2.5-1.25t2.25-0.25z"/>
  <path d="m406 130.5q3 0 3.5 1.25l0.5 1.25h-8l0.5-1.25q0.5-1.25 3.5-1.25z"/>
  <path d="m403.5 146.25l-0.5-1.25 1.75 1q1.75 1 0.5 1.25t-1.75-1z"/>
  <path d="m407 152.5h1-2 1z"/>
  <path d="m410 141.25l2-0.25-0.5 1.25q-0.5 1.25-2.25 0.5t-1.5-1 2.25-0.5z"/>
  <path d="m410 136.5q0.5-1.5 1.75-1l1.25 0.5-0.5 1.25q-0.5 1.25-1.75 1t-0.75-1.75z"/>
  <path d="m413 132.25q1-0.25 0.75 0.75l-0.25 1-0.75-0.75q-0.75-0.75 0.25-1z"/>
  <path d="m428 196.5q13-1 14-0.5t7.75 0.75 7.5 1.5 8.5 1.5l7.75 0.25-0.25 1.25q-0.25 1.25-12.75 1.75l-12.5 0.5-1-0.25q-1-0.25-1.5-1.5t-2-1.75-8-0.5-14-0.5l-7.5-0.5 0.5-0.5q0.5-0.5 13.5-1.5z"/>
  <path d="m441.5 157.5q8.5-2 8.75-1.75l0.25 0.25 0.25 1q0.25 1-4.25 2.25t-12 2.75-11.5 1.25-3.5-1.5 1.5-1.25h1l5.5-0.5q5.5-0.5 14-2.5z"/>
  <path d="m480 115.25q1-0.25 0.75 3.75t-0.75 6.5-1.25 4.75-2.75 5.25-3.5 5.5-3.25 3.75-3 3-2.75 2-1.75 1.25l-0.25 1-0.75 0.75q-0.75 0.75-3.5 1t-2-1.5 3-3 2-2.5 2.75-2 3-3 2-3.25 0.75-1.75-1.5-1.75l-0.25-1 3.5-1.25q3.5-1.25 2-1.5t-1-1.5 3.5-3.25-0.25-1.75-3.5 0 3-2 3-2.5-2.75 0-2.5-0.25 2-1.75l2-0.75 1.5-1q1.5-1 2.5-1.25z"/>
 </g>
</svg>
