<?xml version="1.0" encoding="utf-8" ?>
<svg xmlns="http://www.w3.org/2000/svg" xmlns:xlink="http://www.w3.org/1999/xlink" width="1023" height="576">
	<path fill="#B5B7B9" transform="scale(0.5625 0.5625)" d="M0 0L911.941 0L1818.44 0C1819.26 1.27969 1819.72 2.4189 1819.84 3.93279C1821.15 21.0324 1819.99 38.9683 1819.99 56.1845L1820.01 163.506L1820.02 579.948L1820.02 688.026C1820.02 698.22 1821.57 719.009 1819.72 728.109C1819.55 728.935 1819.3 729.75 1819.03 730.548C1821.18 737.298 1820.53 1019.78 1819.09 1022.86C1818.83 1023.41 1818.74 1023.53 1818.44 1024L1750.38 1024L911.917 1024L859.443 1024L712.9 1024L323.139 1024L0 1024L0 0Z"/>
	<path fill="#174580" transform="scale(0.5625 0.5625)" d="M707.784 549.203C710.493 556.114 712.983 562.908 717.134 569.115C731.35 590.37 760.309 605.787 783.016 615.714C849.031 644.573 926.206 654.644 997.481 658.777C1005.05 659.215 1025.31 661.451 1031.65 659.702C1039.68 659.147 1054.19 657.698 1061.66 659.67C1052.84 661.926 1040.75 660.505 1031.59 660.411C1033.95 664.565 1033.78 715.941 1032.44 722.546C1021.71 723.408 1009.91 722.136 999.158 721.614C957.948 719.617 916.345 715.543 875.824 707.641C824.299 697.592 736.22 675.199 706.15 630.147C702.093 624.068 699.089 617.568 698.237 610.25C696.56 595.834 704.719 564.553 707.784 549.203Z"/>
	<path fill="#518DB4" transform="scale(0.5625 0.5625)" d="M718.953 472.433C734.415 501.502 788.044 520.533 817.736 529.609C881.5 549.099 965.429 561.597 1031.9 561.809C1032.65 563.287 1033.06 564.602 1033.16 566.255C1033.76 575.702 1033.65 654.22 1032.18 658.445C1031.99 659.004 1031.92 659.113 1031.65 659.702C1025.31 661.451 1005.05 659.215 997.481 658.777C926.206 654.644 849.031 644.573 783.016 615.714C760.309 605.787 731.35 590.37 717.134 569.115C712.983 562.908 710.493 556.114 707.784 549.203C712.369 524.118 716.888 497.831 718.953 472.433Z"/>
	<defs>
		<linearGradient id="gradient_0" gradientUnits="userSpaceOnUse" x1="1548.0096" y1="862.79694" x2="548.41998" y2="517.29102">
			<stop offset="0" stop-color="#3C3B3B"/>
			<stop offset="1" stop-color="#979696"/>
		</linearGradient>
	</defs>
	<path fill="url(#gradient_0)" transform="scale(0.5625 0.5625)" d="M595.538 770.257C565.288 751.976 536.317 733.255 516.344 703.168C505.048 686.152 501.538 670.205 501.884 649.944C501.978 644.429 501.854 638.748 502.939 633.329C511.08 672.721 538.866 699.357 571.412 720.789C606.336 743.788 646.312 760.077 686.002 772.913C857.089 828.245 1067.65 828.983 1245.18 807.077Q1300.47 800.784 1355.04 789.875C1360.92 788.652 1380.96 785.265 1384.24 782.099C1385 782.077 1385.75 782.04 1386.5 781.935C1400.19 780.015 1414.37 774.988 1427.59 770.954C1487.66 752.624 1560.84 721.997 1600.1 671.251C1606.15 663.418 1618.01 646.743 1616.7 636.319C1618.02 638.746 1618.76 640.186 1617.96 642.913C1617.79 643.481 1617.59 644.029 1617.37 644.58C1624.72 653.616 1625.04 675.686 1623.9 686.819C1620.57 719.453 1601.05 743.039 1576.33 763.088C1560.06 776.289 1540.33 789.085 1520.96 797.272C1506.97 807.555 1464.14 822.732 1445.94 828.849C1318.51 871.671 1157.59 884.419 1023.29 880.595Q989.577 879.659 955.93 877.344C941.302 876.241 926.634 874.384 912.001 873.605C891.165 870.173 869.87 868.588 848.947 865.306C772.705 853.343 692.189 834.551 624.601 796.102C614.236 789.013 604.704 778.877 595.538 770.257Z"/>
	<path fill="#174580" transform="scale(0.5625 0.5625)" d="M1617.37 644.58C1624.72 653.616 1625.04 675.686 1623.9 686.819C1620.57 719.453 1601.05 743.039 1576.33 763.088C1560.06 776.289 1540.33 789.085 1520.96 797.272C1506.97 807.555 1464.14 822.732 1445.94 828.849C1318.51 871.671 1157.59 884.419 1023.29 880.595Q989.577 879.659 955.93 877.344C941.302 876.241 926.634 874.384 912.001 873.605C891.165 870.173 869.87 868.588 848.947 865.306C772.705 853.343 692.189 834.551 624.601 796.102C614.236 789.013 604.704 778.877 595.538 770.257C607.56 773.871 624.757 783.774 637.52 789.132C662.237 799.511 688.107 807.595 713.933 814.742C879.013 860.43 1094.22 866.116 1264.12 840.602C1366.03 825.298 1536.7 790.398 1600.67 703.316C1612.33 687.449 1620.4 664.379 1617.37 644.58Z"/>
	<path fill="#31688C" transform="scale(0.5625 0.5625)" d="M912.001 873.605C926.634 874.384 941.302 876.241 955.93 877.344Q989.577 879.659 1023.29 880.595C1157.59 884.419 1318.51 871.671 1445.94 828.849C1464.14 822.732 1506.97 807.555 1520.96 797.272C1539.64 814.091 1557.14 832.57 1575.04 850.243L1653.18 926.613L1707.14 979.489C1721.01 992.833 1735.92 1006.2 1748.77 1020.49C1749.9 1021.75 1750.29 1022.31 1750.38 1024L911.917 1024L912.001 873.605Z"/>
	<path fill="#6F7275" transform="scale(0.5625 0.5625)" d="M1344.53 273.645L1347.88 274.335C1348.29 275.037 1348.75 275.65 1348.92 276.453C1350.71 278.77 1351.1 281.511 1351.63 284.317C1358.71 321.623 1362.64 360.24 1367.86 397.875C1369.91 412.62 1376.45 447.554 1375.53 460.476C1376.52 463.777 1377.56 468.717 1376.22 471.989C1378.46 477.406 1383.75 524.642 1382.48 530.658C1399.24 534.605 1415.84 539.831 1432.42 544.533Q1473.21 556.142 1514.12 567.319L1574.01 583.735C1585.85 586.987 1598.67 589.761 1609.99 594.523C1615.59 599.033 1617.88 612.282 1618.64 619.435C1619.22 624.864 1619.69 631.496 1616.7 636.319C1618.01 646.743 1606.15 663.418 1600.1 671.251C1560.84 721.997 1487.66 752.624 1427.59 770.954C1414.37 774.988 1400.19 780.015 1386.5 781.935C1385.75 782.04 1385 782.077 1384.24 782.099C1380.78 779.239 1326.1 772.066 1318.09 770.674Q1237.81 756.714 1158.05 740.057C1130.74 734.614 1101.64 730.745 1075.02 722.674C1061.09 721.653 1046.47 722.671 1032.44 722.546C1033.78 715.941 1033.95 664.565 1031.59 660.411C1040.75 660.505 1052.84 661.926 1061.66 659.67C1054.19 657.698 1039.68 659.147 1031.65 659.702C1031.92 659.113 1031.99 659.004 1032.18 658.445C1033.65 654.22 1033.76 575.702 1033.16 566.255C1033.06 564.602 1032.65 563.287 1031.9 561.809C1034.86 556.127 1034.09 417.74 1033.17 401.919C1046.66 399.041 1069.77 387.713 1083.16 382.206L1196.17 335.605L1305.3 290.707C1315.38 286.509 1336.43 279.567 1344.53 273.645Z"/>
	<path fill="#062353" transform="scale(0.5625 0.5625)" d="M1061.66 659.67C1145.92 660.574 1268.95 641.536 1342.39 598.396C1357.41 589.578 1380.61 574.092 1385.25 556.34C1388.36 561.027 1391.85 593.386 1392.17 600.21Q1392.32 603.15 1392.11 606.086Q1391.89 609.022 1391.32 611.91C1387.02 633.422 1368.76 649.072 1351.26 660.492C1293.42 698.237 1203.63 712.954 1135.85 718.992C1116.07 720.754 1094.11 720.351 1075.02 722.674C1061.09 721.653 1046.47 722.671 1032.44 722.546C1033.78 715.941 1033.95 664.565 1031.59 660.411C1040.75 660.505 1052.84 661.926 1061.66 659.67Z"/>
	<path fill="#174580" transform="scale(0.5625 0.5625)" d="M1031.9 561.809C1086.4 564.027 1143.35 558.691 1196.96 548.985C1245.95 540.116 1321.98 521.866 1359.55 489.984C1366.23 484.318 1370.98 477.974 1375.93 470.828L1376.22 471.989C1378.46 477.406 1383.75 524.642 1382.48 530.658C1384.3 535.884 1387.41 551.345 1385.25 556.34C1380.61 574.092 1357.41 589.578 1342.39 598.396C1268.95 641.536 1145.92 660.574 1061.66 659.67C1054.19 657.698 1039.68 659.147 1031.65 659.702C1031.92 659.113 1031.99 659.004 1032.18 658.445C1033.65 654.22 1033.76 575.702 1033.16 566.255C1033.06 564.602 1032.65 563.287 1031.9 561.809Z"/>
	<path fill="#6F7275" transform="scale(0.5625 0.5625)" d="M1344.53 273.645L1347.88 274.335C1348.29 275.037 1348.75 275.65 1348.92 276.453C1350.71 278.77 1351.1 281.511 1351.63 284.317C1358.71 321.623 1362.64 360.24 1367.86 397.875C1369.91 412.62 1376.45 447.554 1375.53 460.476C1376.52 463.777 1377.56 468.717 1376.22 471.989L1375.93 470.828C1370.98 477.974 1366.23 484.318 1359.55 489.984C1321.98 521.866 1245.95 540.116 1196.96 548.985C1143.35 558.691 1086.4 564.027 1031.9 561.809C1034.86 556.127 1034.09 417.74 1033.17 401.919C1046.66 399.041 1069.77 387.713 1083.16 382.206L1196.17 335.605L1305.3 290.707C1315.38 286.509 1336.43 279.567 1344.53 273.645Z"/>
	<path fill="#518DB4" transform="scale(0.5625 0.5625)" d="M911.941 0L1818.44 0C1819.26 1.27969 1819.72 2.4189 1819.84 3.93279C1821.15 21.0324 1819.99 38.9683 1819.99 56.1845L1820.01 163.506L1820.02 579.948L1820.02 688.026C1820.02 698.22 1821.57 719.009 1819.72 728.109C1819.55 728.935 1819.3 729.75 1819.03 730.548C1821.18 737.298 1820.53 1019.78 1819.09 1022.86C1818.83 1023.41 1818.74 1023.53 1818.44 1024L1750.38 1024C1750.29 1022.31 1749.9 1021.75 1748.77 1020.49C1735.92 1006.2 1721.01 992.833 1707.14 979.489L1653.18 926.613L1575.04 850.243C1557.14 832.57 1539.64 814.091 1520.96 797.272C1540.33 789.085 1560.06 776.289 1576.33 763.088C1601.05 743.039 1620.57 719.453 1623.9 686.819C1625.04 675.686 1624.72 653.616 1617.37 644.58C1617.59 644.029 1617.79 643.481 1617.96 642.913C1618.76 640.186 1618.02 638.746 1616.7 636.319C1619.69 631.496 1619.22 624.864 1618.64 619.435C1617.88 612.282 1615.59 599.033 1609.99 594.523C1598.67 589.761 1585.85 586.987 1574.01 583.735L1514.12 567.319Q1473.21 556.142 1432.42 544.533C1415.84 539.831 1399.24 534.605 1382.48 530.658C1383.75 524.642 1378.46 477.406 1376.22 471.989C1377.56 468.717 1376.52 463.777 1375.53 460.476C1376.45 447.554 1369.91 412.62 1367.86 397.875C1362.64 360.24 1358.71 321.623 1351.63 284.317C1351.1 281.511 1350.71 278.77 1348.92 276.453C1348.75 275.65 1348.29 275.037 1347.88 274.335L1344.53 273.645C1336.43 279.567 1315.38 286.509 1305.3 290.707L1196.17 335.605L1083.16 382.206C1069.77 387.713 1046.66 399.041 1033.17 401.919C1025.69 401.669 986.381 381.7 976.168 377.134Q861.097 326.524 747.495 272.689C759.465 266.123 781.122 261.07 794.639 256.771C807.411 253.376 820.136 248.592 832.729 244.529Q872.469 231.517 912.46 219.3C910.201 211.107 911.862 172.321 911.87 160.8L911.941 0Z"/>
	<path fill="#B5B7B9" transform="scale(0.5625 0.5625)" d="M912.46 219.3C938.013 210.174 964.15 202.327 989.968 193.95C1001.85 190.094 1024.9 180.998 1035.91 180.154C1039.3 179.893 1044.83 181.944 1048.14 182.926L1228.71 238.258L1274.99 252.478C1281.4 254.411 1289.57 255.81 1295.39 258.749C1295.67 258.889 1296.11 259.195 1296.35 259.348C1305.09 260.843 1337.64 268.978 1344.29 272.851L1344.53 273.645C1336.43 279.567 1315.38 286.509 1305.3 290.707L1196.17 335.605L1083.16 382.206C1069.77 387.713 1046.66 399.041 1033.17 401.919C1025.69 401.669 986.381 381.7 976.168 377.134Q861.097 326.524 747.495 272.689C759.465 266.123 781.122 261.07 794.639 256.771C807.411 253.376 820.136 248.592 832.729 244.529Q872.469 231.517 912.46 219.3Z"/>
	<path fill="#DCDBDB" transform="scale(0.5625 0.5625)" d="M794.639 256.771C813.688 267.279 842.372 277.703 863.252 286.602L994.536 342.832C1000.54 345.391 1029.57 356.342 1032.86 359.707C1054.8 358.305 1077.77 345.971 1098.07 337.886L1238.25 282.25L1278.6 266.265C1284.23 264.036 1290.52 260.734 1296.35 259.348C1305.09 260.843 1337.64 268.978 1344.29 272.851L1344.53 273.645C1336.43 279.567 1315.38 286.509 1305.3 290.707L1196.17 335.605L1083.16 382.206C1069.77 387.713 1046.66 399.041 1033.17 401.919C1025.69 401.669 986.381 381.7 976.168 377.134Q861.097 326.524 747.495 272.689C759.465 266.123 781.122 261.07 794.639 256.771Z"/>
	<path fill="#3D7599" transform="scale(0.5625 0.5625)" d="M1348.92 276.453C1351.14 277.307 1352.66 278.523 1354.4 280.106C1374.82 298.688 1393.86 319.274 1413.51 338.696L1550.35 473.745Q1622.95 544.491 1696.3 614.47C1726.79 643.526 1756.75 673.111 1787.62 701.763C1792.02 705.843 1817.39 727.13 1819.03 730.548C1821.18 737.298 1820.53 1019.78 1819.09 1022.86C1818.83 1023.41 1818.74 1023.53 1818.44 1024L1750.38 1024C1750.29 1022.31 1749.9 1021.75 1748.77 1020.49C1735.92 1006.2 1721.01 992.833 1707.14 979.489L1653.18 926.613L1575.04 850.243C1557.14 832.57 1539.64 814.091 1520.96 797.272C1540.33 789.085 1560.06 776.289 1576.33 763.088C1601.05 743.039 1620.57 719.453 1623.9 686.819C1625.04 675.686 1624.72 653.616 1617.37 644.58C1617.59 644.029 1617.79 643.481 1617.96 642.913C1618.76 640.186 1618.02 638.746 1616.7 636.319C1619.69 631.496 1619.22 624.864 1618.64 619.435C1617.88 612.282 1615.59 599.033 1609.99 594.523C1598.67 589.761 1585.85 586.987 1574.01 583.735L1514.12 567.319Q1473.21 556.142 1432.42 544.533C1415.84 539.831 1399.24 534.605 1382.48 530.658C1383.75 524.642 1378.46 477.406 1376.22 471.989C1377.56 468.717 1376.52 463.777 1375.53 460.476C1376.45 447.554 1369.91 412.62 1367.86 397.875C1362.64 360.24 1358.71 321.623 1351.63 284.317C1351.1 281.511 1350.71 278.77 1348.92 276.453Z"/>
	<path fill="#B5B7B9" transform="scale(0.5625 0.5625)" d="M1375.53 460.476C1391.48 463.041 1407.91 468.707 1423.29 473.664C1484.22 493.299 1564.55 526.496 1602.85 579.736C1605.36 583.228 1610.46 589.672 1610.09 593.93C1610.07 594.13 1610.02 594.325 1609.99 594.523C1598.67 589.761 1585.85 586.987 1574.01 583.735L1514.12 567.319Q1473.21 556.142 1432.42 544.533C1415.84 539.831 1399.24 534.605 1382.48 530.658C1383.75 524.642 1378.46 477.406 1376.22 471.989C1377.56 468.717 1376.52 463.777 1375.53 460.476Z"/>
	<path fill="#7FADCB" transform="scale(0.5625 0.5625)" d="M0 0L911.941 0L911.87 160.8C911.862 172.321 910.201 211.107 912.46 219.3Q872.469 231.517 832.729 244.529C820.136 248.592 807.411 253.376 794.639 256.771C781.122 261.07 759.465 266.123 747.495 272.689C745.778 274.668 744.31 276.539 743.573 279.092C737.309 300.792 724.916 456.991 719.668 462.5C653.114 483.721 545.284 521.988 511.727 586.722C503.814 601.986 502.022 616.347 502.939 633.329C501.854 638.748 501.978 644.429 501.884 649.944C501.538 670.205 505.048 686.152 516.344 703.168C536.317 733.255 565.288 751.976 595.538 770.257C604.704 778.877 614.236 789.013 624.601 796.102C692.189 834.551 772.705 853.343 848.947 865.306C869.87 868.588 891.165 870.173 912.001 873.605L911.917 1024L859.443 1024L712.9 1024L323.139 1024L0 1024L0 0Z"/>
	<path fill="#518DB4" transform="scale(0.5625 0.5625)" d="M331.514 339.648L350.101 339.601L350.191 710.323L331.772 710.321C333.207 680.032 331.79 647.366 332.006 616.743L331.514 339.648Z"/>
	<path fill="#31688C" transform="scale(0.5625 0.5625)" d="M473.587 189.224C481.65 193.894 488.642 198.431 491.321 207.965C493.326 215.1 493.349 273.423 492.361 283.084C491.906 287.541 490.751 291.907 488.486 295.798C485.512 300.906 480.429 304.072 474.79 305.516C463.728 308.349 410.957 306.319 396.074 306.346L284.908 306.514C266.602 306.529 248.054 307.268 229.773 306.523C224.983 306.328 220.679 306.098 216.463 303.539C209.171 299.113 203.13 291.181 197.395 284.89C205.789 287.886 214.093 287.991 222.904 288.007L381.376 287.985L427.948 288.001C436.382 288.002 445.55 288.683 453.89 287.409C459.151 286.605 464.83 283.892 468.551 280.053C472.112 276.379 473.835 271.088 474.716 266.157C477.409 251.076 475.47 218.543 475.391 201.839C475.054 197.533 474.522 193.442 473.587 189.224Z"/>
	<path fill="#FDFCFC" transform="scale(0.5625 0.5625)" d="M294.072 710.244L314.679 710.269L331.772 710.321L350.191 710.323C364.736 710.257 381.284 708.821 395.574 711.014L359.534 744.045L227.066 743.837C203.589 743.877 179.71 744.84 156.279 743.727C165.705 732.886 182.593 720.103 193.887 710.168L294.072 710.244Z"/>
	<path fill="#89C9E5" transform="scale(0.5625 0.5625)" d="M314.503 330.541C315.512 351.676 315.078 373.025 315.094 394.184L315.065 500.38L315.055 636.17C315.02 660.845 315.4 685.606 314.679 710.269L294.072 710.244L294.222 330.981C300.991 331.019 307.754 331.155 314.503 330.541Z"/>
	<path fill="#525151" transform="scale(0.5625 0.5625)" d="M185.577 205.151C185.309 200.648 185.159 196.25 186.335 191.849C188.279 184.576 192.539 178.268 199.229 174.583C203.651 172.146 211.08 171.784 216.123 171.547C231.79 170.81 247.699 171.328 263.395 171.322L351.726 171.299C366.724 171.284 446.298 169.449 455.571 172.28C464.338 174.956 469.489 181.354 473.587 189.224C474.522 193.442 475.054 197.533 475.391 201.839C471.54 210.758 467.562 218.287 458.025 222.083C454.979 223.295 451.766 223.599 448.521 223.755C410.14 225.604 368.922 224.069 330.23 224.071C292.177 224.073 250.764 225.615 213.173 223.815C208.454 223.589 204.331 223.278 199.954 221.281C192.596 217.925 189.164 212.014 185.577 205.151Z"/>
	<path fill="#6F7275" transform="scale(0.5625 0.5625)" d="M185.577 205.151C189.164 212.014 192.596 217.925 199.954 221.281C204.331 223.278 208.454 223.589 213.173 223.815C250.764 225.615 292.177 224.073 330.23 224.071C368.922 224.069 410.14 225.604 448.521 223.755C451.766 223.599 454.979 223.295 458.025 222.083C467.562 218.287 471.54 210.758 475.391 201.839C475.47 218.543 477.409 251.076 474.716 266.157C473.835 271.088 472.112 276.379 468.551 280.053C464.83 283.892 459.151 286.605 453.89 287.409C445.55 288.683 436.382 288.002 427.948 288.001L381.376 287.985L222.904 288.007C214.093 287.991 205.789 287.886 197.395 284.89C195.415 283.172 193.472 281.257 191.751 279.281C180.93 266.85 184.682 222.179 185.577 205.151Z"/>
	<path fill="#DCDBDB" transform="scale(0.5625 0.5625)" d="M156.522 861.232C155.972 822.073 157.074 782.877 156.279 743.727C179.71 744.84 203.589 743.877 227.066 743.837L359.534 744.045Q360.117 802.343 359.725 860.643C353.494 862.745 311.848 861.3 302.578 861.3L156.522 861.232Z"/>
	<path fill="#525151" transform="scale(0.5625 0.5625)" d="M299.53 788.62C302.167 788.367 305.201 787.886 307.809 788.469C311.629 789.323 315.341 792.163 317.37 795.478Q317.738 796.078 318.042 796.712Q318.346 797.347 318.584 798.009Q318.821 798.671 318.989 799.354Q319.157 800.038 319.254 800.735Q319.351 801.432 319.375 802.135Q319.4 802.838 319.352 803.54Q319.304 804.242 319.184 804.935Q319.064 805.629 318.874 806.306C317.471 811.479 313.864 814.399 309.385 816.925C306.792 817.178 304.147 817.461 301.587 816.843C297.707 815.908 294.167 813.502 292.094 810.063C289.991 806.575 289.531 802.617 290.593 798.708C291.968 793.646 295.219 791.169 299.53 788.62Z"/>
	<path fill="#525151" transform="scale(0.5625 0.5625)" d="M206.284 787.766C208.116 787.957 209.947 788.185 211.7 788.777C215.682 790.123 219.251 793.084 220.987 796.954C222.507 800.342 222.384 804.283 220.966 807.677C218.678 813.15 214.648 815.166 209.396 817.262C206.109 817.167 202.841 816.812 199.951 815.141Q199.317 814.771 198.721 814.341Q198.126 813.911 197.575 813.425Q197.024 812.94 196.522 812.403Q196.021 811.866 195.573 811.284Q195.126 810.701 194.737 810.078Q194.348 809.455 194.021 808.797Q193.694 808.139 193.433 807.453Q193.171 806.766 192.977 806.058C191.94 802.138 192.499 798.124 194.671 794.683C197.476 790.237 201.366 788.821 206.284 787.766Z"/>
	<path fill="#518DB4" transform="scale(0.5625 0.5625)" d="M624.601 796.102C692.189 834.551 772.705 853.343 848.947 865.306C869.87 868.588 891.165 870.173 912.001 873.605L911.917 1024L859.443 1024C843.511 1010.49 828.728 994.445 813.695 979.852L718.243 886.933L654.884 825.953C644.97 816.432 633.084 806.877 624.601 796.102Z"/>
	<path fill="#518DB4" transform="scale(0.5625 0.5625)" d="M359.534 744.045L395.574 711.014L396.221 713.054C405.159 724.407 416.666 734.512 426.971 744.636L485.615 801.8L649.256 961.6C670.439 982.399 692.126 1002.8 712.9 1024L323.139 1024L156.522 861.232L302.578 861.3C311.848 861.3 353.494 862.745 359.725 860.643Q360.117 802.343 359.534 744.045Z"/>
	<path fill="#908E8E" transform="scale(0.5625 0.5625)" d="M359.534 744.045L395.574 711.014L396.221 713.054C396.321 749.894 394.936 787.454 397.176 824.202C384.332 835.993 372.42 848.72 359.725 860.643Q360.117 802.343 359.534 744.045Z"/>
</svg>
